<svg width="20" height="16" viewBox="0 0 20 16" fill="none" xmlns="http://www.w3.org/2000/svg">
<path fillRule="evenodd" clipRule="evenodd" d="M19.4984 1.85141C18.7897 2.16641 18.0284 2.37816 17.2304 2.47266C18.0549 1.97934 18.6719 1.20314 18.9664 0.288665C18.1913 0.748639 17.3431 1.07268 16.4587 1.24679C15.8644 0.610895 15.0766 0.189167 14.2179 0.0471717C13.3592 -0.0948233 12.4776 0.0508708 11.7102 0.461603C10.9428 0.872335 10.3327 1.52509 9.97455 2.31839C9.61643 3.11169 9.53044 4.00108 9.72995 4.84829C8.16011 4.76962 6.62437 4.36165 5.22244 3.65089C3.82052 2.94013 2.58375 1.94246 1.59245 0.722665C1.2407 1.32543 1.05587 2.01102 1.05695 2.70891C1.05657 3.35892 1.21675 3.99895 1.52327 4.57214C1.82979 5.14534 2.27315 5.63394 2.81395 5.99454C2.18696 5.97502 1.57373 5.80581 1.02545 5.50104V5.55091C1.02553 6.46268 1.34099 7.34635 1.91831 8.05206C2.49563 8.75776 3.29928 9.24205 4.19295 9.42279C3.61088 9.58108 3.0003 9.60412 2.40795 9.49016C2.66021 10.275 3.15154 10.9612 3.81317 11.453C4.4748 11.9447 5.27362 12.2172 6.09783 12.2324C4.69906 13.3295 2.97199 13.9243 1.19433 13.9212C0.879446 13.9221 0.564777 13.9046 0.251953 13.8687C2.05756 15.0288 4.15901 15.6445 6.3052 15.6423C13.5677 15.6423 17.5402 9.62579 17.5402 4.40729C17.5402 4.23666 17.5358 4.06604 17.5279 3.89716C18.301 3.33835 18.9683 2.64619 19.4984 1.85316" fill="black" fill-opacity="0.6"/>
</svg>
