<svg width="66" height="24" viewBox="0 0 66 24" fill="none" xmlns="http://www.w3.org/2000/svg">
<path d="M64.5303 12.5303C64.8232 12.2374 64.8232 11.7626 64.5303 11.4697L59.7574 6.69669C59.4645 6.4038 58.9896 6.4038 58.6967 6.69669C58.4038 6.98959 58.4038 7.46446 58.6967 7.75735L62.9393 12L58.6967 16.2426C58.4038 16.5355 58.4038 17.0104 58.6967 17.3033C58.9896 17.5962 59.4645 17.5962 59.7574 17.3033L64.5303 12.5303ZM6.55671e-08 12.75L2.66667 12.75L2.66667 11.25L-6.55671e-08 11.25L6.55671e-08 12.75ZM8 12.75L13.3333 12.75L13.3333 11.25L8 11.25L8 12.75ZM18.6667 12.75L24 12.75L24 11.25L18.6667 11.25L18.6667 12.75ZM29.3333 12.75L34.6667 12.75L34.6667 11.25L29.3333 11.25L29.3333 12.75ZM40 12.75L45.3333 12.75L45.3333 11.25L40 11.25L40 12.75ZM50.6667 12.75L56 12.75L56 11.25L50.6667 11.25L50.6667 12.75ZM61.3333 12.75L64 12.75L64 11.25L61.3333 11.25L61.3333 12.75ZM65.0607 13.0607C65.6464 12.4749 65.6464 11.5251 65.0607 10.9393L55.5147 1.39339C54.9289 0.807607 53.9792 0.807607 53.3934 1.39339C52.8076 1.97918 52.8076 2.92893 53.3934 3.51471L61.8787 12L53.3934 20.4853C52.8076 21.0711 52.8076 22.0208 53.3934 22.6066C53.9792 23.1924 54.9289 23.1924 55.5147 22.6066L65.0607 13.0607ZM1.31134e-07 13.5L2.66667 13.5L2.66667 10.5L-1.31134e-07 10.5L1.31134e-07 13.5ZM8 13.5L13.3333 13.5L13.3333 10.5L8 10.5L8 13.5ZM18.6667 13.5L24 13.5L24 10.5L18.6667 10.5L18.6667 13.5ZM29.3333 13.5L34.6667 13.5L34.6667 10.5L29.3333 10.5L29.3333 13.5ZM40 13.5L45.3333 13.5L45.3333 10.5L40 10.5L40 13.5ZM50.6667 13.5L56 13.5L56 10.5L50.6667 10.5L50.6667 13.5ZM61.3333 13.5L64 13.5L64 10.5L61.3333 10.5L61.3333 13.5Z" fill="#27AC1F"/>
</svg>
