<svg width="1922" height="537" viewBox="0 0 1922 537" fill="none" xmlns="http://www.w3.org/2000/svg">
<rect x="1" y="1.00293" width="1920" height="536" fill="url(#paint0_linear_425_409)"/>
<line y1="-0.5" x2="234.005" y2="-0.5" transform="matrix(0.692293 -0.721616 0.659886 0.751366 1 169.861)" stroke="white" stroke-opacity="0.2"/>
<line y1="-0.5" x2="464.139" y2="-0.5" transform="matrix(0.730384 -0.683037 0.618902 0.785468 1 318.024)" stroke="white" stroke-opacity="0.2"/>
<line y1="-0.5" x2="752.921" y2="-0.5" transform="matrix(0.741114 -0.67138 0.606735 0.794904 1 506.496)" stroke="white" stroke-opacity="0.2"/>
<line y1="-0.5" x2="806.787" y2="-0.5" transform="matrix(0.747409 -0.664364 0.599458 0.800406 156 537)" stroke="white" stroke-opacity="0.2"/>
<line y1="-0.5" x2="823.465" y2="-0.5" transform="matrix(0.761417 -0.648262 0.615106 0.788445 318 534.821)" stroke="white" stroke-opacity="0.2"/>
<line y1="-0.5" x2="823.465" y2="-0.5" transform="matrix(0.761417 -0.648262 0.615106 0.788445 512 534.821)" stroke="white" stroke-opacity="0.2"/>
<line y1="-0.5" x2="823.465" y2="-0.5" transform="matrix(0.761417 -0.648262 0.615106 0.788445 687 534.821)" stroke="white" stroke-opacity="0.2"/>
<line y1="-0.5" x2="823.465" y2="-0.5" transform="matrix(0.761417 -0.648262 0.615106 0.788445 858 534.821)" stroke="white" stroke-opacity="0.2"/>
<line y1="-0.5" x2="823.465" y2="-0.5" transform="matrix(0.761417 -0.648262 0.615106 0.788445 1032 534.821)" stroke="white" stroke-opacity="0.2"/>
<line y1="-0.5" x2="823.465" y2="-0.5" transform="matrix(0.761417 -0.648262 0.615106 0.788445 1187 534.821)" stroke="white" stroke-opacity="0.2"/>
<line y1="-0.5" x2="743.244" y2="-0.5" transform="matrix(0.762872 -0.646549 0.613363 0.789801 1354 534.821)" stroke="white" stroke-opacity="0.2"/>
<line y1="-0.5" x2="485.276" y2="-0.5" transform="matrix(0.770696 -0.637203 0.603875 0.797079 1547 534.821)" stroke="white" stroke-opacity="0.2"/>
<line y1="-0.5" x2="174.609" y2="-0.5" transform="matrix(0.74452 -0.6676 0.60281 0.797884 1791 534.821)" stroke="white" stroke-opacity="0.2"/>
<line y1="-0.5" x2="225.602" y2="-0.5" transform="matrix(-0.696318 -0.717733 -0.664048 0.74769 1921 162.922)" stroke="white" stroke-opacity="0.2"/>
<line y1="-0.5" x2="447.745" y2="-0.5" transform="matrix(-0.734185 -0.67895 -0.623172 0.782084 1921 304.996)" stroke="white" stroke-opacity="0.2"/>
<line y1="-0.5" x2="726.454" y2="-0.5" transform="matrix(-0.744839 -0.667244 -0.611023 0.791613 1921 485.723)" stroke="white" stroke-opacity="0.2"/>
<line y1="-0.5" x2="809.092" y2="-0.5" transform="matrix(-0.75146 -0.659778 -0.603317 0.797501 1793.97 534.821)" stroke="white" stroke-opacity="0.2"/>
<line y1="-0.5" x2="809.092" y2="-0.5" transform="matrix(-0.75146 -0.659778 -0.603317 0.797501 1613.61 534.821)" stroke="white" stroke-opacity="0.2"/>
<line y1="-0.5" x2="809.092" y2="-0.5" transform="matrix(-0.75146 -0.659778 -0.603317 0.797501 1425.48 534.821)" stroke="white" stroke-opacity="0.2"/>
<line y1="-0.5" x2="809.092" y2="-0.5" transform="matrix(-0.75146 -0.659778 -0.603317 0.797501 1255.79 534.821)" stroke="white" stroke-opacity="0.2"/>
<line y1="-0.5" x2="809.092" y2="-0.5" transform="matrix(-0.75146 -0.659778 -0.603317 0.797501 1089.97 534.821)" stroke="white" stroke-opacity="0.2"/>
<line y1="-0.5" x2="809.092" y2="-0.5" transform="matrix(-0.75146 -0.659778 -0.603317 0.797501 921.242 534.821)" stroke="white" stroke-opacity="0.2"/>
<line y1="-0.5" x2="809.092" y2="-0.5" transform="matrix(-0.75146 -0.659778 -0.603317 0.797501 770.938 534.821)" stroke="white" stroke-opacity="0.2"/>
<line y1="-0.5" x2="809.092" y2="-0.5" transform="matrix(-0.75146 -0.659778 -0.603317 0.797501 609 534.821)" stroke="white" stroke-opacity="0.2"/>
<line y1="-0.5" x2="565.646" y2="-0.5" transform="matrix(-0.744012 -0.668166 0.618866 -0.785496 421.848 534.821)" stroke="white" stroke-opacity="0.2"/>
<line y1="-0.5" x2="287.265" y2="-0.5" transform="matrix(-0.719011 -0.694999 0.646764 -0.762691 207.547 534.821)" stroke="white" stroke-opacity="0.2"/>
<defs>
<linearGradient id="paint0_linear_425_409" x1="23.0001" y1="27.6961" x2="997.365" y2="1565.72" gradientUnits="userSpaceOnUse">
<stop stop-color="#27AC1F"/>
<stop offset="1" stop-color="#0C3409"/>
</linearGradient>
</defs>
</svg>
