<svg width="525" height="462" viewBox="0 0 525 462" fill="none" xmlns="http://www.w3.org/2000/svg">
<path d="M509.316 331.899C500.738 312.394 484.259 296.093 464.47 288.085C443.862 279.721 420.194 282.782 398.482 279.97C379.619 277.55 366.022 269.114 354.775 254.166C343.991 239.822 334.31 223.948 316.692 217.328C302.74 212.096 286.901 213.555 273.056 219.001C247.536 229.073 228.246 250.464 212.016 271.784C197.174 291.253 185.072 312.537 157.667 313.249C130.225 313.96 104.1 298.3 76.4811 302.429C39.9636 307.91 9.56801 338.305 3.19703 374.502C-2.78243 408.422 12.2018 441.309 37.9705 460.635H480.451C512.875 426.218 529.888 378.667 509.316 331.899Z" fill="white" fill-opacity="0.1"/>
<path d="M109.325 460.649H110.535C119.006 451.36 125.626 440.077 129.826 427.584C136.624 407.333 136.34 386.084 129.008 367.719C125.306 358.465 119.932 349.816 114.771 341.452C109.503 332.981 104.093 324.225 100.392 314.829C98.8612 310.949 97.7579 306.785 97.0816 302.514C96.7613 302.478 96.4766 302.443 96.1562 302.407C96.8325 306.821 98.007 311.127 99.5731 315.149C103.275 324.617 108.72 333.408 114.023 341.914C119.184 350.243 124.523 358.856 128.189 368.039C135.45 386.191 135.735 407.226 128.972 427.3C124.701 439.935 117.939 451.324 109.325 460.649Z" fill="white"/>
<path d="M478.257 422.061C487.369 424.019 496.16 425.763 504.666 426.831C504.809 426.546 504.951 426.261 505.093 425.976C496.516 424.873 487.653 423.129 478.435 421.172C464.412 418.182 449.25 414.943 434.194 414.943C424.869 414.943 415.615 416.189 406.681 419.499C403.3 420.744 400.061 422.346 396.929 424.232C388.886 420.816 380.771 417.043 372.762 412.95C378.599 408.572 384.472 404.265 390.416 400.137C434.55 369.314 475.267 351.838 514.596 346.891C514.525 346.606 514.418 346.321 514.347 346.037C474.911 351.02 434.087 368.531 389.882 399.425C383.796 403.66 377.816 408.038 371.873 412.523C362.868 407.86 353.934 402.735 345.321 397.076C329.66 386.825 311.081 372.197 294.816 352.764C357.778 345.681 421.915 336.783 474.271 301.796C476.264 300.479 478.471 298.913 480.748 297.133C480.499 296.955 480.25 296.777 480.001 296.599C477.83 298.308 475.694 299.803 473.808 301.048C421.452 336.035 357.209 344.862 294.175 351.945C282.679 338.064 272.429 321.727 265.31 302.864C254.205 273.429 254.775 244.564 266.912 223.636C267.446 222.71 267.98 221.82 268.585 220.931C268.086 221.18 267.588 221.393 267.09 221.643C266.769 222.141 266.485 222.639 266.164 223.173C253.885 244.315 253.28 273.465 264.492 303.148C271.574 321.941 281.754 338.171 293.143 352.052C289.477 352.443 285.847 352.87 282.216 353.262C269.083 354.721 255.522 356.216 242.318 357.924C237.513 358.529 232.601 359.277 227.725 360.167C217.297 338.135 205.8 316.638 190.994 298.201C190.78 298.415 190.567 298.628 190.353 298.842C205.053 317.136 216.442 338.456 226.835 360.345C205.587 364.402 184.979 372.019 173.945 389.744C163.659 406.294 163.659 429.18 173.981 457.76C174.337 458.757 174.693 459.718 175.084 460.679H176.045C175.654 459.611 175.227 458.543 174.835 457.44C164.62 429.144 164.585 406.508 174.728 390.206C185.62 372.695 206.121 365.185 227.262 361.163C230.964 368.958 234.523 376.824 238.047 384.618L238.438 385.473C250.717 412.594 263.424 438.79 280.081 460.643H281.184C264.385 438.718 251.607 412.38 239.257 385.081L238.865 384.227C235.342 376.468 231.818 368.673 228.188 360.95C232.957 360.06 237.762 359.348 242.496 358.743C255.665 357.035 269.261 355.54 282.359 354.116C286.203 353.689 290.047 353.262 293.89 352.835C310.298 372.588 329.127 387.43 344.965 397.788C353.507 403.375 362.298 408.465 371.232 413.057C356.105 424.517 341.37 436.547 326.991 448.328C322.008 452.386 316.99 456.514 311.9 460.643H313.324C318.093 456.764 322.862 452.884 327.561 449.04C342.046 437.188 356.853 425.051 372.122 413.555C380.094 417.648 388.138 421.385 396.146 424.837C385.184 431.814 376.25 442.598 370.84 455.696C370.164 457.333 369.559 459.006 369.025 460.643H369.951C370.484 459.077 371.018 457.547 371.659 456.016C377.069 442.883 386.074 432.098 397.107 425.229C419.495 434.732 441.526 441.815 460.425 447.403L461.137 447.616C469.11 449.965 477.26 452.386 484.45 456.265C484.664 456.052 484.842 455.803 485.055 455.589C477.723 451.603 469.466 449.182 461.386 446.762L460.675 446.549C441.953 440.996 420.206 434.02 398.033 424.66C400.916 422.951 403.941 421.492 407.073 420.317C430.065 411.775 455.692 417.221 478.257 422.061Z" fill="white"/>
<path d="M40.1636 364.405C44.0787 380.493 42.3347 397.862 35.3587 412.063C30.7673 421.352 24.1828 429.788 16.0322 437.013C16.2102 437.262 16.3526 437.511 16.5305 437.76C24.7879 430.428 31.5148 421.886 36.1773 412.454C43.2601 398.075 45.0397 380.457 41.0534 364.192C37.9569 351.45 31.6927 340.701 23.0439 332.906C22.8659 333.12 22.6523 333.369 22.4744 333.583C30.9453 341.27 37.1027 351.877 40.1636 364.405Z" fill="white"/>
<path d="M241.571 160.624C249.33 168.561 252.782 181.872 248.511 194.187C244.383 206.11 235.307 215.969 224.415 222.305C215.66 227.394 204.199 230.242 195.586 224.867C189.144 220.881 185.798 213.051 185.62 205.47C185.442 197.889 187.969 190.485 191.137 183.616C195.586 173.9 201.565 164.468 210.463 158.559C222.707 150.409 234.132 153.007 241.571 160.624Z" fill="#BDF5B9"/>
<path d="M504.034 79.7322C499.87 65.9225 492.574 53.2161 482.11 41.6131C471.61 30.0102 457.338 20.4359 439.221 12.8548C421.105 5.27373 398.077 1.50098 370.173 1.50098C347.892 1.50098 325.22 4.4907 302.085 10.5057C278.951 16.5208 258.877 25.0985 241.828 36.2388L264.002 97.101L252.114 106.711L269.341 111.765C286.354 102.867 301.836 96.3892 315.824 92.3673C329.776 88.3454 344.618 86.3523 360.35 86.3523C376.046 86.3523 387.933 90.125 396.013 97.7061C404.092 105.287 408.114 114.434 408.114 125.112C408.114 138.032 403.95 149.492 395.692 159.529C387.364 169.566 378.217 179.71 368.18 189.961C361.204 197.079 354.441 204.446 347.892 211.992C341.343 219.573 335.542 227.688 330.559 236.408C325.541 245.093 321.519 254.453 318.458 264.49C315.397 274.527 313.866 285.774 313.866 298.231C313.866 302.253 313.938 307.058 314.187 312.611C314.222 313.643 314.293 314.639 314.329 315.636H298.028L315.788 327.666H402.206C401.743 324.996 401.529 321.864 401.529 318.305C401.529 314.746 401.529 312.077 401.529 310.261C401.529 302.68 403.06 295.206 406.121 287.874C409.182 280.507 412.99 273.495 417.581 266.804C422.173 260.112 427.263 253.777 432.957 247.762C438.616 241.747 444.098 236.052 449.33 230.713C456.306 223.595 463.495 216.014 470.934 208.006C478.337 199.962 484.922 191.527 490.581 182.593C496.24 173.659 500.938 163.978 504.64 153.479C508.341 143.015 510.227 131.554 510.227 119.061C510.263 106.675 508.163 93.5418 504.034 79.7322Z" fill="#10720A"/>
<path d="M342.007 82.1464C326.454 82.1464 311.79 84.0684 298.016 87.9479C284.206 91.8274 268.901 98.0916 252.066 106.705L224.874 33.6345C241.709 22.8501 261.534 14.5571 284.419 8.72005C307.27 2.91855 329.692 0 351.724 0C379.308 0 402.051 3.66598 419.954 10.9979C437.857 18.3299 451.987 27.5838 462.344 38.8309C472.701 50.0424 479.926 62.3216 484.019 75.7042C488.112 89.0868 490.177 101.793 490.177 113.859C490.177 125.96 488.326 137.065 484.66 147.173C480.994 157.317 476.367 166.713 470.744 175.326C465.156 183.975 458.642 192.126 451.31 199.92C443.978 207.679 436.86 215.011 429.991 221.916C424.794 227.113 419.42 232.594 413.832 238.431C408.208 244.232 403.154 250.39 398.634 256.868C394.114 263.345 390.306 270.143 387.316 277.262C384.291 284.38 382.796 291.605 382.796 298.937C382.796 300.681 382.796 303.244 382.796 306.696C382.796 310.149 383.009 313.174 383.436 315.737H298.016C297.126 311.43 296.592 306.59 296.378 301.18C296.129 295.805 296.058 291.143 296.058 287.263C296.058 275.198 297.553 264.306 300.578 254.59C303.604 244.873 307.554 235.833 312.537 227.433C317.484 218.998 323.215 211.167 329.692 203.8C336.17 196.468 342.862 189.35 349.731 182.48C359.661 172.55 368.701 162.762 376.923 153.046C385.109 143.329 389.202 132.224 389.202 119.732C389.202 109.374 385.216 100.547 377.243 93.1799C369.306 85.8124 357.525 82.1464 342.007 82.1464Z" fill="#27AC1F"/>
<path d="M408.149 411.664C408.149 427.254 403.095 439.284 393.022 447.755C382.95 456.261 371.525 460.497 358.818 460.497C346.076 460.497 334.651 456.261 324.579 447.755C314.506 439.284 309.452 427.254 309.452 411.664C309.452 396.111 314.506 384.081 324.579 375.574C340.097 362.476 363.089 359.558 381.277 368.74C397.364 376.891 408.149 393.477 408.149 411.664Z" fill="#10720A"/>
<path d="M391.227 411.656C391.227 427.246 386.173 439.276 376.1 447.747C366.028 456.253 354.603 460.489 341.896 460.489C329.154 460.489 317.729 456.253 307.657 447.747C297.584 439.276 292.53 427.246 292.53 411.656C292.53 396.103 297.584 384.073 307.657 375.566C317.729 367.095 329.154 362.824 341.896 362.824C354.638 362.824 366.028 367.06 376.1 375.566C386.173 384.037 391.227 396.067 391.227 411.656Z" fill="#27AC1F"/>
<path d="M135.345 190.735C136.29 185.692 132.968 180.838 127.925 179.893C122.882 178.948 118.028 182.27 117.083 187.313C116.138 192.355 119.46 197.209 124.503 198.154C129.545 199.1 134.399 195.778 135.345 190.735Z" fill="#C4F4C1"/>
<path d="M139.804 208.203C140.336 205.363 138.45 202.626 135.59 202.09C132.731 201.555 129.981 203.423 129.449 206.263C128.917 209.103 130.803 211.84 133.663 212.376C136.522 212.911 139.272 211.043 139.804 208.203Z" fill="#C4F4C1"/>
<path d="M129.16 168.071C143.476 153.754 143.476 130.543 129.16 116.226C114.843 101.91 91.632 101.91 77.3157 116.226C62.9993 130.543 62.9993 153.754 77.3157 168.071C91.632 182.387 114.843 182.387 129.16 168.071Z" fill="#A4DCA0"/>
<path d="M89.1738 146.78C91.7292 146.78 93.8008 144.709 93.8008 142.153C93.8008 139.598 91.7292 137.526 89.1738 137.526C86.6184 137.526 84.5469 139.598 84.5469 142.153C84.5469 144.709 86.6184 146.78 89.1738 146.78Z" fill="white"/>
<path d="M103.227 146.779C105.782 146.779 107.854 144.708 107.854 142.152C107.854 139.597 105.782 137.525 103.227 137.525C100.671 137.525 98.5996 139.597 98.5996 142.152C98.5996 144.708 100.671 146.779 103.227 146.779Z" fill="white"/>
<path d="M117.28 146.779C119.836 146.779 121.907 144.708 121.907 142.152C121.907 139.597 119.836 137.525 117.28 137.525C114.725 137.525 112.653 139.597 112.653 142.152C112.653 144.708 114.725 146.779 117.28 146.779Z" fill="white"/>
<path d="M76.9792 442.13L80.3961 455.334C81.2859 458.787 84.6315 461.1 88.2975 460.851C99.509 460.104 122.857 457.327 136.24 447.468L132.432 428.427C114.031 427.395 96.804 428.427 81.8909 433.445C78.1894 434.691 76.0183 438.428 76.9792 442.13Z" fill="#102048"/>
<path d="M98.4421 452.627C98.2641 452.627 98.0862 452.484 98.015 452.306L93.4236 435.863C93.3524 435.614 93.4948 435.364 93.7439 435.329C93.9931 435.258 94.2422 435.4 94.2778 435.649L98.8692 452.093C98.9404 452.342 98.798 452.591 98.5488 452.627C98.5133 452.627 98.4777 452.627 98.4421 452.627Z" fill="white"/>
<path d="M108.371 450.383C108.193 450.383 108.015 450.241 107.944 450.063L103.352 433.62C103.281 433.37 103.423 433.121 103.673 433.086C103.922 433.015 104.171 433.157 104.207 433.406L108.798 449.85C108.869 450.099 108.727 450.348 108.478 450.383C108.478 450.383 108.406 450.383 108.371 450.383Z" fill="white"/>
<path d="M119.914 370.769L77.0967 383.475L108.88 427.004L154.509 430.635L217.4 404.012L193.518 368.028L119.914 370.769Z" fill="#27AC1F"/>
<path d="M172.644 376.819C266.607 349.022 281.698 432.058 135.095 447.149C129.934 441.312 123.883 431.204 121.463 422.768L198.876 386.998L172.644 376.819Z" fill="#162425"/>
<path d="M176.669 436.323C172.291 434.899 168.056 432.123 168.056 432.123L152.965 436.857L156.417 453.3L172.113 456.504C176.883 447.748 177.167 440.558 176.669 436.323Z" fill="#F9B384"/>
<path d="M121.812 423.334L121.136 422.195C137.295 412.799 178.652 390.269 213.889 383.613L214.138 384.93C179.115 391.515 137.9 413.973 121.812 423.334Z" fill="#14494F"/>
<path d="M119.928 370.775C32.4782 354.154 9.84164 438.186 156.41 453.313C161.57 447.476 165.663 440.606 168.048 432.136C145.518 417.08 120.355 402.737 92.771 389.105L119.928 370.775Z" fill="#162425"/>
<path d="M167.689 432.701C163.525 430.067 159.182 427.256 154.591 424.301C131.563 409.424 105.438 392.553 83.2646 382.944L83.7985 381.733C106.079 391.379 132.239 408.285 155.338 423.198C159.93 426.152 164.272 428.964 168.401 431.598L167.689 432.701Z" fill="#14494F"/>
<path d="M55.7409 412.441L54.5664 411.8C57.8409 405.856 63.1085 401.835 70.1913 399.877L70.5472 401.158C63.7136 403.045 58.873 406.746 55.7409 412.441Z" fill="#14494F"/>
<path d="M238.268 407.393C235.136 401.698 230.26 397.997 223.462 396.11L223.818 394.829C230.901 396.787 236.168 400.809 239.443 406.752L238.268 407.393Z" fill="#14494F"/>
<path d="M148.222 452.562L147.261 451.637C154.272 444.127 158.543 436.225 160.394 427.47L161.711 427.754C159.789 436.759 155.376 444.874 148.222 452.562Z" fill="#14494F"/>
<path d="M220.257 431.42C209.045 424.516 187.334 436.475 181.888 437.08C180.287 437.258 178.472 436.902 176.656 436.332C177.155 440.568 176.87 447.757 172.101 456.477L174.77 457.011C174.77 457.011 193.207 463.774 212.747 459.823C230.756 456.228 229.048 436.866 220.257 431.42Z" fill="#102048"/>
<path d="M204.972 454.092C204.936 454.092 204.865 454.092 204.83 454.057C204.581 453.985 204.474 453.736 204.545 453.487C205.862 449.287 206.467 440.994 202.587 435.406C202.445 435.193 202.481 434.944 202.694 434.801C202.908 434.659 203.157 434.694 203.299 434.908C207.321 440.745 206.752 449.394 205.364 453.772C205.328 453.95 205.15 454.092 204.972 454.092Z" fill="white"/>
<path d="M196.196 455.727C196.16 455.727 196.089 455.727 196.053 455.691C195.804 455.62 195.697 455.371 195.769 455.122C197.085 450.922 197.691 442.629 193.811 437.041C193.669 436.828 193.704 436.578 193.918 436.436C194.131 436.294 194.38 436.329 194.523 436.543C198.545 442.38 197.975 451.029 196.587 455.407C196.552 455.62 196.374 455.727 196.196 455.727Z" fill="white"/>
<path d="M104.466 262.382C104.466 262.382 126.498 243.66 125.679 240.101C125.109 237.574 118.845 241.276 118.845 241.276C118.845 241.276 127.601 230.883 127.138 229.637C126.355 227.395 120.305 231.594 120.305 231.594C120.305 231.594 124.398 225.722 122.44 224.761C120.482 223.8 116.211 227.43 116.211 227.43C116.211 227.43 118.703 224.156 117.528 223.302C116.354 222.447 111.3 225.971 111.3 225.971C111.3 225.971 113.115 221.842 109.271 223.408C105.427 224.974 78.4482 249.746 78.4482 249.746L104.466 262.382Z" fill="#F9B384"/>
<path d="M113.468 240.175C113.361 240.175 113.254 240.139 113.183 240.068C109.41 236.616 107.737 235.762 103.573 234.48C103.324 234.409 103.217 234.16 103.288 233.911C103.359 233.662 103.609 233.555 103.858 233.626C108.164 234.943 109.908 235.833 113.823 239.392C114.001 239.57 114.001 239.855 113.859 240.033C113.717 240.139 113.574 240.175 113.468 240.175Z" fill="#E28B6D"/>
<path d="M106.851 250.345C106.815 250.345 106.815 250.345 106.78 250.345C106.531 250.31 106.353 250.096 106.388 249.847C106.815 246.75 107.812 244.828 109.378 243.939C110.731 243.191 112.475 243.262 114.574 244.152C114.788 244.259 114.895 244.508 114.824 244.722C114.717 244.935 114.468 245.042 114.254 244.971C112.403 244.188 110.944 244.081 109.841 244.686C108.559 245.398 107.705 247.177 107.314 249.954C107.243 250.167 107.065 250.345 106.851 250.345Z" fill="#E28B6D"/>
<path d="M105.792 231.631C105.686 231.631 105.543 231.596 105.472 231.489C105.294 231.311 105.294 231.026 105.508 230.848L111.024 225.652C111.202 225.474 111.487 225.474 111.665 225.687C111.843 225.865 111.843 226.15 111.63 226.328L106.113 231.524C106.042 231.56 105.899 231.631 105.792 231.631Z" fill="#E28B6D"/>
<path d="M110.907 233.404C110.8 233.404 110.693 233.368 110.587 233.297C110.409 233.119 110.409 232.834 110.587 232.656L115.89 227.139C116.068 226.961 116.352 226.961 116.53 227.139C116.708 227.317 116.708 227.602 116.53 227.78L111.227 233.297C111.156 233.332 111.014 233.404 110.907 233.404Z" fill="#E28B6D"/>
<path d="M116.15 236.508C116.043 236.508 115.936 236.472 115.83 236.401C115.652 236.223 115.652 235.939 115.794 235.761L119.958 231.276C120.136 231.098 120.421 231.098 120.599 231.24C120.777 231.418 120.777 231.703 120.635 231.881L116.47 236.366C116.399 236.472 116.257 236.508 116.15 236.508Z" fill="#E28B6D"/>
<path d="M187.647 387.674L107.138 390.806L98.2402 317.415C98.2402 317.415 125.183 291.86 135.576 282.428L153.088 281.538C207.401 306.168 198.503 337.026 187.647 387.674Z" fill="#27AC1F"/>
<path d="M153.098 281.503C153.098 281.503 215.241 286.806 234.853 329.41C254.037 371.088 175.236 385.93 175.236 385.93L153.098 281.503Z" fill="#27AC1F"/>
<path d="M82.0403 290.613L107.738 259.363L83.7131 244.806C73.7117 251.782 54.3141 267.549 37.9061 285.416C34.2758 289.367 31.464 293.958 30.0403 299.048C28.8302 303.39 28.6166 307.661 29.2929 311.825C31.0725 322.752 39.6502 331.152 51.1108 332.504C60.8986 333.643 98.2702 330.725 128.523 321.827L137.421 287.481C132.794 284.882 98.8397 284.42 82.0403 290.613Z" fill="#27AC1F"/>
<g opacity="0.8">
<path d="M204.938 298.376C205.08 298.34 205.222 298.305 205.329 298.269C205.044 298.091 204.76 297.949 204.475 297.771C199.919 298.803 195.221 299.906 190.594 300.44C187.818 300.761 178.493 301.401 175.788 295.208C174.435 292.112 175.467 288.695 176.998 286.275C176.784 286.203 176.571 286.132 176.322 286.097C174.756 288.659 173.759 292.219 175.183 295.457C178.101 302.077 187.782 301.437 190.665 301.117C195.47 300.583 200.275 299.479 204.938 298.376Z" fill="white"/>
<path d="M233.965 346.423C231.011 345.284 227.914 344.074 224.711 344.394C219.052 344.928 214.211 350.516 213.926 356.851C213.713 361.158 215.386 365.714 218.518 369.7C218.696 369.593 218.909 369.451 219.087 369.344C216.026 365.465 214.389 361.087 214.603 356.887C214.887 350.872 219.443 345.569 224.782 345.035C227.843 344.75 230.726 345.853 233.751 347.028C234.819 347.455 235.922 347.882 237.061 348.238C237.132 348.024 237.168 347.811 237.239 347.597C236.1 347.241 235.032 346.814 233.965 346.423Z" fill="white"/>
<path d="M77.0563 325.18C73.1768 321.977 67.1617 321.123 60.506 322.831C54.5977 324.361 49.5437 327.387 46.0557 331.409C46.2692 331.48 46.5184 331.551 46.7319 331.622C50.1132 327.814 54.9893 324.967 60.684 323.472C67.0905 321.799 72.9276 322.617 76.6292 325.678C78.4088 327.138 79.6545 329.024 80.5443 331.088C80.7578 331.053 81.007 331.053 81.2205 331.017C80.2952 328.846 78.9782 326.782 77.0563 325.18Z" fill="white"/>
<path d="M41.998 281.04C49.2588 279.225 56.3772 276.698 62.8906 272.925C65.3464 271.501 68.1582 269.686 70.1157 267.017C72.2157 264.169 72.8919 260.788 71.9665 257.976C71.6106 256.873 70.9699 255.912 70.1513 255.129C69.9734 255.271 69.7954 255.414 69.653 255.556C70.4005 256.268 71.0055 257.158 71.3259 258.19C72.1801 260.788 71.5394 263.956 69.5819 266.625C67.6955 269.188 64.9549 270.967 62.5702 272.355C56.4128 275.915 49.7215 278.37 42.8523 280.15C42.5675 280.435 42.2828 280.755 41.998 281.04Z" fill="white"/>
</g>
<path d="M158.735 265.161V266.3L158.557 283.989L158.521 285.911C158.486 288.901 157.276 291.641 155.283 293.599C153.325 295.556 150.584 296.802 147.595 296.802C141.508 296.838 136.561 291.962 136.49 285.875L136.276 263.986L158.735 265.161Z" fill="#F9B384"/>
<path d="M158.744 266.296L158.566 283.985C148.743 279.963 144.686 269.321 144.686 269.321L158.744 266.296Z" fill="#102048"/>
<path d="M162.649 235.416C166.173 239.652 176.459 263.605 166.03 271.791C154.285 281.01 136.418 265.883 136.418 265.883L134.033 237.979L149.551 233.886L162.649 235.416Z" fill="#F9B384"/>
<path d="M126.1 233.886C126.1 233.886 91.6827 251.824 119.765 303.539C123.36 310.195 131.332 313.078 138.166 309.839C145.498 306.351 148.274 297.418 144.288 290.335C139.696 282.184 135.283 271.685 137.169 263.89L126.1 233.886Z" fill="#102048"/>
<path d="M135.956 248.935C139.584 245.307 139.584 239.425 135.956 235.798C132.328 232.17 126.446 232.17 122.819 235.798C119.191 239.425 119.191 245.307 122.819 248.935C126.446 252.563 132.328 252.563 135.956 248.935Z" fill="#FBC343"/>
<path d="M140.802 253.561C139.805 247.76 139.2 243.773 145.037 240.784C145.037 240.784 165.716 244.556 169.667 236.726C173.618 228.932 167.603 216.617 155.003 225.159C122.757 218.859 118.45 249.041 128.202 259.114L137.848 257.619C139.805 257.334 141.158 255.483 140.802 253.561Z" fill="#102048"/>
<path d="M156.797 254.953C157.564 254.953 158.185 254.331 158.185 253.565C158.185 252.798 157.564 252.177 156.797 252.177C156.031 252.177 155.409 252.798 155.409 253.565C155.409 254.331 156.031 254.953 156.797 254.953Z" fill="#102048"/>
<path d="M166.132 250.402C166.899 250.402 167.52 249.781 167.52 249.014C167.52 248.247 166.899 247.626 166.132 247.626C165.366 247.626 164.744 248.247 164.744 249.014C164.744 249.781 165.366 250.402 166.132 250.402Z" fill="#102048"/>
<path d="M165.162 257.805C165.056 257.805 164.985 257.769 164.878 257.698C164.735 257.556 164.7 257.307 164.878 257.164C165.412 256.595 166.017 255.776 165.768 255.171C165.518 254.566 164.379 254.281 163.881 254.281C162.778 254.281 162.244 252.324 162.173 251.932C162.137 251.719 162.244 251.505 162.457 251.47C162.671 251.434 162.885 251.541 162.92 251.754C163.134 252.573 163.561 253.498 163.881 253.498C164.415 253.498 166.017 253.748 166.479 254.851C166.835 255.634 166.479 256.595 165.412 257.698C165.376 257.769 165.269 257.805 165.162 257.805Z" fill="#102048"/>
<path d="M165.25 263.025C165.179 263.025 165.108 262.99 165.037 262.954C162.439 261.21 159.84 262.669 159.805 262.669C159.627 262.776 159.378 262.705 159.271 262.527C159.164 262.349 159.235 262.1 159.413 261.993C159.52 261.922 162.474 260.285 165.464 262.278C165.642 262.385 165.677 262.634 165.571 262.812C165.499 262.954 165.357 263.025 165.25 263.025Z" fill="#102048"/>
<path d="M156.199 247.622C156.982 249.081 155.63 249.402 154.028 250.256C152.426 251.11 150.789 251.431 150.433 250.719C150.077 250.007 151.038 248.761 152.64 247.907C154.242 247.053 155.594 246.483 156.199 247.622Z" fill="#102048"/>
<path d="M162.042 244.951C162.398 246.268 163.359 245.698 164.783 245.307C166.206 244.951 167.345 244.204 167.203 243.598C167.025 242.958 165.744 242.78 164.32 243.136C162.896 243.527 161.757 243.954 162.042 244.951Z" fill="#102048"/>
<path opacity="0.4" d="M153.25 262.97C154.898 261.451 155.001 258.884 153.482 257.237C151.963 255.589 149.396 255.486 147.748 257.005C146.101 258.524 145.997 261.091 147.517 262.739C149.036 264.386 151.603 264.49 153.25 262.97Z" fill="#EB5D60"/>
<path d="M140.003 263.805C141.852 261.408 141.143 257.762 138.42 255.66C135.697 253.559 131.99 253.798 130.14 256.195C128.291 258.591 129 262.238 131.723 264.339C134.447 266.441 138.154 266.201 140.003 263.805Z" fill="#F9B384"/>
<path d="M137.496 262.027C137.283 262.027 137.105 261.849 137.105 261.636C137.105 260.497 136.535 259.429 135.61 258.788C134.791 258.255 133.866 258.112 133.047 258.433C132.834 258.504 132.62 258.433 132.549 258.219C132.478 258.005 132.549 257.792 132.763 257.721C133.795 257.294 135.041 257.436 136.037 258.148C137.176 258.931 137.888 260.212 137.888 261.636C137.888 261.849 137.71 262.027 137.496 262.027Z" fill="#102048"/>
<path d="M81.7 290.308L67.6631 305.492L68.3165 306.096L82.3534 290.912L81.7 290.308Z" fill="#102048"/>
<path d="M180.661 355.604L180.412 354.75C190.627 351.618 200.557 347.916 209.562 336.669L210.274 337.238C201.091 348.663 191.019 352.472 180.661 355.604Z" fill="#102048"/>
<path d="M186.896 321.153H99.9091C96.777 321.153 94.25 323.894 94.25 327.275V389.383C94.25 392.765 96.777 395.505 99.9091 395.505H186.896C190.028 395.505 192.555 392.765 192.555 389.383V327.275C192.555 323.894 190.028 321.153 186.896 321.153Z" fill="#B1E8EE"/>
<path d="M147.977 354.436C148.297 354.436 148.582 354.721 148.582 355.077V361.625C148.582 361.981 148.297 362.266 147.977 362.266H138.794C138.474 362.266 138.189 361.981 138.189 361.625V355.077C138.189 354.721 138.474 354.436 138.794 354.436H147.977ZM147.977 352.656H138.794C137.477 352.656 136.409 353.76 136.409 355.077V361.625C136.409 362.978 137.477 364.046 138.794 364.046H147.977C149.293 364.046 150.361 362.942 150.361 361.625V355.077C150.326 353.724 149.293 352.656 147.977 352.656Z" fill="#187A85"/>
<path opacity="0.1" d="M524.519 459.743H0V461.523H524.519V459.743Z" fill="#27AC1F"/>
</svg>
