<svg width="1300" height="250" viewBox="0 0 1300 250" fill="none" xmlns="http://www.w3.org/2000/svg">
<rect width="1300" height="250" rx="10" fill="#27AC1F"/>
<mask id="mask0_511_554" style="mask-type:alpha" maskUnits="userSpaceOnUse" x="0" y="0" width="1300" height="250">
<rect width="1300" height="250" rx="10" fill="#50B2BD"/>
</mask>
<g mask="url(#mask0_511_554)">
<path opacity="0.45" d="M1506.16 -28.0587L1490.12 283.145C1475.45 292.697 1237.65 297.892 1223.94 288.961L1017.81 154.753C1011.22 150.464 1007.7 144.528 1008.03 138.252C1008.35 131.975 1012.49 125.872 1019.53 121.285L1239.98 -22.2429C1254.65 -31.7946 1492.44 -36.9902 1506.16 -28.0587Z" fill="white" fill-opacity="0.4"/>
<path opacity="0.45" d="M1222.34 -88.5527L1059.88 -194.328C1040.84 -206.725 1009.97 -206.725 990.933 -194.328L828.474 -88.5527C809.434 -76.156 809.434 -56.057 828.474 -43.6602L990.933 62.1152C1009.97 74.5119 1040.84 74.5119 1059.88 62.1152L1222.34 -43.6602C1241.38 -56.057 1241.38 -76.156 1222.34 -88.5527Z" fill="white" fill-opacity="0.4"/>
<path opacity="0.45" d="M1222.34 308.135L1059.88 202.359C1040.84 189.963 1009.97 189.963 990.933 202.359L828.474 308.135C809.434 320.531 809.434 340.631 828.474 353.027L990.933 458.803C1009.97 471.199 1040.84 471.199 1059.88 458.803L1222.34 353.027C1241.38 340.631 1241.38 320.531 1222.34 308.135Z" fill="white" fill-opacity="0.4"/>
<path opacity="0.45" d="M179.718 103.133L17.2599 -2.64262C-1.77999 -15.0393 -32.6497 -15.0393 -51.6896 -2.64262L-214.148 103.133C-233.188 115.53 -233.188 135.629 -214.148 148.025L-51.6896 253.801C-32.6497 266.197 -1.77998 266.197 17.2599 253.801L179.718 148.025C198.758 135.629 198.758 115.53 179.718 103.133Z" fill="white" fill-opacity="0.4"/>
</g>
</svg>
