<svg width="18" height="18" viewBox="0 0 18 18" fill="none" xmlns="http://www.w3.org/2000/svg">
<path d="M16.8979 12.9236V15.3211C16.8989 15.5436 16.8532 15.7639 16.7641 15.9679C16.6749 16.1718 16.5441 16.3549 16.38 16.5053C16.216 16.6558 16.0223 16.7703 15.8114 16.8416C15.6005 16.913 15.377 16.9394 15.1553 16.9194C12.6955 16.6522 10.3327 15.8119 8.25677 14.466C6.32535 13.239 4.68785 11.6019 3.46055 9.671C2.1096 7.58614 1.26888 5.21246 1.00649 2.74225C0.986512 2.52126 1.01278 2.29853 1.08363 2.08824C1.15447 1.87795 1.26834 1.68471 1.41798 1.52083C1.56761 1.35695 1.74975 1.22601 1.95277 1.13635C2.1558 1.0467 2.37528 1.00029 2.59723 1.00008H4.99534C5.38328 0.99626 5.75937 1.1336 6.05352 1.3865C6.34766 1.6394 6.53978 1.9906 6.59408 2.37464C6.6953 3.14189 6.88301 3.89523 7.15364 4.62029C7.26119 4.90632 7.28446 5.21719 7.22071 5.51605C7.15696 5.81491 7.00884 6.08924 6.79392 6.30652L5.77872 7.32146C6.91667 9.3222 8.57368 10.9788 10.5749 12.1164L11.5901 11.1015C11.8075 10.8866 12.0819 10.7386 12.3808 10.6748C12.6797 10.6111 12.9907 10.6344 13.2768 10.7419C14.0021 11.0124 14.7556 11.2001 15.523 11.3013C15.9113 11.3561 16.266 11.5516 16.5195 11.8507C16.773 12.1498 16.9077 12.5317 16.8979 12.9236Z" stroke="#27AC1F" stroke-width="2" strokeLinecap="round" stroke-linejoin="round"/>
</svg>
