<?xml version="1.0" encoding="utf-8"?>
<!-- Generator: Adobe Illustrator 26.0.0, SVG Export Plug-In . SVG Version: 6.00 Build 0)  -->
<svg version="1.1" id="Layer_1" xmlns="http://www.w3.org/2000/svg" xmlns:xlink="http://www.w3.org/1999/xlink" x="0px" y="0px"
	 viewBox="0 0 230.81 66.85" style="enable-background:new 0 0 230.81 66.85;" xml:space="preserve">
<style type="text/css">
	.st0{fill:#12181E;}
	.st1{fill:#27AC1F;}
	.st2{fill:none;stroke:#27AC1F;stroke-width:1.4034;stroke-miterlimit:10;}
	.st3{fill:#474747;}
</style>
<g>
	<g>
		<g>
			<g>
				<path class="st0" d="M68.66,19.52l-3.09,2l-3.91-1.96l-1.69-0.84l2.91-1.93l-13.35-6.3l-3.2,2.06l-3.9-1.95l-1.69-0.85l3.01-2
					l-4.91-2.32L3.9,22.24l7.87,3.95l7.2,3.59l0.31,9.29l0.1,0.93c2.11,0,4.12,0.29,6.07,0.82l-0.06-2.16l-3.14-0.95
					c0.14-0.93,0.37-1.82,0.64-2.71l3.25,0.58l1.9-3.54l-2.24-2.38c0.6-0.76,1.27-1.47,1.98-2.09l2.51,2.13l3.43-2.09l-0.74-3.2
					c1-0.39,2.03-0.68,3.11-0.87l1.03,3.12h4.01l1.05-3.12c0.84,0.14,1.66,0.37,2.43,0.64l-0.6,3.22l3.51,1.95l2.42-2.22
					c0.71,0.58,1.38,1.22,2,1.92l-2.13,2.51l2.08,3.43l3.2-0.72c0.32,0.84,0.6,1.74,0.77,2.64l-3.09,1.11l0.06,2.74
					c1.82-0.48,3.72-0.74,5.68-0.74l0.05-0.93v-8.99l14.64-8.42L68.66,19.52z M56.97,18.17L52.9,20.8L49,18.83l-1.69-0.84l5.46-3.61
					l5.51,2.95L56.97,18.17z"/>
			</g>
			<g>
				<g>
					<path class="st1" d="M58.55,42.29v6.46h-0.26l0.23-6.46C58.53,42.29,58.53,42.29,58.55,42.29z"/>
				</g>
				<g>
					<path class="st1" d="M58.52,42.29l-0.23,6.46c-1.62,0.03-3.17,0.28-4.64,0.74c-3.74,1.17-6.92,3.63-8.98,6.87h-0.01
						c-0.83,1.28-1.49,2.69-1.94,4.19H35.2c-0.49-1.64-1.23-3.18-2.18-4.57c-2.1-3.12-5.24-5.46-8.94-6.57
						c-1.46-0.44-3.01-0.67-4.63-0.68l-0.08-3.3v-3.17c2.1,0,4.13,0.28,6.07,0.82c5.69,1.55,10.5,5.24,13.53,10.17
						c3.08-5.01,8.03-8.76,13.86-10.26C54.65,42.55,56.55,42.29,58.52,42.29z"/>
				</g>
				<g>
					<polygon class="st1" points="19.45,48.76 19.37,48.76 19.37,45.46 					"/>
				</g>
			</g>
			<g>
				<path class="st0" d="M11.77,45.77c-0.71,0-1.28-0.57-1.28-1.28V25.79c0-0.71,0.57-1.28,1.28-1.28s1.28,0.57,1.28,1.28v18.69
					C13.06,45.19,12.48,45.77,11.77,45.77z"/>
			</g>
			<g>
				<polygon class="st0" points="65.61,10.46 64.31,11.3 60.24,13.92 56.33,11.97 54.64,11.12 60.11,7.51 				"/>
			</g>
			<g>
				<polygon class="st0" points="82.3,6.97 81.01,7.81 76.93,10.44 73.03,8.48 71.34,7.63 76.8,4.03 				"/>
			</g>
			<g>
				<polygon class="st0" points="59.02,4.49 57.72,5.32 53.65,7.95 49.74,5.99 48.05,5.15 53.52,1.54 				"/>
			</g>
			<g>
				<polygon class="st0" points="72.92,4.07 71.62,4.91 67.55,7.54 63.64,5.58 61.95,4.74 67.42,1.13 				"/>
			</g>
			<g>
				<polygon class="st0" points="76.82,13.95 75.52,14.79 71.45,17.42 67.55,15.46 65.86,14.61 71.32,11.01 				"/>
			</g>
		</g>
		<path class="st2" d="M28.65,40.36c0-5.89,4.77-10.66,10.66-10.66s10.66,4.77,10.66,10.66"/>
	</g>
	<g>
		<g>
			<g>
				<path class="st0" d="M98.22,19.6l5.51-0.99c0.46,1.56,1.65,2.34,3.57,2.34c1.49,0,2.24-0.4,2.24-1.19
					c0-0.42-0.17-0.74-0.52-0.97c-0.34-0.23-0.96-0.44-1.85-0.62c-3.39-0.65-5.57-1.5-6.53-2.55s-1.44-2.28-1.44-3.7
					c0-1.82,0.69-3.34,2.08-4.55c1.38-1.21,3.37-1.81,5.97-1.81c3.94,0,6.54,1.58,7.81,4.75l-4.92,1.49
					c-0.51-1.29-1.54-1.94-3.1-1.94c-1.29,0-1.94,0.4-1.94,1.2c0,0.36,0.15,0.64,0.44,0.84c0.29,0.2,0.86,0.39,1.7,0.57
					c2.31,0.49,3.96,0.92,4.93,1.3c0.97,0.38,1.78,1.02,2.44,1.93c0.65,0.91,0.98,1.99,0.98,3.23c0,1.96-0.79,3.54-2.38,4.76
					c-1.59,1.21-3.67,1.82-6.25,1.82C102.23,25.49,99.32,23.53,98.22,19.6z"/>
			</g>
			<g>
				<path class="st0" d="M128.48,17.81l5.43,0.33c-0.26,2.37-1.13,4.19-2.63,5.45c-1.5,1.27-3.34,1.9-5.52,1.9
					c-2.63,0-4.75-0.87-6.36-2.61c-1.62-1.74-2.42-4.14-2.42-7.2c0-3.03,0.76-5.48,2.29-7.34c1.53-1.86,3.66-2.79,6.4-2.79
					c2.56,0,4.53,0.71,5.9,2.13c1.37,1.42,2.15,3.3,2.33,5.64l-5.54,0.3c0-1.29-0.25-2.23-0.74-2.81c-0.5-0.58-1.08-0.86-1.75-0.86
					c-1.87,0-2.81,1.88-2.81,5.64c0,2.11,0.24,3.54,0.73,4.29c0.49,0.76,1.17,1.13,2.05,1.13
					C127.41,21.01,128.29,19.95,128.48,17.81z"/>
			</g>
			<g>
				<path class="st0" d="M152.48,5.86v19.34h-5.94v-7.52h-4.53v7.52h-5.94V5.86h5.94v7.11h4.53V5.86H152.48z"/>
			</g>
			<g>
				<path class="st0" d="M164.19,25.49c-2.72,0-4.94-0.9-6.65-2.71c-1.71-1.8-2.57-4.22-2.57-7.24c0-2.89,0.82-5.28,2.46-7.16
					c1.64-1.88,3.91-2.83,6.82-2.83c2.69,0,4.89,0.89,6.58,2.66c1.7,1.78,2.54,4.15,2.54,7.11c0,3.07-0.85,5.53-2.56,7.38
					C169.1,24.57,166.9,25.49,164.19,25.49z M164.17,21.1c1,0,1.72-0.44,2.16-1.31s0.66-2.47,0.66-4.8c0-3.36-0.9-5.04-2.71-5.04
					c-1.95,0-2.92,1.92-2.92,5.75C161.36,19.3,162.3,21.1,164.17,21.1z"/>
			</g>
			<g>
				<path class="st0" d="M184.24,25.49c-2.72,0-4.94-0.9-6.65-2.71s-2.57-4.22-2.57-7.24c0-2.89,0.82-5.28,2.46-7.16
					c1.64-1.88,3.91-2.83,6.82-2.83c2.69,0,4.89,0.89,6.58,2.66c1.7,1.78,2.54,4.15,2.54,7.11c0,3.07-0.85,5.53-2.56,7.38
					C189.15,24.57,186.94,25.49,184.24,25.49z M184.21,21.1c1,0,1.72-0.44,2.16-1.31s0.66-2.47,0.66-4.8c0-3.36-0.9-5.04-2.71-5.04
					c-1.95,0-2.92,1.92-2.92,5.75C181.41,19.3,182.34,21.1,184.21,21.1z"/>
			</g>
			<g>
				<path class="st0" d="M209.49,20.45v4.75h-13.56V5.86h5.94v14.59H209.49z"/>
			</g>
			<g>
				<path class="st0" d="M209.56,19.6l5.51-0.99c0.46,1.56,1.65,2.34,3.57,2.34c1.49,0,2.24-0.4,2.24-1.19
					c0-0.42-0.17-0.74-0.52-0.97c-0.34-0.23-0.96-0.44-1.85-0.62c-3.39-0.65-5.57-1.5-6.53-2.55c-0.96-1.05-1.44-2.28-1.44-3.7
					c0-1.82,0.69-3.34,2.08-4.55s3.37-1.81,5.97-1.81c3.94,0,6.54,1.58,7.81,4.75l-4.92,1.49c-0.51-1.29-1.54-1.94-3.1-1.94
					c-1.29,0-1.94,0.4-1.94,1.2c0,0.36,0.15,0.64,0.44,0.84c0.29,0.2,0.86,0.39,1.7,0.57c2.31,0.49,3.96,0.92,4.93,1.3
					c0.97,0.38,1.79,1.02,2.44,1.93c0.65,0.91,0.98,1.99,0.98,3.23c0,1.96-0.79,3.54-2.38,4.76c-1.59,1.21-3.67,1.82-6.25,1.82
					C213.57,25.49,210.66,23.53,209.56,19.6z"/>
			</g>
		</g>
		<g>
			<g>
				<path class="st1" d="M118.26,31.82v19.34h-5.94v-7.52h-4.53v7.52h-5.94V31.82h5.94v7.11h4.53v-7.11H118.26z"/>
			</g>
			<g>
				<path class="st1" d="M137.6,31.82v12.81c0,2.43-0.72,4.17-2.16,5.24c-1.44,1.06-3.32,1.59-5.63,1.59
					c-2.44,0-4.39-0.51-5.87-1.53c-1.48-1.02-2.22-2.68-2.22-4.99V31.82h6.04v12.43c0,0.93,0.19,1.6,0.59,2.03
					c0.39,0.42,1.01,0.64,1.87,0.64c0.72,0,1.3-0.15,1.76-0.46c0.46-0.31,0.73-0.65,0.82-1.04c0.09-0.39,0.13-1.14,0.13-2.27V31.82
					H137.6z"/>
			</g>
			<g>
				<path class="st1" d="M141.06,51.16V31.82h9.82c2.04,0,3.53,0.51,4.46,1.54c0.94,1.03,1.4,2.21,1.4,3.53
					c0,0.96-0.27,1.83-0.81,2.61s-1.35,1.32-2.43,1.61c2.5,0.6,3.75,2.11,3.75,4.51c0,1.44-0.44,2.72-1.32,3.85
					c-0.88,1.13-2.77,1.69-5.66,1.69H141.06z M146.53,39.23h2.75c0.69,0,1.18-0.17,1.46-0.52c0.28-0.35,0.42-0.72,0.42-1.12
					c0-1.08-0.66-1.62-1.98-1.62h-2.65V39.23z M146.53,46.85h2.89c0.72,0,1.24-0.18,1.58-0.53c0.33-0.35,0.5-0.75,0.5-1.2
					c0-0.44-0.16-0.85-0.49-1.23c-0.33-0.37-0.92-0.56-1.79-0.56h-2.69V46.85z"/>
			</g>
		</g>
		<g>
			<g>
				<path class="st3" d="M103.14,64.6v-5.36h0.57v4.87h3v0.49H103.14z"/>
			</g>
			<g>
				<path class="st3" d="M107.73,64.6v-5.36h0.47l2.45,4.18h-0.24l2.43-4.18h0.47v5.36h-0.54v-4.51h0.13l-2.24,3.83h-0.27
					l-2.25-3.83h0.15v4.51H107.73z"/>
			</g>
			<g>
				<path class="st3" d="M116.6,64.65c-0.4,0-0.78-0.07-1.15-0.19c-0.36-0.13-0.65-0.3-0.85-0.5l0.22-0.44
					c0.19,0.18,0.44,0.34,0.76,0.46c0.32,0.13,0.65,0.19,1.01,0.19c0.34,0,0.61-0.04,0.82-0.13c0.21-0.08,0.37-0.2,0.47-0.34
					c0.1-0.14,0.15-0.3,0.15-0.47c0-0.21-0.06-0.38-0.18-0.51c-0.12-0.13-0.28-0.23-0.47-0.3c-0.19-0.07-0.41-0.14-0.64-0.2
					c-0.23-0.06-0.47-0.12-0.7-0.18c-0.23-0.06-0.45-0.15-0.65-0.26c-0.2-0.11-0.35-0.25-0.47-0.42c-0.12-0.18-0.18-0.41-0.18-0.69
					c0-0.27,0.07-0.51,0.21-0.73c0.14-0.22,0.36-0.4,0.65-0.54c0.29-0.14,0.66-0.2,1.12-0.2c0.3,0,0.6,0.04,0.9,0.13
					c0.3,0.08,0.55,0.2,0.77,0.35l-0.19,0.45c-0.23-0.15-0.47-0.27-0.73-0.34c-0.26-0.07-0.51-0.11-0.75-0.11
					c-0.32,0-0.59,0.04-0.8,0.13c-0.21,0.09-0.36,0.2-0.46,0.35s-0.15,0.31-0.15,0.49c0,0.21,0.06,0.38,0.18,0.51
					s0.28,0.23,0.47,0.3c0.2,0.07,0.41,0.14,0.65,0.19c0.23,0.06,0.47,0.12,0.7,0.18c0.23,0.07,0.45,0.15,0.64,0.26
					c0.2,0.1,0.35,0.24,0.47,0.42c0.12,0.17,0.18,0.4,0.18,0.68c0,0.26-0.07,0.5-0.21,0.72c-0.14,0.22-0.36,0.4-0.65,0.54
					C117.43,64.58,117.06,64.65,116.6,64.65z"/>
			</g>
			<g>
				<path class="st3" d="M119.63,62.77v-0.47h2.01v0.47H119.63z"/>
			</g>
			<g>
				<path class="st3" d="M123.04,64.6v-5.36h0.57v4.87h3v0.49H123.04z"/>
			</g>
			<g>
				<path class="st3" d="M129.16,64.64c-0.42,0-0.79-0.09-1.1-0.26c-0.32-0.18-0.56-0.42-0.74-0.73c-0.18-0.31-0.27-0.66-0.27-1.06
					c0-0.4,0.09-0.75,0.26-1.06c0.17-0.31,0.41-0.55,0.7-0.72c0.3-0.18,0.63-0.26,1.01-0.26c0.38,0,0.71,0.08,1.01,0.26
					c0.29,0.17,0.52,0.41,0.69,0.72c0.17,0.31,0.25,0.67,0.25,1.07c0,0.03,0,0.05,0,0.08c0,0.03,0,0.06,0,0.09h-3.5v-0.41h3.21
					l-0.21,0.16c0-0.29-0.06-0.55-0.19-0.78c-0.13-0.23-0.29-0.4-0.51-0.53c-0.21-0.13-0.46-0.19-0.74-0.19
					c-0.28,0-0.52,0.06-0.74,0.19c-0.22,0.13-0.39,0.31-0.51,0.54c-0.12,0.23-0.18,0.49-0.18,0.79v0.08c0,0.31,0.07,0.58,0.2,0.81
					c0.13,0.23,0.32,0.41,0.57,0.54c0.24,0.13,0.52,0.2,0.83,0.2c0.24,0,0.47-0.04,0.69-0.13c0.21-0.09,0.39-0.22,0.55-0.4
					l0.31,0.35c-0.18,0.22-0.4,0.38-0.67,0.49C129.78,64.59,129.48,64.64,129.16,64.64z"/>
			</g>
			<g>
				<path class="st3" d="M133.17,64.64c-0.3,0-0.56-0.05-0.79-0.15c-0.22-0.1-0.39-0.24-0.51-0.41s-0.18-0.38-0.18-0.61
					c0-0.21,0.05-0.4,0.15-0.57c0.1-0.17,0.26-0.31,0.49-0.41c0.23-0.1,0.53-0.16,0.91-0.16h1.39v0.41h-1.37
					c-0.39,0-0.66,0.07-0.81,0.21c-0.15,0.14-0.23,0.31-0.23,0.51c0,0.23,0.09,0.41,0.27,0.55c0.18,0.14,0.43,0.21,0.75,0.21
					c0.31,0,0.57-0.07,0.79-0.21s0.38-0.34,0.49-0.61l0.12,0.37c-0.1,0.27-0.28,0.48-0.53,0.64
					C133.88,64.56,133.56,64.64,133.17,64.64z M134.56,64.6v-0.89l-0.02-0.15v-1.49c0-0.34-0.1-0.6-0.29-0.79
					c-0.19-0.18-0.48-0.28-0.85-0.28c-0.26,0-0.51,0.04-0.74,0.13c-0.23,0.09-0.43,0.2-0.6,0.34l-0.24-0.41
					c0.2-0.17,0.45-0.31,0.74-0.4s0.59-0.14,0.9-0.14c0.52,0,0.92,0.13,1.21,0.39c0.28,0.26,0.43,0.65,0.43,1.17v2.5H134.56z"/>
			</g>
			<g>
				<path class="st3" d="M136.64,64.6v-4.02h0.52v1.1l-0.05-0.19c0.11-0.31,0.3-0.54,0.57-0.7c0.27-0.16,0.59-0.24,0.99-0.24v0.53
					c-0.02,0-0.04,0-0.06,0c-0.02,0-0.04,0-0.06,0c-0.42,0-0.76,0.13-1,0.39c-0.24,0.26-0.36,0.62-0.36,1.1v2.05H136.64z"/>
			</g>
			<g>
				<path class="st3" d="M141.77,60.55c0.33,0,0.61,0.06,0.86,0.19c0.25,0.12,0.44,0.32,0.58,0.57c0.14,0.26,0.21,0.58,0.21,0.97
					v2.34h-0.54v-2.28c0-0.42-0.11-0.74-0.32-0.96s-0.51-0.33-0.89-0.33c-0.29,0-0.53,0.06-0.75,0.17c-0.21,0.11-0.38,0.28-0.49,0.5
					c-0.11,0.22-0.17,0.48-0.17,0.79v2.11h-0.54v-4.02h0.52v1.1l-0.08-0.21c0.13-0.29,0.33-0.52,0.61-0.69
					C141.05,60.63,141.39,60.55,141.77,60.55z"/>
			</g>
			<g>
				<path class="st3" d="M144.65,65.72l0.34-1.42l0.06,0.33c-0.12,0-0.22-0.04-0.29-0.12c-0.08-0.08-0.12-0.18-0.12-0.3
					c0-0.12,0.04-0.22,0.12-0.3c0.08-0.08,0.17-0.12,0.29-0.12c0.12,0,0.21,0.04,0.29,0.12c0.07,0.08,0.11,0.18,0.11,0.29
					c0,0.04,0,0.08-0.01,0.12c-0.01,0.04-0.02,0.09-0.03,0.14c-0.02,0.05-0.04,0.11-0.06,0.18l-0.32,1.06H144.65z"/>
			</g>
			<g>
				<path class="st3" d="M151.22,64.65c-0.41,0-0.79-0.07-1.13-0.2c-0.34-0.13-0.64-0.32-0.9-0.57s-0.45-0.53-0.59-0.87
					c-0.14-0.33-0.21-0.69-0.21-1.09c0-0.39,0.07-0.75,0.21-1.09c0.14-0.33,0.34-0.62,0.59-0.87c0.26-0.25,0.56-0.43,0.9-0.57
					c0.34-0.14,0.72-0.2,1.13-0.2s0.78,0.06,1.12,0.19c0.34,0.13,0.63,0.32,0.87,0.58l-0.35,0.36c-0.22-0.22-0.47-0.39-0.74-0.48
					c-0.27-0.1-0.56-0.15-0.87-0.15c-0.33,0-0.64,0.05-0.92,0.17c-0.28,0.11-0.52,0.27-0.73,0.47c-0.21,0.2-0.37,0.44-0.48,0.7
					c-0.12,0.27-0.17,0.56-0.17,0.88c0,0.32,0.06,0.61,0.17,0.88c0.11,0.27,0.28,0.51,0.48,0.71c0.21,0.2,0.45,0.36,0.73,0.47
					c0.28,0.11,0.58,0.17,0.91,0.17c0.31,0,0.6-0.05,0.87-0.14c0.27-0.09,0.52-0.25,0.75-0.47l0.32,0.43
					c-0.26,0.22-0.55,0.39-0.9,0.51S151.6,64.65,151.22,64.65z M152.65,63.9v-1.98h0.54v2.04L152.65,63.9z"/>
			</g>
			<g>
				<path class="st3" d="M154.75,64.6v-4.02h0.52v1.1l-0.05-0.19c0.11-0.31,0.3-0.54,0.57-0.7c0.27-0.16,0.59-0.24,0.99-0.24v0.53
					c-0.02,0-0.04,0-0.06,0c-0.02,0-0.04,0-0.06,0c-0.42,0-0.76,0.13-1,0.39c-0.24,0.26-0.36,0.62-0.36,1.1v2.05H154.75z"/>
			</g>
			<g>
				<path class="st3" d="M159.44,64.64c-0.39,0-0.74-0.09-1.05-0.26c-0.31-0.18-0.55-0.42-0.73-0.73c-0.18-0.31-0.27-0.66-0.27-1.06
					c0-0.4,0.09-0.76,0.27-1.06c0.18-0.31,0.42-0.55,0.73-0.72c0.31-0.17,0.66-0.26,1.05-0.26c0.4,0,0.75,0.09,1.06,0.26
					c0.31,0.17,0.55,0.41,0.73,0.72c0.18,0.31,0.26,0.66,0.26,1.06c0,0.4-0.09,0.75-0.26,1.06c-0.18,0.31-0.42,0.55-0.73,0.73
					C160.18,64.55,159.83,64.64,159.44,64.64z M159.44,64.16c0.29,0,0.55-0.07,0.77-0.2c0.22-0.13,0.4-0.31,0.53-0.55
					c0.13-0.24,0.2-0.51,0.2-0.82c0-0.32-0.07-0.59-0.2-0.83c-0.13-0.23-0.31-0.42-0.53-0.55c-0.22-0.13-0.48-0.2-0.77-0.2
					s-0.54,0.07-0.77,0.2s-0.4,0.31-0.54,0.55c-0.13,0.23-0.2,0.51-0.2,0.83c0,0.31,0.07,0.59,0.2,0.82
					c0.13,0.24,0.31,0.42,0.54,0.55C158.91,64.09,159.16,64.16,159.44,64.16z"/>
			</g>
			<g>
				<path class="st3" d="M163.38,64.6l-1.52-4.02h0.52l1.38,3.73h-0.24l1.42-3.73h0.47l1.4,3.73h-0.24l1.4-3.73h0.5l-1.52,4.02
					h-0.51l-1.35-3.51h0.16l-1.36,3.51H163.38z"/>
			</g>
			<g>
				<path class="st3" d="M170.71,64.6l2.45-5.36h0.56l2.45,5.36h-0.6l-2.25-5.03h0.23l-2.25,5.03H170.71z M171.68,63.17l0.17-0.46
					h3.12l0.17,0.46H171.68z"/>
			</g>
			<g>
				<path class="st3" d="M179.07,60.55c0.33,0,0.61,0.06,0.86,0.19c0.25,0.12,0.44,0.32,0.58,0.57c0.14,0.26,0.21,0.58,0.21,0.97
					v2.34h-0.54v-2.28c0-0.42-0.11-0.74-0.32-0.96s-0.51-0.33-0.89-0.33c-0.29,0-0.53,0.06-0.75,0.17c-0.21,0.11-0.38,0.28-0.49,0.5
					c-0.11,0.22-0.17,0.48-0.17,0.79v2.11h-0.54v-4.02h0.52v1.1l-0.08-0.21c0.13-0.29,0.33-0.52,0.61-0.69
					C178.35,60.63,178.68,60.55,179.07,60.55z"/>
			</g>
			<g>
				<path class="st3" d="M183.87,64.64c-0.38,0-0.73-0.09-1.03-0.26c-0.3-0.17-0.54-0.41-0.72-0.72c-0.17-0.31-0.26-0.67-0.26-1.07
					c0-0.41,0.09-0.77,0.26-1.07c0.17-0.31,0.41-0.54,0.72-0.72c0.3-0.17,0.65-0.26,1.03-0.26c0.35,0,0.67,0.08,0.95,0.24
					c0.28,0.16,0.5,0.39,0.67,0.69c0.17,0.3,0.25,0.67,0.25,1.11c0,0.43-0.08,0.8-0.25,1.11c-0.16,0.31-0.38,0.54-0.66,0.7
					C184.55,64.56,184.23,64.64,183.87,64.64z M183.91,64.16c0.29,0,0.54-0.07,0.77-0.2c0.23-0.13,0.41-0.31,0.54-0.55
					c0.13-0.24,0.2-0.51,0.2-0.82c0-0.32-0.07-0.59-0.2-0.83c-0.13-0.23-0.31-0.42-0.54-0.55c-0.23-0.13-0.48-0.2-0.77-0.2
					c-0.28,0-0.53,0.07-0.76,0.2c-0.22,0.13-0.4,0.31-0.54,0.55c-0.13,0.23-0.2,0.51-0.2,0.83c0,0.31,0.07,0.59,0.2,0.82
					c0.13,0.24,0.31,0.42,0.54,0.55C183.38,64.09,183.63,64.16,183.91,64.16z M185.43,64.6v-1.21l0.05-0.81l-0.08-0.81v-2.85h0.54
					v5.68H185.43z"/>
			</g>
			<g>
				<path class="st3" d="M190.3,64.11h3.22v0.49h-3.79v-5.36h3.68v0.49h-3.11V64.11z M190.24,61.64h2.83v0.48h-2.83V61.64z"/>
			</g>
			<g>
				<path class="st3" d="M195.9,64.64c-0.3,0-0.56-0.05-0.79-0.15c-0.22-0.1-0.39-0.24-0.51-0.41s-0.18-0.38-0.18-0.61
					c0-0.21,0.05-0.4,0.15-0.57c0.1-0.17,0.26-0.31,0.49-0.41c0.23-0.1,0.53-0.16,0.91-0.16h1.39v0.41h-1.37
					c-0.39,0-0.66,0.07-0.81,0.21c-0.15,0.14-0.23,0.31-0.23,0.51c0,0.23,0.09,0.41,0.27,0.55c0.18,0.14,0.43,0.21,0.75,0.21
					c0.31,0,0.57-0.07,0.79-0.21s0.38-0.34,0.49-0.61l0.12,0.37c-0.1,0.27-0.28,0.48-0.53,0.64
					C196.6,64.56,196.28,64.64,195.9,64.64z M197.28,64.6v-0.89l-0.02-0.15v-1.49c0-0.34-0.1-0.6-0.29-0.79
					c-0.19-0.18-0.48-0.28-0.85-0.28c-0.26,0-0.51,0.04-0.74,0.13c-0.23,0.09-0.43,0.2-0.6,0.34l-0.24-0.41
					c0.2-0.17,0.45-0.31,0.74-0.4c0.29-0.09,0.59-0.14,0.9-0.14c0.52,0,0.92,0.13,1.21,0.39c0.28,0.26,0.43,0.65,0.43,1.17v2.5
					H197.28z"/>
			</g>
			<g>
				<path class="st3" d="M199.36,64.6v-4.02h0.52v1.1l-0.05-0.19c0.11-0.31,0.3-0.54,0.57-0.7c0.27-0.16,0.59-0.24,0.99-0.24v0.53
					c-0.02,0-0.04,0-0.06,0c-0.02,0-0.04,0-0.06,0c-0.42,0-0.76,0.13-1,0.39c-0.24,0.26-0.36,0.62-0.36,1.1v2.05H199.36z"/>
			</g>
			<g>
				<path class="st3" d="M204.49,60.55c0.33,0,0.61,0.06,0.86,0.19c0.25,0.12,0.44,0.32,0.58,0.57c0.14,0.26,0.21,0.58,0.21,0.97
					v2.34h-0.54v-2.28c0-0.42-0.11-0.74-0.32-0.96c-0.21-0.22-0.51-0.33-0.89-0.33c-0.29,0-0.53,0.06-0.75,0.17
					c-0.21,0.11-0.38,0.28-0.49,0.5c-0.11,0.22-0.17,0.48-0.17,0.79v2.11h-0.54v-4.02h0.52v1.1l-0.08-0.21
					c0.13-0.29,0.33-0.52,0.61-0.69C203.77,60.63,204.11,60.55,204.49,60.55z"/>
			</g>
		</g>
	</g>
</g>
</svg>
