<?xml version="1.0" encoding="utf-8"?>
<!-- Generator: Adobe Illustrator 26.0.0, SVG Export Plug-In . SVG Version: 6.00 Build 0)  -->
<svg version="1.1" id="Layer_1" xmlns="http://www.w3.org/2000/svg" xmlns:xlink="http://www.w3.org/1999/xlink" x="0px" y="0px"
	 viewBox="0 0 230.8 66.9" style="enable-background:new 0 0 230.8 66.9;" xml:space="preserve">
<style type="text/css">
	.st0{fill:#FFFFFF;}
</style>
<g>
	<g>
		<g>
			<g>
				<g>
					<path class="st0" d="M69.9,19.9l-3,1.9L63,19.9l-1.6-0.8l2.8-1.9l-13-6.1l-3.1,2l-3.8-1.9l-1.6-0.8l2.9-1.9l-4.8-2.3L6.7,22.5
						l7.7,3.8l7,3.5l0.3,9.1l0.1,0.9c2.1,0,4,0.3,5.9,0.8l-0.1-2.1l-3.1-0.9c0.1-0.9,0.4-1.8,0.6-2.6l3.2,0.6l1.9-3.5l-2.2-2.3
						c0.6-0.7,1.2-1.4,1.9-2l2.4,2.1l3.3-2l-0.7-3.1c1-0.4,2-0.7,3-0.8l1,3H43l1-3c0.8,0.1,1.6,0.4,2.4,0.6l-0.6,3.1l3.4,1.9
						l2.4-2.2c0.7,0.6,1.3,1.2,1.9,1.9l-2.1,2.4l2,3.3l3.1-0.7c0.3,0.8,0.6,1.7,0.8,2.6l-3,1.1l0.1,2.7c1.8-0.5,3.6-0.7,5.5-0.7
						l0-0.9v-8.8L74.3,22L69.9,19.9z M58.5,18.6l-4,2.6l-3.8-1.9L49,18.4l5.3-3.5l5.4,2.9L58.5,18.6z"/>
				</g>
			</g>
			<g>
				<g>
					<g>
						<path class="st0" d="M60,42.1v6.3h-0.2L60,42.1C60,42.1,60,42.1,60,42.1z"/>
					</g>
				</g>
				<g>
					<g>
						<path class="st0" d="M60,42.1l-0.2,6.3c-1.6,0-3.1,0.3-4.5,0.7c-3.6,1.1-6.7,3.5-8.7,6.7h0c-0.8,1.2-1.4,2.6-1.9,4.1h-7.3
							c-0.5-1.6-1.2-3.1-2.1-4.4c-2-3-5.1-5.3-8.7-6.4c-1.4-0.4-2.9-0.6-4.5-0.7l-0.1-3.2v-3.1c2,0,4,0.3,5.9,0.8
							c5.5,1.5,10.2,5.1,13.2,9.9c3-4.9,7.8-8.5,13.5-10C56.2,42.3,58,42.1,60,42.1z"/>
					</g>
				</g>
				<g>
					<g>
						<polygon class="st0" points="21.9,48.4 21.8,48.4 21.8,45.2 						"/>
					</g>
				</g>
			</g>
			<g>
				<g>
					<path class="st0" d="M14.4,45.5c-0.7,0-1.2-0.6-1.2-1.2V26c0-0.7,0.6-1.2,1.2-1.2c0.7,0,1.2,0.6,1.2,1.2v18.2
						C15.7,44.9,15.1,45.5,14.4,45.5z"/>
				</g>
			</g>
			<g>
				<g>
					<polygon class="st0" points="66.9,11 65.6,11.9 61.6,14.4 57.8,12.5 56.2,11.7 61.5,8.2 					"/>
				</g>
			</g>
			<g>
				<g>
					<polygon class="st0" points="83.1,7.6 81.9,8.5 77.9,11 74.1,9.1 72.5,8.3 77.8,4.8 					"/>
				</g>
			</g>
			<g>
				<g>
					<polygon class="st0" points="60.5,5.2 59.2,6 55.2,8.6 51.4,6.7 49.8,5.9 55.1,2.4 					"/>
				</g>
			</g>
			<g>
				<g>
					<polygon class="st0" points="74,4.8 72.7,5.6 68.8,8.2 65,6.3 63.3,5.5 68.6,2 					"/>
				</g>
			</g>
			<g>
				<g>
					<polygon class="st0" points="77.8,14.4 76.5,15.3 72.6,17.8 68.8,15.9 67.1,15.1 72.4,11.6 					"/>
				</g>
			</g>
		</g>
		<g>
			<path class="st0" d="M30.9,40.2c0-5.7,4.7-10.4,10.4-10.4s10.4,4.7,10.4,10.4"/>
			<path class="st0" d="M52.3,40.2H51c0-5.4-4.4-9.7-9.7-9.7s-9.7,4.4-9.7,9.7h-1.4c0-6.1,5-11.1,11.1-11.1
				C47.4,29.1,52.3,34.1,52.3,40.2z"/>
		</g>
	</g>
	<g>
		<g>
			<g>
				<g>
					<path class="st0" d="M98.7,20l5.4-1c0.5,1.5,1.6,2.3,3.5,2.3c1.5,0,2.2-0.4,2.2-1.2c0-0.4-0.2-0.7-0.5-0.9
						c-0.3-0.2-0.9-0.4-1.8-0.6c-3.3-0.6-5.4-1.5-6.4-2.5c-0.9-1-1.4-2.2-1.4-3.6c0-1.8,0.7-3.3,2-4.4c1.3-1.2,3.3-1.8,5.8-1.8
						c3.8,0,6.4,1.5,7.6,4.6l-4.8,1.5c-0.5-1.3-1.5-1.9-3-1.9c-1.3,0-1.9,0.4-1.9,1.2c0,0.4,0.1,0.6,0.4,0.8
						c0.3,0.2,0.8,0.4,1.7,0.6c2.3,0.5,3.9,0.9,4.8,1.3c0.9,0.4,1.7,1,2.4,1.9c0.6,0.9,1,1.9,1,3.1c0,1.9-0.8,3.5-2.3,4.6
						c-1.5,1.2-3.6,1.8-6.1,1.8C102.6,25.7,99.7,23.8,98.7,20z"/>
				</g>
			</g>
			<g>
				<g>
					<path class="st0" d="M128.1,18.2l5.3,0.3c-0.2,2.3-1.1,4.1-2.6,5.3c-1.5,1.2-3.3,1.9-5.4,1.9c-2.6,0-4.6-0.8-6.2-2.5
						c-1.6-1.7-2.4-4-2.4-7c0-3,0.7-5.3,2.2-7.2c1.5-1.8,3.6-2.7,6.2-2.7c2.5,0,4.4,0.7,5.8,2.1c1.3,1.4,2.1,3.2,2.3,5.5l-5.4,0.3
						c0-1.3-0.2-2.2-0.7-2.7c-0.5-0.6-1.1-0.8-1.7-0.8c-1.8,0-2.7,1.8-2.7,5.5c0,2.1,0.2,3.4,0.7,4.2c0.5,0.7,1.1,1.1,2,1.1
						C127.1,21.3,128,20.3,128.1,18.2z"/>
				</g>
			</g>
			<g>
				<g>
					<path class="st0" d="M151.5,6.6v18.8h-5.8v-7.3h-4.4v7.3h-5.8V6.6h5.8v6.9h4.4V6.6H151.5z"/>
				</g>
			</g>
			<g>
				<g>
					<path class="st0" d="M163,25.7c-2.7,0-4.8-0.9-6.5-2.6S154,18.9,154,16c0-2.8,0.8-5.1,2.4-7c1.6-1.8,3.8-2.8,6.6-2.8
						c2.6,0,4.8,0.9,6.4,2.6c1.7,1.7,2.5,4,2.5,6.9c0,3-0.8,5.4-2.5,7.2C167.7,24.8,165.6,25.7,163,25.7z M162.9,21.4
						c1,0,1.7-0.4,2.1-1.3c0.4-0.9,0.6-2.4,0.6-4.7c0-3.3-0.9-4.9-2.6-4.9c-1.9,0-2.8,1.9-2.8,5.6C160.2,19.7,161.1,21.4,162.9,21.4
						z"/>
				</g>
			</g>
			<g>
				<g>
					<path class="st0" d="M182.5,25.7c-2.7,0-4.8-0.9-6.5-2.6s-2.5-4.1-2.5-7.1c0-2.8,0.8-5.1,2.4-7c1.6-1.8,3.8-2.8,6.6-2.8
						c2.6,0,4.8,0.9,6.4,2.6c1.7,1.7,2.5,4,2.5,6.9c0,3-0.8,5.4-2.5,7.2C187.3,24.8,185.1,25.7,182.5,25.7z M182.5,21.4
						c1,0,1.7-0.4,2.1-1.3c0.4-0.9,0.6-2.4,0.6-4.7c0-3.3-0.9-4.9-2.6-4.9c-1.9,0-2.8,1.9-2.8,5.6C179.7,19.7,180.6,21.4,182.5,21.4
						z"/>
				</g>
			</g>
			<g>
				<g>
					<path class="st0" d="M207.1,20.8v4.6h-13.2V6.6h5.8v14.2H207.1z"/>
				</g>
			</g>
			<g>
				<g>
					<path class="st0" d="M207.2,20l5.4-1c0.5,1.5,1.6,2.3,3.5,2.3c1.5,0,2.2-0.4,2.2-1.2c0-0.4-0.2-0.7-0.5-0.9
						c-0.3-0.2-0.9-0.4-1.8-0.6c-3.3-0.6-5.4-1.5-6.4-2.5c-0.9-1-1.4-2.2-1.4-3.6c0-1.8,0.7-3.3,2-4.4s3.3-1.8,5.8-1.8
						c3.8,0,6.4,1.5,7.6,4.6l-4.8,1.5c-0.5-1.3-1.5-1.9-3-1.9c-1.3,0-1.9,0.4-1.9,1.2c0,0.4,0.1,0.6,0.4,0.8
						c0.3,0.2,0.8,0.4,1.7,0.6c2.3,0.5,3.9,0.9,4.8,1.3c0.9,0.4,1.7,1,2.4,1.9c0.6,0.9,1,1.9,1,3.1c0,1.9-0.8,3.5-2.3,4.6
						c-1.5,1.2-3.6,1.8-6.1,1.8C211.1,25.7,208.2,23.8,207.2,20z"/>
				</g>
			</g>
		</g>
		<g>
			<g>
				<g>
					<path class="st0" d="M118.2,31.9v18.8h-5.8v-7.3H108v7.3h-5.8V31.9h5.8v6.9h4.4v-6.9H118.2z"/>
				</g>
			</g>
			<g>
				<g>
					<path class="st0" d="M137,31.9v12.5c0,2.4-0.7,4.1-2.1,5.1c-1.4,1-3.2,1.6-5.5,1.6c-2.4,0-4.3-0.5-5.7-1.5
						c-1.4-1-2.2-2.6-2.2-4.9V31.9h5.9V44c0,0.9,0.2,1.6,0.6,2c0.4,0.4,1,0.6,1.8,0.6c0.7,0,1.3-0.1,1.7-0.4c0.4-0.3,0.7-0.6,0.8-1
						c0.1-0.4,0.1-1.1,0.1-2.2v-11H137z"/>
				</g>
			</g>
			<g>
				<g>
					<path class="st0" d="M140.4,50.7V31.9h9.6c2,0,3.4,0.5,4.3,1.5c0.9,1,1.4,2.1,1.4,3.4c0,0.9-0.3,1.8-0.8,2.5
						c-0.5,0.8-1.3,1.3-2.4,1.6c2.4,0.6,3.7,2.1,3.7,4.4c0,1.4-0.4,2.6-1.3,3.7c-0.9,1.1-2.7,1.7-5.5,1.7H140.4z M145.7,39.1h2.7
						c0.7,0,1.1-0.2,1.4-0.5c0.3-0.3,0.4-0.7,0.4-1.1c0-1-0.6-1.6-1.9-1.6h-2.6V39.1z M145.7,46.5h2.8c0.7,0,1.2-0.2,1.5-0.5
						c0.3-0.3,0.5-0.7,0.5-1.2c0-0.4-0.2-0.8-0.5-1.2c-0.3-0.4-0.9-0.5-1.7-0.5h-2.6V46.5z"/>
				</g>
			</g>
		</g>
		<g>
			<g>
				<g>
					<path class="st0" d="M103.5,63.8v-5.2h0.6v4.7h2.9v0.5H103.5z"/>
				</g>
			</g>
			<g>
				<g>
					<path class="st0" d="M107.9,63.8v-5.2h0.5l2.4,4.1h-0.2l2.4-4.1h0.5v5.2h-0.5v-4.4h0.1l-2.2,3.7h-0.3l-2.2-3.7h0.1v4.4H107.9z"
						/>
				</g>
			</g>
			<g>
				<g>
					<path class="st0" d="M116.6,63.9c-0.4,0-0.8-0.1-1.1-0.2c-0.4-0.1-0.6-0.3-0.8-0.5l0.2-0.4c0.2,0.2,0.4,0.3,0.7,0.5
						c0.3,0.1,0.6,0.2,1,0.2c0.3,0,0.6,0,0.8-0.1c0.2-0.1,0.4-0.2,0.5-0.3c0.1-0.1,0.1-0.3,0.1-0.5c0-0.2-0.1-0.4-0.2-0.5
						c-0.1-0.1-0.3-0.2-0.5-0.3c-0.2-0.1-0.4-0.1-0.6-0.2c-0.2-0.1-0.5-0.1-0.7-0.2c-0.2-0.1-0.4-0.1-0.6-0.3
						c-0.2-0.1-0.3-0.2-0.5-0.4c-0.1-0.2-0.2-0.4-0.2-0.7c0-0.3,0.1-0.5,0.2-0.7c0.1-0.2,0.3-0.4,0.6-0.5c0.3-0.1,0.6-0.2,1.1-0.2
						c0.3,0,0.6,0,0.9,0.1c0.3,0.1,0.5,0.2,0.7,0.3l-0.2,0.4c-0.2-0.1-0.5-0.3-0.7-0.3c-0.3-0.1-0.5-0.1-0.7-0.1
						c-0.3,0-0.6,0-0.8,0.1c-0.2,0.1-0.4,0.2-0.5,0.3c-0.1,0.1-0.1,0.3-0.1,0.5c0,0.2,0.1,0.4,0.2,0.5s0.3,0.2,0.5,0.3
						c0.2,0.1,0.4,0.1,0.6,0.2c0.2,0.1,0.5,0.1,0.7,0.2c0.2,0.1,0.4,0.1,0.6,0.3c0.2,0.1,0.3,0.2,0.5,0.4c0.1,0.2,0.2,0.4,0.2,0.7
						c0,0.3-0.1,0.5-0.2,0.7c-0.1,0.2-0.4,0.4-0.6,0.5C117.4,63.8,117,63.9,116.6,63.9z"/>
				</g>
			</g>
			<g>
				<g>
					<path class="st0" d="M119.5,62v-0.5h2V62H119.5z"/>
				</g>
			</g>
			<g>
				<g>
					<path class="st0" d="M122.8,63.8v-5.2h0.6v4.7h2.9v0.5H122.8z"/>
				</g>
			</g>
			<g>
				<g>
					<path class="st0" d="M128.8,63.8c-0.4,0-0.8-0.1-1.1-0.3c-0.3-0.2-0.5-0.4-0.7-0.7c-0.2-0.3-0.3-0.6-0.3-1c0-0.4,0.1-0.7,0.2-1
						c0.2-0.3,0.4-0.5,0.7-0.7c0.3-0.2,0.6-0.3,1-0.3c0.4,0,0.7,0.1,1,0.3c0.3,0.2,0.5,0.4,0.7,0.7c0.2,0.3,0.2,0.6,0.2,1
						c0,0,0,0.1,0,0.1c0,0,0,0.1,0,0.1h-3.4v-0.4h3.1l-0.2,0.2c0-0.3-0.1-0.5-0.2-0.8c-0.1-0.2-0.3-0.4-0.5-0.5s-0.5-0.2-0.7-0.2
						c-0.3,0-0.5,0.1-0.7,0.2c-0.2,0.1-0.4,0.3-0.5,0.5c-0.1,0.2-0.2,0.5-0.2,0.8v0.1c0,0.3,0.1,0.6,0.2,0.8
						c0.1,0.2,0.3,0.4,0.6,0.5c0.2,0.1,0.5,0.2,0.8,0.2c0.2,0,0.5,0,0.7-0.1s0.4-0.2,0.5-0.4l0.3,0.3c-0.2,0.2-0.4,0.4-0.7,0.5
						S129.1,63.8,128.8,63.8z"/>
				</g>
			</g>
			<g>
				<g>
					<path class="st0" d="M132.7,63.8c-0.3,0-0.5,0-0.8-0.1c-0.2-0.1-0.4-0.2-0.5-0.4c-0.1-0.2-0.2-0.4-0.2-0.6c0-0.2,0-0.4,0.1-0.6
						c0.1-0.2,0.3-0.3,0.5-0.4c0.2-0.1,0.5-0.2,0.9-0.2h1.4V62h-1.3c-0.4,0-0.6,0.1-0.8,0.2c-0.1,0.1-0.2,0.3-0.2,0.5
						c0,0.2,0.1,0.4,0.3,0.5c0.2,0.1,0.4,0.2,0.7,0.2c0.3,0,0.6-0.1,0.8-0.2c0.2-0.1,0.4-0.3,0.5-0.6l0.1,0.4
						c-0.1,0.3-0.3,0.5-0.5,0.6C133.4,63.8,133.1,63.8,132.7,63.8z M134.1,63.8v-0.9l0-0.1v-1.4c0-0.3-0.1-0.6-0.3-0.8
						c-0.2-0.2-0.5-0.3-0.8-0.3c-0.3,0-0.5,0-0.7,0.1c-0.2,0.1-0.4,0.2-0.6,0.3l-0.2-0.4c0.2-0.2,0.4-0.3,0.7-0.4
						c0.3-0.1,0.6-0.1,0.9-0.1c0.5,0,0.9,0.1,1.2,0.4c0.3,0.3,0.4,0.6,0.4,1.1v2.4H134.1z"/>
				</g>
			</g>
			<g>
				<g>
					<path class="st0" d="M136.1,63.8v-3.9h0.5V61l-0.1-0.2c0.1-0.3,0.3-0.5,0.6-0.7c0.3-0.2,0.6-0.2,1-0.2v0.5c0,0,0,0-0.1,0
						c0,0,0,0-0.1,0c-0.4,0-0.7,0.1-1,0.4c-0.2,0.3-0.4,0.6-0.4,1.1v2H136.1z"/>
				</g>
			</g>
			<g>
				<g>
					<path class="st0" d="M141.1,59.9c0.3,0,0.6,0.1,0.8,0.2c0.2,0.1,0.4,0.3,0.6,0.6c0.1,0.2,0.2,0.6,0.2,0.9v2.3h-0.5v-2.2
						c0-0.4-0.1-0.7-0.3-0.9c-0.2-0.2-0.5-0.3-0.9-0.3c-0.3,0-0.5,0.1-0.7,0.2c-0.2,0.1-0.4,0.3-0.5,0.5c-0.1,0.2-0.2,0.5-0.2,0.8
						v2.1h-0.5v-3.9h0.5V61l-0.1-0.2c0.1-0.3,0.3-0.5,0.6-0.7C140.4,59.9,140.7,59.9,141.1,59.9z"/>
				</g>
			</g>
			<g>
				<g>
					<path class="st0" d="M143.9,64.9l0.3-1.4l0.1,0.3c-0.1,0-0.2,0-0.3-0.1c-0.1-0.1-0.1-0.2-0.1-0.3s0-0.2,0.1-0.3
						c0.1-0.1,0.2-0.1,0.3-0.1c0.1,0,0.2,0,0.3,0.1c0.1,0.1,0.1,0.2,0.1,0.3c0,0,0,0.1,0,0.1c0,0,0,0.1,0,0.1c0,0,0,0.1-0.1,0.2
						l-0.3,1H143.9z"/>
				</g>
			</g>
			<g>
				<g>
					<path class="st0" d="M150.3,63.9c-0.4,0-0.8-0.1-1.1-0.2c-0.3-0.1-0.6-0.3-0.9-0.6c-0.2-0.2-0.4-0.5-0.6-0.8
						c-0.1-0.3-0.2-0.7-0.2-1.1c0-0.4,0.1-0.7,0.2-1.1c0.1-0.3,0.3-0.6,0.6-0.8c0.2-0.2,0.5-0.4,0.9-0.6c0.3-0.1,0.7-0.2,1.1-0.2
						s0.8,0.1,1.1,0.2c0.3,0.1,0.6,0.3,0.8,0.6l-0.3,0.4c-0.2-0.2-0.5-0.4-0.7-0.5c-0.3-0.1-0.5-0.1-0.9-0.1c-0.3,0-0.6,0.1-0.9,0.2
						c-0.3,0.1-0.5,0.3-0.7,0.5c-0.2,0.2-0.4,0.4-0.5,0.7c-0.1,0.3-0.2,0.5-0.2,0.9c0,0.3,0.1,0.6,0.2,0.9c0.1,0.3,0.3,0.5,0.5,0.7
						c0.2,0.2,0.4,0.3,0.7,0.5c0.3,0.1,0.6,0.2,0.9,0.2c0.3,0,0.6,0,0.8-0.1c0.3-0.1,0.5-0.2,0.7-0.5l0.3,0.4
						c-0.2,0.2-0.5,0.4-0.9,0.5C151,63.8,150.7,63.9,150.3,63.9z M151.7,63.1v-1.9h0.5v2L151.7,63.1z"/>
				</g>
			</g>
			<g>
				<g>
					<path class="st0" d="M153.8,63.8v-3.9h0.5V61l-0.1-0.2c0.1-0.3,0.3-0.5,0.6-0.7c0.3-0.2,0.6-0.2,1-0.2v0.5c0,0,0,0-0.1,0
						c0,0,0,0-0.1,0c-0.4,0-0.7,0.1-1,0.4c-0.2,0.3-0.4,0.6-0.4,1.1v2H153.8z"/>
				</g>
			</g>
			<g>
				<g>
					<path class="st0" d="M158.3,63.8c-0.4,0-0.7-0.1-1-0.3c-0.3-0.2-0.5-0.4-0.7-0.7c-0.2-0.3-0.3-0.6-0.3-1c0-0.4,0.1-0.7,0.3-1
						c0.2-0.3,0.4-0.5,0.7-0.7c0.3-0.2,0.6-0.3,1-0.3c0.4,0,0.7,0.1,1,0.3c0.3,0.2,0.5,0.4,0.7,0.7c0.2,0.3,0.3,0.6,0.3,1
						c0,0.4-0.1,0.7-0.3,1c-0.2,0.3-0.4,0.5-0.7,0.7C159,63.8,158.7,63.8,158.3,63.8z M158.3,63.4c0.3,0,0.5-0.1,0.8-0.2
						c0.2-0.1,0.4-0.3,0.5-0.5c0.1-0.2,0.2-0.5,0.2-0.8c0-0.3-0.1-0.6-0.2-0.8s-0.3-0.4-0.5-0.5c-0.2-0.1-0.5-0.2-0.7-0.2
						s-0.5,0.1-0.7,0.2c-0.2,0.1-0.4,0.3-0.5,0.5s-0.2,0.5-0.2,0.8c0,0.3,0.1,0.6,0.2,0.8c0.1,0.2,0.3,0.4,0.5,0.5
						C157.8,63.3,158,63.4,158.3,63.4z"/>
				</g>
			</g>
			<g>
				<g>
					<path class="st0" d="M162.2,63.8l-1.5-3.9h0.5l1.3,3.6h-0.2l1.4-3.6h0.5l1.4,3.6h-0.2l1.4-3.6h0.5l-1.5,3.9h-0.5l-1.3-3.4h0.2
						l-1.3,3.4H162.2z"/>
				</g>
			</g>
			<g>
				<g>
					<path class="st0" d="M169.3,63.8l2.4-5.2h0.5l2.4,5.2H174l-2.2-4.9h0.2l-2.2,4.9H169.3z M170.2,62.4l0.2-0.4h3l0.2,0.4H170.2z"
						/>
				</g>
			</g>
			<g>
				<g>
					<path class="st0" d="M177.4,59.9c0.3,0,0.6,0.1,0.8,0.2c0.2,0.1,0.4,0.3,0.6,0.6c0.1,0.2,0.2,0.6,0.2,0.9v2.3h-0.5v-2.2
						c0-0.4-0.1-0.7-0.3-0.9c-0.2-0.2-0.5-0.3-0.9-0.3c-0.3,0-0.5,0.1-0.7,0.2c-0.2,0.1-0.4,0.3-0.5,0.5c-0.1,0.2-0.2,0.5-0.2,0.8
						v2.1h-0.5v-3.9h0.5V61l-0.1-0.2c0.1-0.3,0.3-0.5,0.6-0.7C176.7,59.9,177.1,59.9,177.4,59.9z"/>
				</g>
			</g>
			<g>
				<g>
					<path class="st0" d="M182.1,63.8c-0.4,0-0.7-0.1-1-0.3c-0.3-0.2-0.5-0.4-0.7-0.7c-0.2-0.3-0.3-0.6-0.3-1c0-0.4,0.1-0.7,0.3-1
						c0.2-0.3,0.4-0.5,0.7-0.7c0.3-0.2,0.6-0.3,1-0.3c0.3,0,0.7,0.1,0.9,0.2c0.3,0.2,0.5,0.4,0.6,0.7c0.2,0.3,0.2,0.7,0.2,1.1
						c0,0.4-0.1,0.8-0.2,1.1c-0.2,0.3-0.4,0.5-0.6,0.7C182.8,63.8,182.5,63.8,182.1,63.8z M182.2,63.4c0.3,0,0.5-0.1,0.7-0.2
						c0.2-0.1,0.4-0.3,0.5-0.5c0.1-0.2,0.2-0.5,0.2-0.8c0-0.3-0.1-0.6-0.2-0.8c-0.1-0.2-0.3-0.4-0.5-0.5c-0.2-0.1-0.5-0.2-0.7-0.2
						c-0.3,0-0.5,0.1-0.7,0.2c-0.2,0.1-0.4,0.3-0.5,0.5s-0.2,0.5-0.2,0.8c0,0.3,0.1,0.6,0.2,0.8c0.1,0.2,0.3,0.4,0.5,0.5
						C181.6,63.3,181.9,63.4,182.2,63.4z M183.6,63.8v-1.2l0.1-0.8l-0.1-0.8v-2.8h0.5v5.5H183.6z"/>
				</g>
			</g>
			<g>
				<g>
					<path class="st0" d="M188.4,63.3h3.1v0.5h-3.7v-5.2h3.6v0.5h-3V63.3z M188.3,60.9h2.8v0.5h-2.8V60.9z"/>
				</g>
			</g>
			<g>
				<g>
					<path class="st0" d="M193.8,63.8c-0.3,0-0.5,0-0.8-0.1c-0.2-0.1-0.4-0.2-0.5-0.4s-0.2-0.4-0.2-0.6c0-0.2,0-0.4,0.1-0.6
						c0.1-0.2,0.3-0.3,0.5-0.4c0.2-0.1,0.5-0.2,0.9-0.2h1.4V62h-1.3c-0.4,0-0.6,0.1-0.8,0.2c-0.1,0.1-0.2,0.3-0.2,0.5
						c0,0.2,0.1,0.4,0.3,0.5c0.2,0.1,0.4,0.2,0.7,0.2c0.3,0,0.6-0.1,0.8-0.2c0.2-0.1,0.4-0.3,0.5-0.6l0.1,0.4
						c-0.1,0.3-0.3,0.5-0.5,0.6C194.5,63.8,194.2,63.8,193.8,63.8z M195.2,63.8v-0.9l0-0.1v-1.4c0-0.3-0.1-0.6-0.3-0.8
						c-0.2-0.2-0.5-0.3-0.8-0.3c-0.3,0-0.5,0-0.7,0.1c-0.2,0.1-0.4,0.2-0.6,0.3l-0.2-0.4c0.2-0.2,0.4-0.3,0.7-0.4s0.6-0.1,0.9-0.1
						c0.5,0,0.9,0.1,1.2,0.4c0.3,0.3,0.4,0.6,0.4,1.1v2.4H195.2z"/>
				</g>
			</g>
			<g>
				<g>
					<path class="st0" d="M197.2,63.8v-3.9h0.5V61l-0.1-0.2c0.1-0.3,0.3-0.5,0.6-0.7c0.3-0.2,0.6-0.2,1-0.2v0.5c0,0,0,0-0.1,0
						c0,0,0,0-0.1,0c-0.4,0-0.7,0.1-1,0.4c-0.2,0.3-0.4,0.6-0.4,1.1v2H197.2z"/>
				</g>
			</g>
			<g>
				<g>
					<path class="st0" d="M202.2,59.9c0.3,0,0.6,0.1,0.8,0.2c0.2,0.1,0.4,0.3,0.6,0.6c0.1,0.2,0.2,0.6,0.2,0.9v2.3h-0.5v-2.2
						c0-0.4-0.1-0.7-0.3-0.9c-0.2-0.2-0.5-0.3-0.9-0.3c-0.3,0-0.5,0.1-0.7,0.2c-0.2,0.1-0.4,0.3-0.5,0.5c-0.1,0.2-0.2,0.5-0.2,0.8
						v2.1h-0.5v-3.9h0.5V61l-0.1-0.2c0.1-0.3,0.3-0.5,0.6-0.7C201.5,59.9,201.8,59.9,202.2,59.9z"/>
				</g>
			</g>
		</g>
	</g>
</g>
</svg>
