<?xml version="1.0" encoding="utf-8"?>
<!-- Generator: Adobe Illustrator 26.0.0, SVG Export Plug-In . SVG Version: 6.00 Build 0)  -->
<svg version="1.1" id="Layer_1" xmlns="http://www.w3.org/2000/svg" xmlns:xlink="http://www.w3.org/1999/xlink" x="0px" y="0px"
	 viewBox="0 0 207.6 114.9" style="enable-background:new 0 0 207.6 114.9;" xml:space="preserve">
<style type="text/css">
	.st0{fill:#12181E;}
	.st1{fill:#27AC1F;}
	.st2{fill:none;stroke:#27AC1F;stroke-width:1.3512;stroke-miterlimit:10;}
	.st3{fill:#474747;}
</style>
<g>
	<g>
		<path class="st0" d="M6.8,85.1l5.2-0.9c0.4,1.5,1.6,2.2,3.4,2.2c1.4,0,2.1-0.4,2.1-1.1c0-0.4-0.2-0.7-0.5-0.9
			c-0.3-0.2-0.9-0.4-1.8-0.6c-3.2-0.6-5.3-1.4-6.2-2.4c-0.9-1-1.4-2.2-1.4-3.5c0-1.7,0.7-3.2,2-4.3c1.3-1.2,3.2-1.7,5.7-1.7
			c3.7,0,6.2,1.5,7.4,4.5l-4.7,1.4c-0.5-1.2-1.5-1.8-3-1.8c-1.2,0-1.8,0.4-1.8,1.1c0,0.3,0.1,0.6,0.4,0.8c0.3,0.2,0.8,0.4,1.6,0.5
			c2.2,0.5,3.8,0.9,4.7,1.2s1.7,1,2.3,1.8c0.6,0.9,0.9,1.9,0.9,3.1c0,1.9-0.8,3.4-2.3,4.5s-3.5,1.7-5.9,1.7
			C10.6,90.8,7.8,88.9,6.8,85.1z"/>
		<path class="st0" d="M36.4,83.4l5.2,0.3c-0.2,2.3-1.1,4-2.5,5.2c-1.4,1.2-3.2,1.8-5.3,1.8c-2.5,0-4.5-0.8-6.1-2.5
			c-1.5-1.7-2.3-3.9-2.3-6.8c0-2.9,0.7-5.2,2.2-7c1.5-1.8,3.5-2.7,6.1-2.7c2.4,0,4.3,0.7,5.6,2c1.3,1.3,2,3.1,2.2,5.4l-5.3,0.3
			c0-1.2-0.2-2.1-0.7-2.7s-1-0.8-1.7-0.8c-1.8,0-2.7,1.8-2.7,5.4c0,2,0.2,3.4,0.7,4.1c0.5,0.7,1.1,1.1,1.9,1.1
			C35.4,86.5,36.2,85.5,36.4,83.4z"/>
		<path class="st0" d="M60.1,72.1v18.4h-5.6v-7.2h-4.3v7.2h-5.6V72.1h5.6v6.8h4.3v-6.8H60.1z"/>
		<path class="st0" d="M72.1,90.8c-2.6,0-4.7-0.9-6.3-2.6c-1.6-1.7-2.4-4-2.4-6.9c0-2.8,0.8-5,2.3-6.8c1.6-1.8,3.7-2.7,6.5-2.7
			c2.6,0,4.6,0.8,6.3,2.5c1.6,1.7,2.4,3.9,2.4,6.8c0,2.9-0.8,5.3-2.4,7C76.7,89.9,74.6,90.8,72.1,90.8z M72,86.6
			c1,0,1.6-0.4,2.1-1.2c0.4-0.8,0.6-2.4,0.6-4.6c0-3.2-0.9-4.8-2.6-4.8c-1.9,0-2.8,1.8-2.8,5.5C69.4,84.9,70.3,86.6,72,86.6z"/>
		<path class="st0" d="M92,90.8c-2.6,0-4.7-0.9-6.3-2.6c-1.6-1.7-2.4-4-2.4-6.9c0-2.8,0.8-5,2.3-6.8c1.6-1.8,3.7-2.7,6.5-2.7
			c2.6,0,4.6,0.8,6.3,2.5c1.6,1.7,2.4,3.9,2.4,6.8c0,2.9-0.8,5.3-2.4,7C96.6,89.9,94.5,90.8,92,90.8z M91.9,86.6
			c1,0,1.6-0.4,2.1-1.2c0.4-0.8,0.6-2.4,0.6-4.6c0-3.2-0.9-4.8-2.6-4.8c-1.9,0-2.8,1.8-2.8,5.5C89.3,84.9,90.2,86.6,91.9,86.6z"/>
		<path class="st0" d="M116.8,86v4.5h-12.9V72.1h5.6V86H116.8z"/>
		<path class="st0" d="M118.7,85.1l5.2-0.9c0.4,1.5,1.6,2.2,3.4,2.2c1.4,0,2.1-0.4,2.1-1.1c0-0.4-0.2-0.7-0.5-0.9
			c-0.3-0.2-0.9-0.4-1.8-0.6c-3.2-0.6-5.3-1.4-6.2-2.4c-0.9-1-1.4-2.2-1.4-3.5c0-1.7,0.7-3.2,2-4.3c1.3-1.2,3.2-1.7,5.7-1.7
			c3.7,0,6.2,1.5,7.4,4.5l-4.7,1.4c-0.5-1.2-1.5-1.8-3-1.8c-1.2,0-1.8,0.4-1.8,1.1c0,0.3,0.1,0.6,0.4,0.8c0.3,0.2,0.8,0.4,1.6,0.5
			c2.2,0.5,3.8,0.9,4.7,1.2c0.9,0.4,1.7,1,2.3,1.8c0.6,0.9,0.9,1.9,0.9,3.1c0,1.9-0.8,3.4-2.3,4.5s-3.5,1.7-5.9,1.7
			C122.6,90.8,119.8,88.9,118.7,85.1z"/>
		<path class="st1" d="M162.6,72.1v18.4H157v-7.2h-4.3v7.2H147V72.1h5.6v6.8h4.3v-6.8H162.6z"/>
		<path class="st1" d="M181.6,72.1v12.2c0,2.3-0.7,4-2.1,5c-1.4,1-3.2,1.5-5.4,1.5c-2.3,0-4.2-0.5-5.6-1.5c-1.4-1-2.1-2.6-2.1-4.7
			V72.1h5.7v11.8c0,0.9,0.2,1.5,0.6,1.9s1,0.6,1.8,0.6c0.7,0,1.2-0.1,1.7-0.4c0.4-0.3,0.7-0.6,0.8-1c0.1-0.4,0.1-1.1,0.1-2.2V72.1
			H181.6z"/>
		<path class="st1" d="M185.4,90.5V72.1h9.3c1.9,0,3.4,0.5,4.2,1.5c0.9,1,1.3,2.1,1.3,3.4c0,0.9-0.3,1.7-0.8,2.5
			c-0.5,0.7-1.3,1.3-2.3,1.5c2.4,0.6,3.6,2,3.6,4.3c0,1.4-0.4,2.6-1.3,3.7c-0.8,1.1-2.6,1.6-5.4,1.6H185.4z M190.6,79.1h2.6
			c0.7,0,1.1-0.2,1.4-0.5c0.3-0.3,0.4-0.7,0.4-1.1c0-1-0.6-1.5-1.9-1.5h-2.5V79.1z M190.6,86.4h2.8c0.7,0,1.2-0.2,1.5-0.5
			c0.3-0.3,0.5-0.7,0.5-1.1s-0.2-0.8-0.5-1.2c-0.3-0.4-0.9-0.5-1.7-0.5h-2.6V86.4z"/>
	</g>
	<g>
		<path class="st0" d="M127.5,21.4l-3,1.9l-3.8-1.9l-1.6-0.8l2.8-1.8l-12.8-6.1l-3.1,2l-3.8-1.9l-1.6-0.8l2.9-1.9l-4.7-2.2
			L65.1,24.1l7.6,3.8l6.9,3.5l0.3,8.9l0.1,0.9c2,0,4,0.3,5.8,0.8l0-2.1l-3-0.9c0.1-0.9,0.3-1.8,0.6-2.6l3.1,0.6l1.8-3.4l-2.2-2.3
			c0.6-0.7,1.2-1.4,1.9-2l2.4,2l3.3-2l-0.7-3.1c1-0.4,2-0.7,3-0.8l1,3h3.9l1-3c0.8,0.2,1.6,0.4,2.4,0.6l-0.6,3.1l3.4,1.9l2.3-2.2
			c0.7,0.6,1.3,1.2,1.9,1.9l-2.1,2.4l2,3.3l3.1-0.7c0.3,0.8,0.6,1.7,0.7,2.6l-3,1.1l0.1,2.6c1.8-0.4,3.6-0.7,5.5-0.7l0-0.9v-8.7
			l14.1-8.1L127.5,21.4z M116.2,20.1l-3.9,2.5l-3.8-1.9l-1.6-0.8l5.3-3.5l5.3,2.8L116.2,20.1z"/>
		<g>
			<g>
				<path class="st1" d="M117.8,43.4v6.2h-0.2L117.8,43.4C117.7,43.4,117.7,43.4,117.8,43.4z"/>
				<path class="st1" d="M117.7,43.4l-0.2,6.2c-1.6,0-3,0.3-4.5,0.7c-3.6,1.1-6.7,3.5-8.6,6.6h0c-0.8,1.2-1.4,2.6-1.9,4h-7.2
					c-0.5-1.6-1.2-3.1-2.1-4.4c-2-3-5.1-5.3-8.6-6.3c-1.4-0.4-2.9-0.6-4.5-0.7L80,46.4v-3c2,0,4,0.3,5.8,0.8
					c5.5,1.5,10.1,5.1,13,9.8c3-4.8,7.7-8.4,13.3-9.9C114,43.6,115.8,43.4,117.7,43.4z"/>
				<polygon class="st1" points="80.1,49.6 80,49.6 80,46.4 				"/>
			</g>
		</g>
		<g>
			<path class="st0" d="M72.7,46.7c-0.7,0-1.2-0.6-1.2-1.2v-18c0-0.7,0.6-1.2,1.2-1.2c0.7,0,1.2,0.6,1.2,1.2v18
				C74,46.2,73.4,46.7,72.7,46.7z"/>
		</g>
		<polygon class="st0" points="124.6,12.7 123.3,13.5 119.4,16.1 115.6,14.2 114,13.4 119.3,9.9 		"/>
		<polygon class="st0" points="140.6,9.4 139.4,10.2 135.5,12.7 131.7,10.8 130.1,10 135.3,6.5 		"/>
		<polygon class="st0" points="118.2,7 117,7.8 113,10.3 109.3,8.4 107.7,7.6 112.9,4.1 		"/>
		<polygon class="st0" points="131.6,6.6 130.3,7.4 126.4,9.9 122.7,8 121,7.2 126.3,3.7 		"/>
		<polygon class="st0" points="135.4,16.1 134.1,16.9 130.2,19.4 126.4,17.5 124.8,16.7 130.1,13.2 		"/>
	</g>
	<path class="st2" d="M89,42.4c0-5.7,4.6-10.3,10.3-10.3s10.3,4.6,10.3,10.3"/>
	<g>
		<path class="st3" d="M24.3,111v-10.5h1.9v8.8h5.5v1.6H24.3z"/>
		<path class="st3" d="M34.8,111v-10.5h1.6l4.6,7.6h-0.8l4.5-7.6h1.6l0,10.5h-1.8l0-7.6h0.4l-3.8,6.4h-0.9l-3.9-6.4h0.4v7.6H34.8z"
			/>
		<path class="st3" d="M53.8,111.2c-0.8,0-1.6-0.1-2.3-0.4s-1.3-0.5-1.8-0.9l0.7-1.5c0.4,0.3,0.9,0.6,1.6,0.8
			c0.6,0.2,1.3,0.3,1.9,0.3c0.5,0,1-0.1,1.3-0.2c0.3-0.1,0.6-0.3,0.7-0.5c0.2-0.2,0.2-0.4,0.2-0.7c0-0.3-0.1-0.6-0.3-0.8
			s-0.5-0.3-0.9-0.5c-0.4-0.1-0.8-0.2-1.2-0.3c-0.4-0.1-0.9-0.2-1.3-0.4c-0.4-0.1-0.8-0.3-1.2-0.5c-0.4-0.2-0.7-0.5-0.9-0.9
			c-0.2-0.4-0.3-0.8-0.3-1.4c0-0.6,0.2-1.1,0.5-1.6c0.3-0.5,0.8-0.9,1.4-1.1c0.6-0.3,1.4-0.4,2.4-0.4c0.6,0,1.3,0.1,1.9,0.2
			c0.6,0.2,1.2,0.4,1.6,0.7l-0.6,1.5c-0.5-0.3-1-0.5-1.5-0.6c-0.5-0.1-1-0.2-1.4-0.2c-0.5,0-1,0.1-1.3,0.2c-0.3,0.1-0.6,0.3-0.7,0.5
			c-0.2,0.2-0.2,0.4-0.2,0.7c0,0.3,0.1,0.6,0.3,0.8c0.2,0.2,0.5,0.3,0.9,0.5c0.4,0.1,0.8,0.2,1.2,0.3c0.4,0.1,0.9,0.2,1.3,0.4
			c0.4,0.1,0.8,0.3,1.2,0.5c0.4,0.2,0.7,0.5,0.9,0.9c0.2,0.4,0.3,0.8,0.3,1.4c0,0.6-0.2,1.1-0.5,1.5c-0.3,0.5-0.8,0.9-1.4,1.1
			C55.6,111,54.8,111.2,53.8,111.2z"/>
		<path class="st3" d="M61.1,107.6v-1.6h4.1v1.6H61.1z"/>
		<path class="st3" d="M69,111v-10.5h1.9v8.8h5.5v1.6H69z"/>
		<path class="st3" d="M82.9,111.1c-0.9,0-1.7-0.2-2.3-0.5c-0.7-0.4-1.2-0.8-1.5-1.5c-0.4-0.6-0.5-1.3-0.5-2.1
			c0-0.8,0.2-1.5,0.5-2.1c0.4-0.6,0.8-1.1,1.5-1.4c0.6-0.3,1.3-0.5,2.1-0.5c0.8,0,1.5,0.2,2.1,0.5c0.6,0.3,1.1,0.8,1.4,1.4
			c0.3,0.6,0.5,1.3,0.5,2.2c0,0.1,0,0.2,0,0.3c0,0.1,0,0.2,0,0.3H80v-1.2h5.7l-0.7,0.4c0-0.5-0.1-0.9-0.3-1.2
			c-0.2-0.3-0.5-0.6-0.8-0.8c-0.3-0.2-0.7-0.3-1.2-0.3c-0.5,0-0.9,0.1-1.2,0.3c-0.3,0.2-0.6,0.5-0.8,0.8c-0.2,0.4-0.3,0.8-0.3,1.2
			v0.3c0,0.5,0.1,0.9,0.3,1.3c0.2,0.4,0.5,0.7,0.9,0.9c0.4,0.2,0.9,0.3,1.4,0.3c0.4,0,0.9-0.1,1.2-0.2c0.4-0.1,0.7-0.4,1-0.7l1,1.2
			c-0.4,0.4-0.8,0.7-1.4,1C84.2,111,83.6,111.1,82.9,111.1z"/>
		<path class="st3" d="M92.1,111.1c-0.6,0-1.1-0.1-1.6-0.3c-0.4-0.2-0.8-0.5-1-0.9c-0.2-0.4-0.4-0.8-0.4-1.2c0-0.4,0.1-0.9,0.3-1.2
			c0.2-0.4,0.6-0.6,1.1-0.9c0.5-0.2,1.1-0.3,1.9-0.3h2.3v1.2h-2.2c-0.6,0-1.1,0.1-1.3,0.3c-0.2,0.2-0.3,0.5-0.3,0.8
			c0,0.3,0.1,0.6,0.4,0.8c0.3,0.2,0.6,0.3,1.1,0.3c0.5,0,0.9-0.1,1.2-0.3c0.4-0.2,0.6-0.5,0.8-0.9l0.3,1.1c-0.2,0.5-0.5,0.8-1,1.1
			C93.4,111,92.9,111.1,92.1,111.1z M94.7,111v-1.6l-0.1-0.3v-2.8c0-0.5-0.2-1-0.5-1.3c-0.3-0.3-0.8-0.5-1.5-0.5
			c-0.4,0-0.9,0.1-1.3,0.2s-0.8,0.3-1.1,0.6l-0.7-1.4c0.4-0.3,0.9-0.6,1.5-0.7c0.6-0.2,1.2-0.2,1.8-0.2c1.2,0,2.1,0.3,2.7,0.8
			c0.6,0.6,0.9,1.4,0.9,2.6v4.7H94.7z"/>
		<path class="st3" d="M100.3,111v-8h1.8v2.2l-0.2-0.6c0.2-0.5,0.6-0.9,1.1-1.2c0.5-0.3,1.2-0.4,1.9-0.4v1.8c-0.1,0-0.2,0-0.2,0
			c-0.1,0-0.1,0-0.2,0c-0.7,0-1.3,0.2-1.7,0.6c-0.4,0.4-0.6,1-0.6,1.8v3.9H100.3z"/>
		<path class="st3" d="M112.5,102.9c0.6,0,1.2,0.1,1.7,0.4c0.5,0.2,0.9,0.6,1.2,1.1c0.3,0.5,0.4,1.2,0.4,2v4.6H114v-4.3
			c0-0.7-0.2-1.2-0.5-1.6c-0.3-0.3-0.8-0.5-1.4-0.5c-0.4,0-0.8,0.1-1.2,0.3c-0.3,0.2-0.6,0.4-0.8,0.8c-0.2,0.4-0.3,0.8-0.3,1.3v4
			H108v-8h1.8v2.2l-0.3-0.7c0.3-0.5,0.7-0.9,1.2-1.2C111.2,103.1,111.8,102.9,112.5,102.9z"/>
		<path class="st3" d="M124.3,104.6v-1.5h5.3v1.5H124.3z M128.4,111.1c-0.9,0-1.6-0.2-2-0.7c-0.5-0.5-0.7-1.1-0.7-2v-7.2h1.9v7.1
			c0,0.4,0.1,0.7,0.3,0.9c0.2,0.2,0.5,0.3,0.8,0.3c0.4,0,0.8-0.1,1-0.3l0.5,1.3c-0.2,0.2-0.5,0.3-0.8,0.4
			C129.1,111.1,128.7,111.1,128.4,111.1z"/>
		<path class="st3" d="M136.5,111.1c-0.8,0-1.5-0.2-2.2-0.5c-0.6-0.4-1.1-0.8-1.5-1.5c-0.4-0.6-0.6-1.3-0.6-2.1
			c0-0.8,0.2-1.5,0.6-2.1c0.4-0.6,0.9-1.1,1.5-1.4c0.6-0.3,1.4-0.5,2.2-0.5c0.8,0,1.6,0.2,2.2,0.5c0.6,0.3,1.1,0.8,1.5,1.4
			c0.4,0.6,0.5,1.3,0.5,2.1c0,0.8-0.2,1.5-0.5,2.1c-0.4,0.6-0.9,1.1-1.5,1.5C138.1,110.9,137.4,111.1,136.5,111.1z M136.5,109.5
			c0.5,0,0.9-0.1,1.2-0.3c0.4-0.2,0.6-0.5,0.8-0.9c0.2-0.4,0.3-0.8,0.3-1.3c0-0.5-0.1-1-0.3-1.3c-0.2-0.4-0.5-0.7-0.8-0.9
			c-0.4-0.2-0.8-0.3-1.2-0.3c-0.5,0-0.9,0.1-1.2,0.3c-0.4,0.2-0.6,0.5-0.8,0.9c-0.2,0.4-0.3,0.8-0.3,1.3c0,0.5,0.1,1,0.3,1.3
			c0.2,0.4,0.5,0.7,0.8,0.9C135.7,109.4,136.1,109.5,136.5,109.5z"/>
		<path class="st3" d="M151.8,109.4h5.9v1.6h-7.9v-10.5h7.6v1.6h-5.7V109.4z M151.7,104.9h5.2v1.6h-5.2V104.9z"/>
		<path class="st3" d="M163.6,111.1c-0.6,0-1.1-0.1-1.6-0.3c-0.4-0.2-0.8-0.5-1-0.9c-0.2-0.4-0.4-0.8-0.4-1.2c0-0.4,0.1-0.9,0.3-1.2
			c0.2-0.4,0.6-0.6,1.1-0.9c0.5-0.2,1.1-0.3,1.9-0.3h2.3v1.2H164c-0.6,0-1.1,0.1-1.3,0.3c-0.2,0.2-0.3,0.5-0.3,0.8
			c0,0.3,0.1,0.6,0.4,0.8c0.3,0.2,0.6,0.3,1.1,0.3c0.5,0,0.9-0.1,1.2-0.3c0.4-0.2,0.6-0.5,0.8-0.9l0.3,1.1c-0.2,0.5-0.5,0.8-1,1.1
			C164.9,111,164.3,111.1,163.6,111.1z M166.1,111v-1.6l-0.1-0.3v-2.8c0-0.5-0.2-1-0.5-1.3c-0.3-0.3-0.8-0.5-1.5-0.5
			c-0.4,0-0.9,0.1-1.3,0.2c-0.4,0.1-0.8,0.3-1.1,0.6l-0.7-1.4c0.4-0.3,0.9-0.6,1.5-0.7c0.6-0.2,1.2-0.2,1.8-0.2
			c1.2,0,2.1,0.3,2.7,0.8c0.6,0.6,0.9,1.4,0.9,2.6v4.7H166.1z"/>
		<path class="st3" d="M171.7,111v-8h1.8v2.2l-0.2-0.6c0.2-0.5,0.6-0.9,1.1-1.2c0.5-0.3,1.2-0.4,1.9-0.4v1.8c-0.1,0-0.2,0-0.2,0
			c-0.1,0-0.1,0-0.2,0c-0.7,0-1.3,0.2-1.7,0.6c-0.4,0.4-0.6,1-0.6,1.8v3.9H171.7z"/>
		<path class="st3" d="M184,102.9c0.6,0,1.2,0.1,1.7,0.4c0.5,0.2,0.9,0.6,1.2,1.1c0.3,0.5,0.4,1.2,0.4,2v4.6h-1.9v-4.3
			c0-0.7-0.2-1.2-0.5-1.6c-0.3-0.3-0.8-0.5-1.4-0.5c-0.4,0-0.8,0.1-1.2,0.3c-0.3,0.2-0.6,0.4-0.8,0.8c-0.2,0.4-0.3,0.8-0.3,1.3v4
			h-1.9v-8h1.8v2.2l-0.3-0.7c0.3-0.5,0.7-0.9,1.2-1.2C182.7,103.1,183.3,102.9,184,102.9z"/>
	</g>
</g>
</svg>
