<svg width="10" height="9" viewBox="0 0 10 9" fill="none" xmlns="http://www.w3.org/2000/svg">
<path d="M5.57997 1.98L6.16997 3.15999C6.24997 3.31999 6.45997 3.48 6.64997 3.51L7.71997 3.68999C8.39997 3.79999 8.55997 4.3 8.06997 4.79L7.23997 5.61998C7.09997 5.75998 7.01997 6.03 7.06997 6.23L7.30997 7.26C7.49997 8.07 7.06997 8.38998 6.34997 7.95998L5.34997 7.36998C5.16997 7.25998 4.86997 7.25998 4.68997 7.36998L3.68997 7.95998C2.96997 8.37998 2.53997 8.07 2.72997 7.26L2.96997 6.23C3.00997 6.04 2.93997 5.75998 2.79997 5.61998L1.96997 4.79C1.47997 4.3 1.63997 3.80999 2.31997 3.68999L3.38997 3.51C3.56997 3.48 3.77997 3.31999 3.85997 3.15999L4.44997 1.98C4.73997 1.34 5.25997 1.34 5.57997 1.98Z" stroke="#4D4D4D" stroke-width="1.5" strokeLinecap="round" stroke-linejoin="round"/>
</svg>
