<svg width="136" height="148" viewBox="0 0 136 148" fill="none" xmlns="http://www.w3.org/2000/svg">
<path d="M14.2432 94.4563C28.8314 156.998 123.514 149.448 126.975 98.8774C130.502 47.2143 79.65 48.6715 73.8214 74.1884" stroke="#7952B3" stroke-opacity="0.1" strokeWidth="16" stroke-miterlimit="10" stroke-linecap="round"/>
<path d="M89.105 105.386C75.2785 114.841 27.7385 103.167 46.2842 51.2391C63.1078 4.12958 121.759 23.6357 123.762 24.4471" stroke="#E1E8EB" stroke-opacity="0.08" strokeWidth="16" stroke-miterlimit="10" stroke-linecap="round"/>
<path d="M1.11199 63.9396C1.11199 63.9396 -3.32571 20.4896 43.6679 1" stroke="#343A40" strokeWidth="2" stroke-miterlimit="10" stroke-linecap="round"/>
<path d="M26.4965 28.6289C26.4965 28.6289 10.7657 54.1293 18.9788 66.7801C27.1754 79.431 48.7182 42.5051 47.3439 29.1753C45.9695 15.8456 34.3453 17.5511 26.4965 28.6289Z" fill="#FFC107" fill-opacity="0.16"/>
<path d="M77.9082 132.44C87.0986 131.518 94.1101 126.396 93.5689 121C93.0277 115.604 85.1387 111.977 75.9483 112.899C66.7579 113.821 59.7464 118.943 60.2876 124.339C60.8288 129.735 68.7178 133.362 77.9082 132.44Z" fill="#FFC107" fill-opacity="0.16"/>
</svg>
