<svg width="195" height="78" viewBox="0 0 195 78" fill="none" xmlns="http://www.w3.org/2000/svg">
<g clip-path="url(#clip0_22_1036)">
<path d="M25.3203 57.7642H28.5313V58.7451H24.1211V49.5215H25.3171V57.7642H25.3203Z" fill="#5831F0"/>
<path d="M36.5395 56.6915H32.542L31.8043 58.7416H30.54L33.855 49.5703H35.2363L38.5383 58.7416H37.274L36.5395 56.6915ZM36.1983 55.7139L34.5408 51.0547L32.8833 55.7139H36.1983Z" fill="#5831F0"/>
<path d="M48.5092 58.7445H47.3132L42.5 51.4009V58.7445H41.304V49.5078H42.5L47.3132 56.8383V49.5078H48.5092V58.7445Z" fill="#5831F0"/>
<path d="M57.3165 50.0826C58.0477 50.4586 58.61 50.9948 59 51.6912C59.39 52.3877 59.585 53.2083 59.585 54.1533C59.585 55.0982 59.39 55.9156 59 56.6087C58.61 57.3019 58.0477 57.8316 57.3165 58.1978C56.5852 58.564 55.7175 58.7471 54.7197 58.7471H51.8662V49.5235H54.7197C55.7175 49.5202 56.582 49.7066 57.3165 50.0826ZM57.427 56.8049C58.051 56.1739 58.3597 55.2911 58.3597 54.1533C58.3597 53.0056 58.0477 52.1097 57.4205 51.4656C56.7932 50.8215 55.893 50.4978 54.7165 50.4978H53.059V57.7498H54.7165C55.9027 57.7498 56.803 57.436 57.427 56.8049Z" fill="#5831F0"/>
<path d="M72.7251 56.6915H68.7276L67.9898 58.7416H66.7256L70.0406 49.5703H71.4218L74.7238 58.7416H73.4596L72.7251 56.6915ZM72.3838 55.7139L70.7263 51.0547L69.0688 55.7139H72.3838Z" fill="#5831F0"/>
<path d="M84.6948 58.7438H83.4988L78.6823 51.397V58.7406H77.4863V49.5039H78.6823L83.4956 56.8344V49.5039H84.6916V58.7438H84.6948Z" fill="#5831F0"/>
<path d="M93.2454 53.3307C94.1391 53.164 94.5876 52.6997 94.5876 51.9412C94.5876 51.6044 94.5421 51.0322 94.4576 50.2213C94.3699 49.3582 94.3276 48.7304 94.3276 48.3413C94.3276 47.707 94.5064 47.2198 94.8606 46.8863C95.2149 46.5528 95.6926 46.3828 96.2874 46.3828H97.0511V47.4291H96.5116C96.1704 47.4291 95.9136 47.5076 95.7479 47.6612C95.5821 47.8149 95.4976 48.0699 95.4976 48.4231C95.4976 48.6781 95.5139 48.9952 95.5496 49.368C95.5854 49.744 95.6049 49.9957 95.6146 50.1298C95.7024 50.9766 95.7446 51.5946 95.7446 51.9837C95.7446 52.4512 95.6276 52.8403 95.3969 53.1542C95.1661 53.4681 94.8086 53.6773 94.3244 53.782V53.8081C94.8054 53.9127 95.1629 54.1253 95.3969 54.4424C95.6276 54.7596 95.7446 55.1519 95.7446 55.6195C95.7446 56.0086 95.6991 56.6265 95.6146 57.4734C95.6049 57.6074 95.5854 57.8592 95.5496 58.2352C95.5139 58.6112 95.4976 58.9251 95.4976 59.1801C95.4976 59.5332 95.5821 59.785 95.7479 59.9419C95.9136 60.0956 96.1671 60.1741 96.5116 60.1741H97.0511V61.2203H96.2874C95.6926 61.2203 95.2149 61.0536 94.8606 60.7168C94.5064 60.38 94.3276 59.8961 94.3276 59.2618C94.3276 58.8728 94.3699 58.2483 94.4576 57.3818C94.5454 56.5709 94.5876 55.9955 94.5876 55.662C94.5876 54.9034 94.1391 54.4392 93.2454 54.2724V53.3307Z" fill="#5831F0"/>
<path d="M100.636 53.3307C101.529 53.164 101.978 52.6997 101.978 51.9412C101.978 51.6044 101.932 51.0322 101.845 50.2213C101.757 49.3582 101.715 48.7304 101.715 48.3413C101.715 47.707 101.893 47.2198 102.248 46.8863C102.602 46.5528 103.08 46.3828 103.674 46.3828H104.438V47.4291H103.899C103.557 47.4291 103.304 47.5076 103.135 47.6612C102.969 47.8149 102.885 48.0699 102.885 48.4231C102.885 48.6781 102.901 48.9952 102.937 49.368C102.972 49.744 102.995 49.9957 103.002 50.1298C103.089 50.9766 103.132 51.5946 103.132 51.9837C103.132 52.4512 103.015 52.8403 102.784 53.1542C102.55 53.4681 102.192 53.6773 101.711 53.782V53.8081C102.192 53.9127 102.55 54.1253 102.784 54.4424C103.015 54.7596 103.132 55.1519 103.132 55.6195C103.132 56.0086 103.086 56.6265 103.002 57.4734C102.992 57.6074 102.969 57.8592 102.937 58.2352C102.901 58.6112 102.885 58.9251 102.885 59.1801C102.885 59.5332 102.969 59.785 103.135 59.9419C103.301 60.0956 103.554 60.1741 103.899 60.1741H104.438V61.2203H103.674C103.08 61.2203 102.602 61.0536 102.248 60.7168C101.893 60.38 101.715 59.8961 101.715 59.2618C101.715 58.8728 101.757 58.2483 101.845 57.3818C101.932 56.5709 101.978 55.9955 101.978 55.662C101.978 54.9034 101.529 54.4392 100.636 54.2724V53.3307Z" fill="#5831F0"/>
<path d="M108.858 49.5215V58.7451H107.662V49.5215H108.858Z" fill="#5831F0"/>
<path d="M117.854 49.5215V50.5024H115.355V58.7451H114.159V50.5024H111.647V49.5215H117.854Z" fill="#5831F0"/>
<path d="M130.087 49.5215V56.3354C130.087 57.0939 129.857 57.7021 129.392 58.1565C128.927 58.611 128.313 58.8366 127.549 58.8366C126.779 58.8366 126.158 58.6045 125.693 58.1435C125.229 57.6792 124.995 57.0481 124.995 56.2438H126.191C126.2 56.695 126.314 57.0612 126.538 57.3424C126.763 57.6236 127.097 57.7642 127.546 57.7642C127.994 57.7642 128.326 57.6301 128.547 57.362C128.765 57.0939 128.875 56.7506 128.875 56.3354V49.5215H130.087Z" fill="#5831F0"/>
<path d="M135.586 58.2355C134.884 57.8333 134.329 57.2742 133.922 56.5549C133.516 55.8356 133.311 55.028 133.311 54.1256C133.311 53.2232 133.516 52.4156 133.922 51.6963C134.329 50.9769 134.884 50.4178 135.586 50.0157C136.288 49.6135 137.065 49.4141 137.913 49.4141C138.771 49.4141 139.551 49.6135 140.253 50.0157C140.955 50.4178 141.508 50.9737 141.911 51.6897C142.314 52.4058 142.515 53.2166 142.515 54.1256C142.515 55.0345 142.314 55.8454 141.911 56.5614C141.508 57.2775 140.955 57.8333 140.253 58.2355C139.551 58.6377 138.771 58.8371 137.913 58.8371C137.062 58.8371 136.285 58.6377 135.586 58.2355ZM139.642 57.3429C140.156 57.0421 140.559 56.6138 140.851 56.0579C141.144 55.5021 141.293 54.858 141.293 54.1256C141.293 53.3834 141.147 52.7393 140.851 52.1867C140.559 51.6341 140.156 51.2091 139.649 50.9083C139.139 50.6075 138.56 50.4571 137.913 50.4571C137.263 50.4571 136.685 50.6075 136.178 50.9083C135.668 51.2091 135.268 51.6341 134.975 52.1867C134.683 52.7393 134.533 53.3834 134.533 54.1256C134.533 54.858 134.68 55.5021 134.975 56.0579C135.268 56.6138 135.671 57.0421 136.184 57.3429C136.698 57.6437 137.273 57.7941 137.913 57.7941C138.554 57.7908 139.129 57.6404 139.642 57.3429Z" fill="#5831F0"/>
<path d="M150.917 54.403C151.193 54.6221 151.411 54.8967 151.573 55.2237C151.736 55.5507 151.817 55.8972 151.817 56.27C151.817 56.7375 151.7 57.1593 151.463 57.5353C151.225 57.9113 150.881 58.2056 150.429 58.4214C149.977 58.6372 149.444 58.7451 148.83 58.7451H145.411V49.5215H148.7C149.324 49.5215 149.854 49.6261 150.293 49.8321C150.731 50.0381 151.06 50.3193 151.281 50.6724C151.502 51.0255 151.609 51.4211 151.609 51.8625C151.609 52.4086 151.463 52.863 151.167 53.2194C150.874 53.5758 150.484 53.8341 150.003 53.9943C150.335 54.0466 150.64 54.184 150.917 54.403ZM146.607 53.5039H148.619C149.181 53.5039 149.613 53.3731 149.922 53.1083C150.228 52.8434 150.384 52.4772 150.384 52.0097C150.384 51.5421 150.231 51.1759 149.922 50.9111C149.613 50.6462 149.171 50.5154 148.593 50.5154H146.607V53.5039ZM150.12 57.3261C150.455 57.0449 150.621 56.6525 150.621 56.149C150.621 55.6389 150.445 55.2335 150.094 54.9392C149.743 54.645 149.275 54.4946 148.687 54.4946H146.61V57.7511H148.729C149.321 57.7511 149.786 57.6105 150.12 57.3261Z" fill="#5831F0"/>
<path d="M155.171 58.5849C155.012 58.4246 154.934 58.2317 154.934 58.0029C154.934 57.774 155.012 57.5811 155.171 57.4209C155.33 57.2607 155.522 57.1822 155.749 57.1822C155.967 57.1822 156.156 57.2607 156.308 57.4209C156.461 57.5811 156.539 57.774 156.539 58.0029C156.539 58.2317 156.461 58.4246 156.308 58.5849C156.156 58.7451 155.967 58.8235 155.749 58.8235C155.522 58.8235 155.33 58.7451 155.171 58.5849ZM156.341 49.5215L156.195 56.1392H155.194L155.047 49.5215H156.341Z" fill="#5831F0"/>
<path d="M162.366 55.662C162.366 55.9988 162.409 56.5709 162.5 57.3818C162.587 58.245 162.63 58.8728 162.63 59.2618C162.63 59.8961 162.451 60.3833 162.097 60.7168C161.742 61.0503 161.265 61.2203 160.67 61.2203H159.906V60.1741H160.446C160.787 60.1741 161.04 60.0956 161.209 59.9419C161.375 59.7882 161.46 59.5332 161.46 59.1801C161.46 58.9251 161.443 58.6079 161.408 58.2352C161.372 57.8592 161.349 57.6074 161.343 57.4734C161.255 56.6265 161.209 56.0086 161.209 55.6195C161.209 55.1519 161.326 54.7596 161.557 54.4424C161.788 54.1253 162.145 53.9127 162.63 53.8081V53.782C162.149 53.6773 161.791 53.4681 161.557 53.1542C161.323 52.8403 161.209 52.4512 161.209 51.9837C161.209 51.5946 161.252 50.9766 161.343 50.1298C161.352 49.9957 161.372 49.744 161.408 49.368C161.443 48.992 161.46 48.6781 161.46 48.4231C161.46 48.0699 161.375 47.8149 161.209 47.6612C161.044 47.5076 160.79 47.4291 160.446 47.4291H159.906V46.3828H160.67C161.265 46.3828 161.742 46.5496 162.097 46.8863C162.451 47.2231 162.63 47.707 162.63 48.3413C162.63 48.7304 162.587 49.3549 162.5 50.2213C162.412 51.0322 162.366 51.6077 162.366 51.9412C162.366 52.6997 162.815 53.164 163.709 53.3307V54.2691C162.812 54.4391 162.366 54.9034 162.366 55.662Z" fill="#5831F0"/>
<path d="M169.757 55.662C169.757 55.9988 169.799 56.5709 169.89 57.3818C169.978 58.245 170.02 58.8728 170.02 59.2618C170.02 59.8961 169.841 60.3833 169.487 60.7168C169.133 61.0503 168.655 61.2203 168.06 61.2203H167.297V60.1741H167.836C168.177 60.1741 168.431 60.0956 168.6 59.9419C168.766 59.7882 168.85 59.5332 168.85 59.1801C168.85 58.9251 168.834 58.6079 168.798 58.2352C168.762 57.8592 168.74 57.6074 168.733 57.4734C168.645 56.6265 168.6 56.0086 168.6 55.6195C168.6 55.1519 168.717 54.7596 168.948 54.4424C169.178 54.1253 169.536 53.9127 170.02 53.8081V53.782C169.539 53.6773 169.182 53.4681 168.948 53.1542C168.714 52.8403 168.6 52.4512 168.6 51.9837C168.6 51.5946 168.642 50.9766 168.733 50.1298C168.743 49.9957 168.762 49.744 168.798 49.368C168.834 48.992 168.85 48.6781 168.85 48.4231C168.85 48.0699 168.766 47.8149 168.6 47.6612C168.434 47.5076 168.181 47.4291 167.836 47.4291H167.297V46.3828H168.06C168.655 46.3828 169.133 46.5496 169.487 46.8863C169.841 47.2231 170.02 47.707 170.02 48.3413C170.02 48.7304 169.978 49.3549 169.89 50.2213C169.802 51.0322 169.757 51.6077 169.757 51.9412C169.757 52.6997 170.205 53.164 171.099 53.3307V54.2691C170.205 54.4391 169.757 54.9034 169.757 55.662Z" fill="#5831F0"/>
<path d="M7.17608 65.0957L6.97458 66.2237H4.64433L3.29558 73.9073H1.85583L3.20458 66.2237H0.861328L1.06283 65.0957H7.17608Z" fill="white"/>
<path d="M8.80106 73.7378C8.37206 73.5645 8.03081 73.3128 7.78056 72.976C7.52706 72.6425 7.40356 72.2469 7.40356 71.7891C7.40356 71.7303 7.41331 71.6256 7.42956 71.472H8.85306C8.82056 71.8611 8.93431 72.1848 9.19431 72.4431C9.45431 72.7014 9.82806 72.8289 10.3156 72.8289C10.8356 72.8289 11.2451 72.721 11.5376 72.5052C11.8301 72.2894 11.9796 71.9788 11.9796 71.5733C11.9796 71.3281 11.9048 71.1189 11.7586 70.9456C11.6123 70.7723 11.4271 70.6251 11.2028 70.5074C10.9786 70.3897 10.6698 70.2491 10.2766 70.0889C9.75656 69.8699 9.34056 69.6704 9.02856 69.4939C8.71656 69.3173 8.45006 69.0721 8.22906 68.7582C8.00481 68.4443 7.89431 68.052 7.89431 67.5779C7.89431 67.0547 8.02756 66.597 8.29731 66.2014C8.56706 65.809 8.93756 65.5049 9.41206 65.2957C9.88656 65.0831 10.4228 64.9785 11.0176 64.9785C11.6123 64.9785 12.1291 65.0766 12.5613 65.2761C12.9936 65.4755 13.3218 65.7534 13.5428 66.1131C13.7638 66.4727 13.8646 66.8912 13.8386 67.3751H12.3273C12.3598 67.0286 12.2558 66.7376 12.0121 66.5054C11.7683 66.2733 11.4141 66.1556 10.9526 66.1556C10.4651 66.1556 10.0783 66.2667 9.78581 66.4924C9.49656 66.718 9.35031 67.0188 9.35031 67.398C9.35031 67.6334 9.42506 67.8394 9.57131 68.0127C9.71756 68.186 9.90606 68.3331 10.1336 68.4574C10.3611 68.5816 10.6666 68.7255 11.0533 68.8955C11.5733 69.1309 11.9926 69.3435 12.3078 69.5298C12.6231 69.7162 12.8928 69.968 13.1203 70.2851C13.3478 70.6023 13.4616 70.9946 13.4616 71.4589C13.4616 71.9493 13.3283 72.3875 13.0586 72.77C12.7888 73.1558 12.4118 73.4534 11.9243 73.6692C11.4368 73.885 10.8778 73.9929 10.2473 73.9929C9.71106 73.9961 9.23006 73.9111 8.80106 73.7378Z" fill="white"/>
<path d="M14.5959 71.9809L14.7844 70.8922L20.0884 64.7812H21.8272L20.7937 70.7287H21.9669L21.7394 71.9842H20.5662L20.2249 73.91H18.8177L19.1589 71.9842H14.5959V71.9809ZM20.2314 66.2493L16.4777 70.7254H19.4514L20.2314 66.2493Z" fill="white"/>
<path d="M25.7498 65.0951L24.7683 70.6861C24.7358 70.8561 24.7195 71.0294 24.7195 71.206C24.7195 71.7062 24.8658 72.079 25.155 72.3275C25.4443 72.576 25.8603 72.7002 26.3965 72.7002C27.027 72.7002 27.5438 72.5302 27.9533 72.1934C28.3595 71.8566 28.6228 71.3531 28.7398 70.6861L29.7213 65.0951H31.1578L30.1763 70.6861C30.0495 71.4054 29.7863 72.0136 29.3898 72.5106C28.99 73.0108 28.509 73.3803 27.9468 73.6255C27.3845 73.8707 26.7865 73.9917 26.156 73.9917C25.298 73.9917 24.6025 73.7726 24.0695 73.3312C23.5365 72.8931 23.27 72.2523 23.27 71.4185C23.27 71.1406 23.2895 70.8954 23.3318 70.6828L24.3133 65.0918H25.7498V65.0951Z" fill="white"/>
<path d="M38.2363 65.0957L36.686 73.9073H35.2495L36.7998 65.0957H38.2363Z" fill="white"/>
<path d="M45.7861 65.0957L45.5846 66.2237H43.2544L41.9056 73.9073H40.4691L41.8179 66.2237H39.4746L39.6761 65.0957H45.7861Z" fill="white"/>
<path d="M52.2501 66.2114L51.7853 68.8859H54.8111L54.6226 70.0009H51.5968L51.1061 72.7768H54.5088L54.3073 73.9048H49.4648L51.0151 65.0801H55.8543L55.6528 66.2081H52.2501V66.2114Z" fill="white"/>
<path d="M62.5661 67.3965C62.9983 67.7888 63.2161 68.3545 63.2161 69.0901C63.2161 69.2765 63.1966 69.5087 63.1543 69.7866L62.4231 73.9063H60.9996L61.6918 70.0024C61.7243 69.767 61.7406 69.5969 61.7406 69.4956C61.7406 69.0313 61.6138 68.6749 61.3571 68.4297C61.1003 68.1845 60.7461 68.0635 60.2911 68.0635C59.7451 68.0635 59.2836 68.2302 58.9098 68.5637C58.5361 68.8972 58.2988 69.3779 58.1981 70.0024V69.9631L57.5058 73.9063H56.0693L57.2913 66.9191H58.7278L58.5881 67.73C58.8741 67.4423 59.2121 67.2167 59.6021 67.0532C59.9921 66.8897 60.3983 66.8047 60.8176 66.8047C61.5521 66.808 62.1338 67.0041 62.5661 67.3965Z" fill="white"/>
<path d="M69.6736 67.133C70.0571 67.3488 70.3301 67.6169 70.4991 67.9373L70.6746 66.9237H72.1241L70.8891 74.0221C70.7721 74.6629 70.5349 75.2384 70.1839 75.7386C69.8296 76.2422 69.3714 76.6378 68.8091 76.9255C68.2469 77.2132 67.6131 77.3571 66.9079 77.3571C66.2936 77.3571 65.7574 77.259 65.2959 77.0596C64.8344 76.8601 64.4834 76.5757 64.2494 76.2029C64.0154 75.8302 63.9146 75.392 63.9471 74.8853H65.3706C65.4129 75.2482 65.5916 75.5425 65.9134 75.7681C66.2319 75.9904 66.6414 76.1048 67.1354 76.1048C67.7139 76.1048 68.2144 75.9283 68.6336 75.5719C69.0529 75.2188 69.3226 74.7022 69.4396 74.0253L69.6411 72.8581C69.3389 73.1883 68.9619 73.4662 68.5069 73.6886C68.0519 73.9109 67.5611 74.0253 67.0314 74.0253C66.5016 74.0253 66.0304 73.9076 65.6209 73.6722C65.2114 73.4368 64.8864 73.1 64.6556 72.6652C64.4249 72.2303 64.3079 71.7301 64.3079 71.1644C64.3079 70.9094 64.3339 70.6544 64.3826 70.3895C64.5094 69.6866 64.7629 69.0653 65.1464 68.5259C65.5299 67.9864 65.9979 67.5646 66.5504 67.2638C67.1061 66.963 67.6846 66.8126 68.2891 66.8126C68.8286 66.8093 69.2901 66.9172 69.6736 67.133ZM70.1189 69.8893C70.1189 69.3236 69.9531 68.879 69.6216 68.552C69.2901 68.2283 68.8774 68.0648 68.3801 68.0648C68.0096 68.0648 67.6489 68.1564 67.2979 68.3362C66.9436 68.5193 66.6381 68.7842 66.3781 69.134C66.1181 69.4839 65.9459 69.9024 65.8614 70.383C65.8289 70.5432 65.8094 70.7165 65.8094 70.9029C65.8094 71.4783 65.9751 71.9328 66.3066 72.2663C66.6381 72.5998 67.0509 72.7665 67.5481 72.7665C67.9186 72.7665 68.2794 72.675 68.6304 72.4886C68.9846 72.3023 69.2901 72.0309 69.5501 71.6712C69.8101 71.3116 69.9824 70.8931 70.0669 70.4092C70.1026 70.2489 70.1189 70.0757 70.1189 69.8893Z" fill="white"/>
<path d="M75.4488 66.9237L74.2268 73.9109H72.7903L74.0123 66.9237H75.4488ZM74.3535 65.7826C74.2105 65.6387 74.139 65.4557 74.139 65.2366C74.139 64.9423 74.2495 64.684 74.4738 64.4682C74.6948 64.2524 74.9515 64.1445 75.2375 64.1445C75.465 64.1445 75.647 64.2165 75.7868 64.3603C75.9265 64.5042 75.9948 64.6873 75.9948 64.9064C75.9948 65.2039 75.8843 65.4589 75.6665 65.6747C75.4488 65.8905 75.1953 65.9984 74.9093 65.9984C74.6818 65.9984 74.4965 65.9265 74.3535 65.7826Z" fill="white"/>
<path d="M82.6149 67.3965C83.0472 67.7888 83.2649 68.3545 83.2649 69.0901C83.2649 69.2765 83.2454 69.5087 83.2032 69.7866L82.4719 73.9063H81.0484L81.7407 70.0024C81.7732 69.767 81.7894 69.5969 81.7894 69.4956C81.7894 69.0313 81.6627 68.6749 81.4059 68.4297C81.1492 68.1845 80.7949 68.0635 80.3399 68.0635C79.7939 68.0635 79.3324 68.2302 78.9587 68.5637C78.5849 68.8972 78.3477 69.3779 78.2469 70.0024V69.9631L77.5547 73.9063H76.1182L77.3402 66.9191H78.7767L78.6369 67.73C78.9229 67.4423 79.2609 67.2167 79.6509 67.0532C80.0409 66.8897 80.4472 66.8047 80.8664 66.8047C81.6009 66.808 82.1827 67.0041 82.6149 67.3965Z" fill="white"/>
<path d="M90.6036 67.5436C91.1203 68.0341 91.3771 68.6945 91.3771 69.5217C91.3771 69.7146 91.3576 69.9501 91.3154 70.2182C91.2828 70.4045 91.2243 70.6334 91.1398 70.9015H85.8326C85.8229 70.9604 85.8196 71.0487 85.8196 71.1664C85.8196 71.6666 85.9724 72.0622 86.2811 72.3565C86.5866 72.654 86.9896 72.8012 87.4836 72.8012C88.2636 72.8012 88.8649 72.4742 89.2841 71.8235H90.8343C90.5158 72.4644 90.0446 72.9908 89.4238 73.4028C88.8031 73.8115 88.0848 74.0175 87.2691 74.0175C86.6906 74.0175 86.1803 73.903 85.7448 73.6742C85.3093 73.4453 84.9681 73.1183 84.7244 72.6933C84.4806 72.2682 84.3604 71.7647 84.3604 71.1925C84.3604 70.9473 84.3863 70.6857 84.4351 70.4078C84.5618 69.6885 84.8186 69.0574 85.2054 68.5114C85.5921 67.9654 86.0731 67.5469 86.6483 67.2494C87.2236 66.9518 87.8509 66.8047 88.5334 66.8047C89.3946 66.808 90.0868 67.0532 90.6036 67.5436ZM89.9049 69.5315C89.9049 69.0673 89.7521 68.6978 89.4433 68.4297C89.1378 68.1583 88.7381 68.0243 88.2538 68.0243C87.7403 68.0243 87.2788 68.1877 86.8661 68.518C86.4533 68.8482 86.1738 69.2961 86.0211 69.8618H89.8788C89.8951 69.7114 89.9049 69.6002 89.9049 69.5315Z" fill="white"/>
<path d="M98.3777 67.5436C98.8944 68.0341 99.1512 68.6945 99.1512 69.5217C99.1512 69.7146 99.1317 69.9501 99.0895 70.2182C99.057 70.4045 98.9952 70.6334 98.9139 70.9015H93.6099C93.6002 70.9604 93.5969 71.0487 93.5969 71.1664C93.5969 71.6666 93.7497 72.0622 94.0584 72.3565C94.3639 72.654 94.7669 72.8012 95.2609 72.8012C96.0409 72.8012 96.6422 72.4742 97.0614 71.8235H98.6117C98.2932 72.4644 97.8219 72.9908 97.2012 73.4028C96.5804 73.8115 95.8622 74.0175 95.0464 74.0175C94.4679 74.0175 93.9577 73.903 93.5222 73.6742C93.0867 73.4453 92.7454 73.1183 92.5017 72.6933C92.2579 72.2682 92.1377 71.7647 92.1377 71.1925C92.1377 70.9473 92.1637 70.6857 92.2124 70.4078C92.3392 69.6885 92.5959 69.0574 92.9827 68.5114C93.3694 67.9654 93.8504 67.5469 94.4257 67.2494C95.0009 66.9518 95.6282 66.8047 96.3107 66.8047C97.1719 66.808 97.8609 67.0532 98.3777 67.5436ZM97.6789 69.5315C97.6789 69.0673 97.5262 68.6978 97.2207 68.4297C96.9152 68.1583 96.5154 68.0243 96.0312 68.0243C95.5177 68.0243 95.0562 68.1877 94.6434 68.518C94.2307 68.8482 93.9512 69.2961 93.7984 69.8618H97.6562C97.6724 69.7114 97.6789 69.6002 97.6789 69.5315Z" fill="white"/>
<path d="M103.305 67.1611C103.695 66.9257 104.13 66.8047 104.608 66.8047L104.345 68.3022H103.981C103.425 68.3022 102.98 68.4428 102.645 68.7207C102.31 68.9986 102.073 69.4825 101.94 70.1659L101.283 73.9063H99.8467L101.069 66.9191H102.505L102.291 68.1485C102.577 67.7267 102.915 67.3998 103.305 67.1611Z" fill="white"/>
<path d="M107.344 66.9237L106.122 73.9109H104.686L105.908 66.9237H107.344ZM106.249 65.7826C106.106 65.6387 106.035 65.4557 106.035 65.2366C106.035 64.9423 106.145 64.684 106.369 64.4682C106.59 64.2524 106.847 64.1445 107.133 64.1445C107.361 64.1445 107.543 64.2165 107.682 64.3603C107.822 64.5042 107.89 64.6873 107.89 64.9064C107.89 65.2039 107.78 65.4589 107.562 65.6747C107.344 65.8905 107.091 65.9984 106.805 65.9984C106.577 65.9984 106.392 65.9265 106.249 65.7826Z" fill="white"/>
<path d="M114.507 67.3965C114.94 67.7888 115.157 68.3545 115.157 69.0901C115.157 69.2765 115.138 69.5087 115.096 69.7866L114.364 73.9063H112.941L113.633 70.0024C113.666 69.767 113.685 69.5969 113.685 69.4956C113.685 69.0313 113.558 68.6749 113.302 68.4297C113.045 68.1845 112.691 68.0635 112.236 68.0635C111.69 68.0635 111.228 68.2302 110.854 68.5637C110.481 68.8972 110.243 69.3779 110.143 70.0024V69.9631L109.45 73.9063H108.014L109.236 66.9191H110.672L110.533 67.73C110.819 67.4423 111.157 67.2167 111.547 67.0532C111.937 66.8897 112.343 66.8047 112.762 66.8047C113.493 66.808 114.075 67.0041 114.507 67.3965Z" fill="white"/>
<path d="M121.615 67.133C121.999 67.3488 122.272 67.6169 122.441 67.9373L122.616 66.9237H124.066L122.831 74.0221C122.714 74.6629 122.476 75.2384 122.125 75.7386C121.771 76.2422 121.313 76.6378 120.751 76.9255C120.188 77.2132 119.555 77.3571 118.846 77.3571C118.232 77.3571 117.696 77.259 117.234 77.0596C116.773 76.8601 116.422 76.5757 116.188 76.2029C115.954 75.8302 115.853 75.392 115.885 74.8853H117.309C117.351 75.2482 117.53 75.5425 117.852 75.7681C118.17 75.9904 118.58 76.1048 119.074 76.1048C119.652 76.1048 120.153 75.9283 120.572 75.5719C120.991 75.2188 121.261 74.7022 121.378 74.0253L121.579 72.8581C121.277 73.1883 120.9 73.4662 120.445 73.6886C119.99 73.9109 119.499 74.0253 118.97 74.0253C118.44 74.0253 117.969 73.9076 117.559 73.6722C117.15 73.4368 116.825 73.1 116.594 72.6652C116.363 72.2303 116.246 71.7301 116.246 71.1644C116.246 70.9094 116.272 70.6544 116.321 70.3895C116.448 69.6866 116.701 69.0653 117.085 68.5259C117.468 67.9864 117.936 67.5646 118.489 67.2638C119.044 66.963 119.623 66.8126 120.227 66.8126C120.773 66.8093 121.235 66.9172 121.615 67.133ZM122.064 69.8893C122.064 69.3236 121.898 68.879 121.566 68.552C121.235 68.2283 120.822 68.0648 120.325 68.0648C119.954 68.0648 119.594 68.1564 119.243 68.3362C118.888 68.5193 118.583 68.7842 118.323 69.134C118.063 69.4839 117.891 69.9024 117.806 70.383C117.774 70.5432 117.754 70.7165 117.754 70.9029C117.754 71.4783 117.92 71.9328 118.251 72.2663C118.583 72.5998 118.996 72.7665 119.493 72.7665C119.863 72.7665 120.224 72.675 120.575 72.4886C120.926 72.3023 121.235 72.0309 121.495 71.6712C121.755 71.3116 121.927 70.8931 122.012 70.4092C122.047 70.2489 122.064 70.0757 122.064 69.8893Z" fill="white"/>
<path d="M135.219 68.6334C134.891 68.9702 134.488 69.222 134.01 69.3822C134.397 69.4508 134.716 69.647 134.969 69.9772C135.223 70.3075 135.346 70.6966 135.346 71.1445C135.346 71.2785 135.333 71.4093 135.307 71.5368C135.232 71.9848 135.047 72.387 134.751 72.7466C134.459 73.1063 134.072 73.3875 133.598 73.5967C133.123 73.8027 132.597 73.9073 132.015 73.9073H128.511L130.062 65.0957H133.403C134.202 65.0957 134.813 65.269 135.236 65.6156C135.658 65.9622 135.873 66.4101 135.873 66.9594C135.873 67.0869 135.86 67.221 135.834 67.3648C135.752 67.8716 135.548 68.2967 135.219 68.6334ZM133.923 71.0922C133.923 70.7456 133.796 70.471 133.546 70.2682C133.292 70.0655 132.957 69.9642 132.538 69.9642H130.647L130.156 72.7793H132.096C132.584 72.7793 132.987 72.6583 133.305 72.4131C133.624 72.1679 133.822 71.8246 133.897 71.3864C133.913 71.2491 133.923 71.151 133.923 71.0922ZM134.374 67.2765C134.374 66.9463 134.261 66.688 134.033 66.5016C133.806 66.3153 133.487 66.2237 133.074 66.2237H131.3L130.845 68.8361H132.623C133.094 68.8361 133.481 68.7217 133.789 68.4928C134.095 68.264 134.283 67.9468 134.352 67.5414C134.368 67.4237 134.374 67.3354 134.374 67.2765Z" fill="white"/>
<path d="M137.94 73.6552C137.495 73.41 137.147 73.0634 136.9 72.6154C136.653 72.1675 136.529 71.6574 136.529 71.082C136.529 70.2973 136.711 69.578 137.079 68.9273C137.443 68.2767 137.946 67.7601 138.59 67.3808C139.233 67.0015 139.948 66.8086 140.738 66.8086C141.326 66.8086 141.846 66.9328 142.301 67.1813C142.756 67.4298 143.111 67.7764 143.367 68.2211C143.624 68.6657 143.751 69.1791 143.751 69.7611C143.751 70.5458 143.562 71.2651 143.182 71.9157C142.805 72.5664 142.292 73.0797 141.645 73.4557C140.998 73.8317 140.28 74.0214 139.49 74.0214C138.902 74.0214 138.385 73.9004 137.94 73.6552ZM140.985 72.3931C141.385 72.1185 141.697 71.7555 141.924 71.3043C142.152 70.8531 142.266 70.3692 142.266 69.8526C142.266 69.2706 142.103 68.8194 141.775 68.5023C141.447 68.1851 141.034 68.0282 140.54 68.0282C140.052 68.0282 139.617 68.1655 139.237 68.4401C138.853 68.7148 138.557 69.081 138.343 69.542C138.128 70.003 138.021 70.4967 138.021 71.0199C138.021 71.5855 138.174 72.0269 138.483 72.3375C138.788 72.6514 139.188 72.8051 139.672 72.8051C140.147 72.8051 140.585 72.6677 140.985 72.3931Z" fill="white"/>
<path d="M145.98 73.6552C145.535 73.41 145.187 73.0634 144.94 72.6154C144.693 72.1675 144.57 71.6574 144.57 71.082C144.57 70.2973 144.752 69.578 145.119 68.9273C145.483 68.2767 145.987 67.7601 146.63 67.3808C147.274 67.0015 147.989 66.8086 148.779 66.8086C149.367 66.8086 149.887 66.9328 150.342 67.1813C150.797 67.4298 151.151 67.7764 151.408 68.2211C151.665 68.6657 151.791 69.1791 151.791 69.7611C151.791 70.5458 151.603 71.2651 151.223 71.9157C150.846 72.5664 150.332 73.0797 149.685 73.4557C149.039 73.8317 148.32 74.0214 147.531 74.0214C146.942 74.0214 146.426 73.9004 145.98 73.6552ZM149.026 72.3931C149.425 72.1185 149.737 71.7555 149.965 71.3043C150.192 70.8531 150.306 70.3692 150.306 69.8526C150.306 69.2706 150.144 68.8194 149.815 68.5023C149.487 68.1851 149.074 68.0282 148.58 68.0282C148.093 68.0282 147.657 68.1655 147.277 68.4401C146.894 68.7148 146.598 69.081 146.383 69.542C146.169 70.003 146.062 70.4967 146.062 71.0199C146.062 71.5855 146.214 72.0269 146.523 72.3375C146.829 72.6514 147.228 72.8051 147.713 72.8051C148.187 72.8051 148.626 72.6677 149.026 72.3931Z" fill="white"/>
<path d="M154.551 71.9674C154.534 72.0851 154.525 72.1603 154.525 72.1963C154.525 72.3728 154.58 72.5036 154.687 72.5821C154.798 72.6638 154.976 72.7031 155.23 72.7031H156.111L155.896 73.9063H154.762C154.206 73.9063 153.783 73.7951 153.488 73.5695C153.192 73.3472 153.046 72.9875 153.046 72.4971C153.046 72.3107 153.062 72.1342 153.098 71.9641L153.777 68.0962H152.958L153.16 66.9159H153.992L154.294 65.1797H155.743L155.441 66.9159H157.118L156.917 68.0962H155.227L154.551 71.9674Z" fill="white"/>
<path d="M158.122 68.5114C158.506 67.9654 158.98 67.5469 159.546 67.2494C160.111 66.9518 160.729 66.8047 161.392 66.8047C162.23 66.8047 162.89 67.0041 163.371 67.4063C163.849 67.8085 164.122 68.3806 164.19 69.1228H162.64C162.572 68.7763 162.416 68.5049 162.172 68.312C161.928 68.1191 161.597 68.021 161.177 68.021C160.589 68.021 160.085 68.2302 159.666 68.6488C159.247 69.0673 158.967 69.6525 158.834 70.4045C158.792 70.6759 158.772 70.895 158.772 71.065C158.772 71.6241 158.912 72.0524 159.188 72.3532C159.465 72.654 159.851 72.8044 160.349 72.8044C161.181 72.8044 161.795 72.4382 162.188 71.7026H163.738C163.41 72.4121 162.932 72.9777 162.308 73.3962C161.684 73.8147 160.956 74.024 160.134 74.024C159.26 74.024 158.568 73.7722 158.054 73.2687C157.541 72.7652 157.284 72.0818 157.284 71.2219C157.284 70.9604 157.31 70.689 157.359 70.4111C157.485 69.6885 157.739 69.0574 158.122 68.5114Z" fill="white"/>
<path d="M165.682 68.518C166.065 67.9785 166.533 67.5567 167.086 67.2559C167.642 66.9551 168.22 66.8047 168.825 66.8047C169.371 66.8047 169.829 66.9126 170.199 67.1284C170.57 67.3442 170.846 67.6123 171.031 67.9327L171.207 66.9191H172.656L171.434 73.9063H169.985L170.173 72.8666C169.871 73.1968 169.491 73.4714 169.033 73.6905C168.574 73.9096 168.077 74.0207 167.541 74.0207C167.021 74.0207 166.556 73.903 166.147 73.6676C165.737 73.4322 165.419 73.0954 165.188 72.6606C164.957 72.2257 164.84 71.7255 164.84 71.1598C164.84 70.9048 164.866 70.6498 164.915 70.3849C165.048 69.6819 165.302 69.0607 165.682 68.518ZM170.654 69.8879C170.654 69.3223 170.489 68.8776 170.157 68.5507C169.826 68.227 169.413 68.0635 168.916 68.0635C168.545 68.0635 168.184 68.155 167.833 68.3349C167.479 68.518 167.174 68.7828 166.914 69.1327C166.654 69.4825 166.481 69.901 166.397 70.3816C166.364 70.5419 166.345 70.7151 166.345 70.9015C166.345 71.477 166.511 71.9314 166.842 72.2649C167.174 72.5984 167.586 72.7652 168.084 72.7652C168.454 72.7652 168.815 72.6736 169.166 72.4873C169.517 72.3009 169.826 72.0295 170.086 71.6699C170.346 71.3102 170.518 70.8917 170.602 70.4078C170.638 70.2476 170.654 70.0743 170.654 69.8879Z" fill="white"/>
<path d="M184.73 67.403C185.166 67.8019 185.387 68.361 185.387 69.0901C185.387 69.2831 185.367 69.5185 185.325 69.7866L184.594 73.9063H183.17L183.862 70.0024C183.895 69.767 183.914 69.5969 183.914 69.4956C183.914 69.0313 183.788 68.6749 183.531 68.4297C183.274 68.1845 182.92 68.0635 182.465 68.0635C181.919 68.0635 181.457 68.2302 181.084 68.5637C180.71 68.8972 180.473 69.3779 180.372 70.0024L179.68 73.9063H178.256L178.948 70.0024C178.981 69.767 179 69.5969 179 69.4956C179 69.0313 178.874 68.6749 178.617 68.4297C178.36 68.1845 178.006 68.0635 177.551 68.0635C177.005 68.0635 176.543 68.2302 176.17 68.5637C175.796 68.8972 175.559 69.3779 175.458 70.0024V69.9631L174.766 73.9063H173.329L174.551 66.9191H175.988L175.848 67.73C176.124 67.4423 176.459 67.2167 176.849 67.0532C177.239 66.8897 177.645 66.8047 178.064 66.8047C178.62 66.8047 179.095 66.9224 179.494 67.1611C179.894 67.3998 180.174 67.7398 180.333 68.1877C180.609 67.766 180.993 67.4292 181.48 67.1807C181.968 66.9322 182.468 66.808 182.978 66.808C183.71 66.808 184.295 67.0041 184.73 67.403Z" fill="white"/>
<path d="M190.044 67.1349C190.502 66.9159 190.996 66.8047 191.526 66.8047C192.055 66.8047 192.527 66.9191 192.936 67.148C193.346 67.3769 193.667 67.7006 193.895 68.1256C194.122 68.5474 194.236 69.0444 194.236 69.61C194.236 69.8552 194.21 70.1135 194.161 70.3849C194.035 71.0879 193.781 71.7157 193.398 72.2682C193.014 72.8208 192.549 73.2524 192 73.563C191.451 73.8703 190.872 74.0273 190.268 74.0273C189.738 74.0273 189.286 73.9194 188.913 73.7036C188.539 73.4878 188.246 73.2197 188.038 72.8993L187.281 77.2348H185.845L187.645 66.9289H189.082L188.906 67.9556C189.205 67.6254 189.585 67.3573 190.044 67.1349ZM192.744 69.8618C192.744 69.2961 192.579 68.8547 192.247 68.5376C191.916 68.2204 191.496 68.0635 190.993 68.0635C190.632 68.0635 190.271 68.155 189.914 68.3414C189.556 68.5278 189.247 68.7992 188.987 69.1523C188.727 69.5087 188.555 69.9272 188.471 70.4078C188.438 70.568 188.419 70.7413 188.419 70.9277C188.419 71.4933 188.584 71.9413 188.916 72.2715C189.247 72.6017 189.66 72.7652 190.157 72.7652C190.528 72.7652 190.889 72.6704 191.246 72.4807C191.604 72.2911 191.912 72.0132 192.172 71.6503C192.432 71.2873 192.605 70.8655 192.689 70.3816C192.728 70.2214 192.744 70.0481 192.744 69.8618Z" fill="white"/>
<path d="M13.9164 43.4369V9.38059H0.56543V1.46484H36.9199V9.38059H23.5722V43.4369H13.9164Z" fill="white"/>
<path d="M67.4342 44.1568C64.0997 44.1568 60.8985 43.7056 57.8402 42.8065C54.7787 41.9073 52.3185 40.7368 50.4497 39.2982L53.7257 31.984C55.5132 33.2624 57.629 34.312 60.073 35.1327C62.517 35.9501 64.9902 36.362 67.4927 36.362C69.4005 36.362 70.941 36.1724 72.111 35.7931C73.281 35.4139 74.1455 34.8842 74.7045 34.2041C75.2602 33.524 75.5365 32.7458 75.5365 31.8663C75.5365 30.7481 75.101 29.8588 74.2267 29.1983C73.3525 28.5378 72.1987 27.9984 70.7687 27.5798C69.3387 27.1613 67.7592 26.7624 66.0302 26.3799C64.3012 26.0006 62.5722 25.5298 60.8465 24.9707C59.1207 24.4116 57.538 23.6923 56.108 22.8127C54.678 21.9332 53.5145 20.7758 52.6207 19.3339C51.727 17.8952 51.2785 16.0577 51.2785 13.818C51.2785 11.4214 51.9252 9.23075 53.2155 7.25263C54.5057 5.27451 56.4525 3.69529 59.0557 2.51496C61.659 1.33789 64.9252 0.746094 68.861 0.746094C71.4837 0.746094 74.0642 1.05671 76.609 1.67467C79.1505 2.29589 81.3962 3.22446 83.343 4.46365L80.3627 11.8399C78.416 10.7217 76.466 9.89122 74.5192 9.35173C72.5725 8.81224 70.6647 8.54086 68.7992 8.54086C66.9305 8.54086 65.403 8.7632 64.2102 9.20133C63.0175 9.64272 62.1627 10.2116 61.646 10.9113C61.1292 11.611 60.8725 12.4219 60.8725 13.3407C60.8725 14.4196 61.308 15.2894 62.1822 15.9498C63.0565 16.6103 64.2102 17.14 65.6402 17.5389C67.0702 17.9377 68.6497 18.3399 70.3787 18.7388C72.1077 19.1377 73.8367 19.5987 75.5625 20.1153C77.2915 20.6352 78.871 21.3349 80.301 22.2144C81.731 23.0939 82.8945 24.2514 83.7882 25.69C84.682 27.1286 85.1305 28.9466 85.1305 31.147C85.1305 33.5077 84.474 35.6656 83.161 37.6241C81.8512 39.5826 79.8915 41.1618 77.2915 42.3618C74.6947 43.5552 71.4057 44.1568 67.4342 44.1568Z" fill="white"/>
<path d="M112.707 26.6998L130.968 1.46484H120.835L101.163 28.0795V33.373H139.847V26.6998H112.707ZM139.847 37.4633H121.94V43.4304H139.847V37.4633Z" fill="#5831F0"/>
<path d="M175.783 44.1562C169.861 44.1562 165.233 42.4985 161.895 39.1799C158.558 35.8612 156.89 31.1268 156.89 24.9701V1.46484H166.543V24.6072C166.543 28.6027 167.359 31.4832 168.987 33.2423C170.615 35.0013 172.9 35.8808 175.841 35.8808C178.782 35.8808 181.067 35.0013 182.695 33.2423C184.324 31.4832 185.139 28.6059 185.139 24.6072V1.46484H194.675V24.9669C194.675 31.1235 193.004 35.8579 189.67 39.1766C186.332 42.4985 181.701 44.1562 175.783 44.1562Z" fill="white"/>
</g>
<defs>
<clipPath id="clip0_22_1036">
<rect width="195" height="78" fill="white"/>
</clipPath>
</defs>
</svg>
