<svg
      width="16"
      height="16"
      viewBox="0 0 16 16"
      fill="none"
      xmlns="http://www.w3.org/2000/svg"
    >
      <g clip-path="url(#clip0_139_541)">
        <path
          d="M8.26077 11.4923C8.10077 11.3946 7.89954 11.3946 7.73954 11.4923L5.10733 13.1C4.72779 13.3318 4.25719 12.9899 4.36036 12.5573L5.07597 9.5569C5.11947 9.37452 5.05728 9.18314 4.91489 9.06117L2.57321 7.05529C2.23543 6.76595 2.41522 6.21268 2.85856 6.17716L5.93237 5.9309C6.11928 5.91592 6.2821 5.79763 6.35411 5.62449L7.53849 2.7766C7.70928 2.36593 8.29103 2.36593 8.46182 2.7766L9.6462 5.62449C9.71821 5.79762 9.88103 5.91592 10.0679 5.93089L13.1422 6.17716C13.5856 6.21267 13.7654 6.766 13.4276 7.05532L11.0855 9.06117C10.943 9.18314 10.8808 9.37454 10.9243 9.55693L11.6399 12.5573C11.7431 12.9899 11.2725 13.3318 10.893 13.1L8.26077 11.4923Z"
          fill="#EF7817"
        />
      </g>
      <defs>
        <clipPath id="clip0_139_541">
          <rect width="16" height="16" rx="1" fill="white" />
        </clipPath>
      </defs>
    </svg>