<svg width="153" height="61" viewBox="0 0 153 61" fill="none" xmlns="http://www.w3.org/2000/svg">
<g clip-path="url(#clip0_102_229)">
<path d="M19.8672 45.1746H22.3866V45.9417H18.9263V38.7284H19.8647V45.1746H19.8672Z" fill="#4225EA"/>
<path d="M28.6697 44.3359H25.5332L24.9544 45.9392H23.9624L26.5634 38.7668H27.6472L30.238 45.9392H29.246L28.6697 44.3359ZM28.402 43.5714L27.1015 39.9277L25.801 43.5714H28.402Z" fill="#4225EA"/>
<path d="M38.0616 45.9418H37.1232L33.3466 40.1987V45.9418H32.4082V38.7182H33.3466L37.1232 44.451V38.7182H38.0616V45.9418Z" fill="#4225EA"/>
<path d="M44.9722 39.1682C45.5459 39.4623 45.9871 39.8816 46.293 40.4263C46.5991 40.9709 46.7521 41.6127 46.7521 42.3517C46.7521 43.0907 46.5991 43.7299 46.293 44.272C45.9871 44.8141 45.5459 45.2283 44.9722 45.5147C44.3984 45.8011 43.7176 45.9443 42.9347 45.9443H40.6958V38.731H42.9347C43.7176 38.7284 44.3959 38.8742 44.9722 39.1682ZM45.0589 44.4254C45.5485 43.9319 45.7907 43.2416 45.7907 42.3517C45.7907 41.4542 45.5459 40.7536 45.0537 40.2499C44.5616 39.7461 43.8553 39.493 42.9322 39.493H41.6317V45.1644H42.9322C43.8629 45.1644 44.5693 44.919 45.0589 44.4254Z" fill="#4225EA"/>
<path d="M57.0613 44.3359H53.9248L53.346 45.9392H52.354L54.955 38.7668H56.0388L58.6296 45.9392H57.6376L57.0613 44.3359ZM56.7936 43.5714L55.4931 39.9277L54.1926 43.5714H56.7936Z" fill="#4225EA"/>
<path d="M66.4533 45.9417H65.5149L61.7358 40.1961V45.9392H60.7974V38.7156H61.7358L65.5123 44.4485V38.7156H66.4507V45.9417H66.4533Z" fill="#4225EA"/>
<path d="M73.1621 41.7073C73.8634 41.5769 74.2153 41.2138 74.2153 40.6206C74.2153 40.3572 74.1796 39.9097 74.1133 39.2756C74.0444 38.6006 74.0113 38.1096 74.0113 37.8053C74.0113 37.3093 74.1515 36.9283 74.4295 36.6675C74.7074 36.4066 75.0823 36.2737 75.5489 36.2737H76.1482V37.0919H75.7249C75.4571 37.0919 75.2557 37.1533 75.1256 37.2735C74.9956 37.3937 74.9293 37.5931 74.9293 37.8693C74.9293 38.0687 74.942 38.3167 74.9701 38.6082C74.9981 38.9023 75.0134 39.0992 75.0211 39.204C75.0899 39.8663 75.1231 40.3496 75.1231 40.6538C75.1231 41.0195 75.0313 41.3238 74.8502 41.5692C74.6692 41.8147 74.3887 41.9784 74.0087 42.0602V42.0806C74.3861 42.1625 74.6666 42.3287 74.8502 42.5767C75.0313 42.8247 75.1231 43.1316 75.1231 43.4972C75.1231 43.8015 75.0874 44.2848 75.0211 44.9471C75.0134 45.0519 74.9981 45.2488 74.9701 45.5428C74.942 45.8369 74.9293 46.0824 74.9293 46.2818C74.9293 46.558 74.9956 46.7549 75.1256 46.8776C75.2557 46.9978 75.4546 47.0591 75.7249 47.0591H76.1482V47.8774H75.5489C75.0823 47.8774 74.7074 47.747 74.4295 47.4836C74.1515 47.2202 74.0113 46.8418 74.0113 46.3457C74.0113 46.0415 74.0444 45.5531 74.1133 44.8755C74.1821 44.2413 74.2153 43.7913 74.2153 43.5305C74.2153 42.9372 73.8634 42.5742 73.1621 42.4437V41.7073Z" fill="#4225EA"/>
<path d="M78.9609 41.7073C79.6622 41.5769 80.0141 41.2138 80.0141 40.6206C80.0141 40.3572 79.9784 39.9097 79.9095 39.2756C79.8407 38.6006 79.8075 38.1096 79.8075 37.8053C79.8075 37.3093 79.9478 36.9283 80.2257 36.6675C80.5037 36.4066 80.8785 36.2737 81.3452 36.2737H81.9444V37.0919H81.5211C81.2534 37.0919 81.0545 37.1533 80.9219 37.2735C80.7918 37.3937 80.7255 37.5931 80.7255 37.8693C80.7255 38.0687 80.7383 38.3167 80.7663 38.6082C80.7944 38.9023 80.8122 39.0992 80.8173 39.204C80.8862 39.8663 80.9193 40.3496 80.9193 40.6538C80.9193 41.0195 80.8275 41.3238 80.6465 41.5692C80.4629 41.8147 80.1824 41.9784 79.805 42.0602V42.0806C80.1824 42.1625 80.4629 42.3287 80.6465 42.5767C80.8275 42.8247 80.9193 43.1316 80.9193 43.4972C80.9193 43.8015 80.8836 44.2848 80.8173 44.9471C80.8097 45.0519 80.7918 45.2488 80.7663 45.5428C80.7383 45.8369 80.7255 46.0824 80.7255 46.2818C80.7255 46.558 80.7918 46.7549 80.9219 46.8776C81.0519 46.9978 81.2508 47.0591 81.5211 47.0591H81.9444V47.8774H81.3452C80.8785 47.8774 80.5037 47.747 80.2257 47.4836C79.9478 47.2202 79.8075 46.8418 79.8075 46.3457C79.8075 46.0415 79.8407 45.5531 79.9095 44.8755C79.9784 44.2413 80.0141 43.7913 80.0141 43.5305C80.0141 42.9372 79.6622 42.5742 78.9609 42.4437V41.7073Z" fill="#4225EA"/>
<path d="M85.4125 38.7284V45.9417H84.4741V38.7284H85.4125Z" fill="#4225EA"/>
<path d="M92.4706 38.7284V39.4955H90.5096V45.9417H89.5713V39.4955H87.6001V38.7284H92.4706Z" fill="#4225EA"/>
<path d="M102.069 38.7284V44.0572C102.069 44.6504 101.888 45.126 101.523 45.4815C101.159 45.8369 100.677 46.0133 100.078 46.0133C99.4732 46.0133 98.9861 45.8318 98.6215 45.4712C98.2568 45.1081 98.0732 44.6146 98.0732 43.9856H99.0116C99.0193 44.3385 99.1085 44.6249 99.2845 44.8448C99.4604 45.0647 99.7231 45.1746 100.075 45.1746C100.427 45.1746 100.687 45.0698 100.86 44.8601C101.031 44.6504 101.118 44.3819 101.118 44.0572V38.7284H102.069Z" fill="#4225EA"/>
<path d="M106.384 45.5429C105.833 45.2283 105.397 44.7911 105.078 44.2285C104.759 43.666 104.599 43.0344 104.599 42.3287C104.599 41.623 104.759 40.9914 105.078 40.4288C105.397 39.8663 105.833 39.429 106.384 39.1145C106.934 38.8 107.544 38.644 108.209 38.644C108.883 38.644 109.495 38.8 110.045 39.1145C110.596 39.429 111.03 39.8637 111.346 40.4237C111.662 40.9837 111.82 41.6178 111.82 42.3287C111.82 43.0395 111.662 43.6737 111.346 44.2337C111.03 44.7936 110.596 45.2283 110.045 45.5429C109.495 45.8574 108.883 46.0133 108.209 46.0133C107.541 46.0133 106.932 45.8574 106.384 45.5429ZM109.566 44.8448C109.969 44.6095 110.285 44.2746 110.515 43.8399C110.744 43.4052 110.861 42.9015 110.861 42.3287C110.861 41.7482 110.747 41.2445 110.515 40.8124C110.285 40.3803 109.969 40.0478 109.571 39.8126C109.171 39.5773 108.717 39.4597 108.209 39.4597C107.699 39.4597 107.246 39.5773 106.848 39.8126C106.447 40.0478 106.134 40.3803 105.904 40.8124C105.675 41.2445 105.557 41.7482 105.557 42.3287C105.557 42.9015 105.672 43.4052 105.904 43.8399C106.134 44.2746 106.45 44.6095 106.853 44.8448C107.256 45.08 107.707 45.1977 108.209 45.1977C108.712 45.1951 109.163 45.0775 109.566 44.8448Z" fill="#4225EA"/>
<path d="M118.412 42.546C118.629 42.7173 118.8 42.9321 118.927 43.1878C119.055 43.4435 119.118 43.7146 119.118 44.0061C119.118 44.3717 119.027 44.7016 118.84 44.9956C118.654 45.2897 118.384 45.5198 118.029 45.6886C117.675 45.8573 117.257 45.9417 116.775 45.9417H114.092V38.7284H116.673C117.162 38.7284 117.578 38.8102 117.922 38.9713C118.267 39.1324 118.524 39.3523 118.698 39.6285C118.871 39.9046 118.955 40.214 118.955 40.5592C118.955 40.9862 118.84 41.3417 118.608 41.6204C118.379 41.8991 118.073 42.1011 117.695 42.2264C117.956 42.2673 118.195 42.3747 118.412 42.546ZM115.031 41.8428H116.609C117.05 41.8428 117.389 41.7405 117.632 41.5334C117.871 41.3263 117.994 41.0399 117.994 40.6743C117.994 40.3086 117.874 40.0222 117.632 39.8151C117.389 39.608 117.043 39.5057 116.589 39.5057H115.031V41.8428ZM117.787 44.832C118.05 44.6121 118.18 44.3052 118.18 43.9114C118.18 43.5126 118.042 43.1955 117.767 42.9654C117.491 42.7352 117.124 42.6176 116.663 42.6176H115.033V45.1644H116.696C117.16 45.1644 117.525 45.0544 117.787 44.832Z" fill="#4225EA"/>
<path d="M121.75 45.8164C121.625 45.6911 121.564 45.5403 121.564 45.3613C121.564 45.1823 121.625 45.0314 121.75 44.9061C121.875 44.7808 122.026 44.7195 122.204 44.7195C122.375 44.7195 122.523 44.7808 122.643 44.9061C122.762 45.0314 122.824 45.1823 122.824 45.3613C122.824 45.5403 122.762 45.6911 122.643 45.8164C122.523 45.9417 122.375 46.0031 122.204 46.0031C122.026 46.0031 121.875 45.9417 121.75 45.8164ZM122.668 38.7284L122.553 43.9038H121.768L121.653 38.7284H122.668Z" fill="#4225EA"/>
<path d="M127.396 43.5305C127.396 43.7938 127.429 44.2413 127.5 44.8755C127.569 45.5505 127.602 46.0415 127.602 46.3457C127.602 46.8418 127.462 47.2228 127.184 47.4836C126.906 47.7444 126.531 47.8774 126.065 47.8774H125.465V47.0591H125.889C126.156 47.0591 126.355 46.9978 126.488 46.8776C126.618 46.7574 126.684 46.558 126.684 46.2818C126.684 46.0824 126.671 45.8343 126.643 45.5428C126.615 45.2488 126.598 45.0519 126.592 44.9471C126.524 44.2848 126.488 43.8015 126.488 43.4972C126.488 43.1316 126.58 42.8247 126.761 42.5767C126.942 42.3287 127.222 42.1625 127.602 42.0806V42.0602C127.225 41.9784 126.944 41.8147 126.761 41.5692C126.577 41.3238 126.488 41.0195 126.488 40.6538C126.488 40.3496 126.521 39.8663 126.592 39.204C126.6 39.0992 126.615 38.9023 126.643 38.6082C126.671 38.3142 126.684 38.0687 126.684 37.8693C126.684 37.5931 126.618 37.3937 126.488 37.2735C126.358 37.1533 126.159 37.0919 125.889 37.0919H125.465V36.2737H126.065C126.531 36.2737 126.906 36.4041 127.184 36.6675C127.462 36.9308 127.602 37.3093 127.602 37.8053C127.602 38.1096 127.569 38.598 127.5 39.2756C127.431 39.9097 127.396 40.3598 127.396 40.6206C127.396 41.2138 127.748 41.5769 128.449 41.7073V42.4412C127.745 42.5741 127.396 42.9372 127.396 43.5305Z" fill="#4225EA"/>
<path d="M133.195 43.5305C133.195 43.7938 133.228 44.2413 133.299 44.8755C133.368 45.5505 133.401 46.0415 133.401 46.3457C133.401 46.8418 133.261 47.2228 132.983 47.4836C132.705 47.7444 132.33 47.8774 131.863 47.8774H131.264V47.0591H131.687C131.955 47.0591 132.154 46.9978 132.287 46.8776C132.417 46.7574 132.483 46.558 132.483 46.2818C132.483 46.0824 132.47 45.8343 132.442 45.5428C132.414 45.2488 132.396 45.0519 132.391 44.9471C132.322 44.2848 132.287 43.8015 132.287 43.4972C132.287 43.1316 132.379 42.8247 132.56 42.5767C132.741 42.3287 133.021 42.1625 133.401 42.0806V42.0602C133.024 41.9784 132.743 41.8147 132.56 41.5692C132.376 41.3238 132.287 41.0195 132.287 40.6538C132.287 40.3496 132.32 39.8663 132.391 39.204C132.399 39.0992 132.414 38.9023 132.442 38.6082C132.47 38.3142 132.483 38.0687 132.483 37.8693C132.483 37.5931 132.417 37.3937 132.287 37.2735C132.157 37.1533 131.958 37.0919 131.687 37.0919H131.264V36.2737H131.863C132.33 36.2737 132.705 36.4041 132.983 36.6675C133.261 36.9308 133.401 37.3093 133.401 37.8053C133.401 38.1096 133.368 38.598 133.299 39.2756C133.23 39.9097 133.195 40.3598 133.195 40.6206C133.195 41.2138 133.546 41.5769 134.248 41.7073V42.4412C133.546 42.5741 133.195 42.9372 133.195 43.5305Z" fill="#4225EA"/>
<path d="M5.63043 50.9075L5.47233 51.7896H3.64398L2.58573 57.7986H1.45608L2.51433 51.7896H0.675781L0.833881 50.9075H5.63043Z" fill="#062539"/>
<path d="M6.90558 57.6657C6.56898 57.5301 6.30123 57.3332 6.10488 57.0699C5.90598 56.8091 5.80908 56.4997 5.80908 56.1417C5.80908 56.0957 5.81673 56.0138 5.82948 55.8936H6.94638C6.92088 56.1979 7.01013 56.4511 7.21413 56.6531C7.41813 56.8551 7.71138 56.9548 8.09388 56.9548C8.50188 56.9548 8.82318 56.8704 9.05268 56.7017C9.28218 56.5329 9.39948 56.29 9.39948 55.9729C9.39948 55.7811 9.34083 55.6175 9.22608 55.482C9.11133 55.3464 8.96598 55.2314 8.79003 55.1393C8.61408 55.0473 8.37183 54.9373 8.06328 54.812C7.65528 54.6407 7.32888 54.4847 7.08408 54.3467C6.83928 54.2086 6.63018 54.0168 6.45678 53.7713C6.28083 53.5259 6.19413 53.219 6.19413 52.8483C6.19413 52.4391 6.29868 52.0812 6.51033 51.7718C6.72198 51.4649 7.01268 51.2271 7.38498 51.0635C7.75728 50.8973 8.17803 50.8154 8.64468 50.8154C9.11133 50.8154 9.51678 50.8921 9.85593 51.0481C10.1951 51.2041 10.4526 51.4214 10.626 51.7027C10.7994 51.984 10.8785 52.3113 10.8581 52.6897H9.67233C9.69783 52.4187 9.61623 52.1911 9.42498 52.0096C9.23373 51.828 8.95578 51.736 8.59368 51.736C8.21118 51.736 7.90773 51.8229 7.67823 51.9993C7.45128 52.1758 7.33653 52.411 7.33653 52.7076C7.33653 52.8917 7.39518 53.0528 7.50993 53.1883C7.62468 53.3239 7.77258 53.4389 7.95108 53.5361C8.12958 53.6333 8.36928 53.7458 8.67273 53.8787C9.08073 54.0628 9.40968 54.229 9.65703 54.3748C9.90438 54.5205 10.116 54.7174 10.2945 54.9655C10.473 55.2135 10.5623 55.5203 10.5623 55.8834C10.5623 56.267 10.4577 56.6096 10.2461 56.9088C10.0344 57.2105 9.73863 57.4432 9.35613 57.612C8.97363 57.7807 8.53503 57.8651 8.04033 57.8651C7.61958 57.8677 7.24218 57.8012 6.90558 57.6657Z" fill="#062539"/>
<path d="M11.4521 56.2925L11.6 55.441L15.7616 50.662H17.1259L16.315 55.3132H17.2355L17.057 56.2951H16.1365L15.8687 57.8012H14.7646L15.0323 56.2951H11.4521V56.2925ZM15.8738 51.8101L12.9286 55.3106H15.2618L15.8738 51.8101Z" fill="#062539"/>
<path d="M20.2035 50.9075L19.4334 55.2799C19.4079 55.4129 19.3951 55.5484 19.3951 55.6865C19.3951 56.0777 19.5099 56.3692 19.7368 56.5636C19.9638 56.7579 20.2902 56.8551 20.7109 56.8551C21.2056 56.8551 21.6111 56.7221 21.9324 56.4587C22.2511 56.1954 22.4577 55.8016 22.5495 55.2799L23.3196 50.9075H24.4467L23.6766 55.2799C23.5771 55.8425 23.3706 56.3181 23.0595 56.7068C22.7458 57.098 22.3684 57.3869 21.9273 57.5787C21.4861 57.7705 21.0169 57.8651 20.5222 57.8651C19.849 57.8651 19.3033 57.6938 18.8851 57.3486C18.4669 57.0059 18.2578 56.5048 18.2578 55.8527C18.2578 55.6354 18.2731 55.4436 18.3063 55.2774L19.0764 50.9049H20.2035V50.9075Z" fill="#062539"/>
<path d="M30.0007 50.9075L28.7843 57.7986H27.6572L28.8736 50.9075H30.0007Z" fill="#062539"/>
<path d="M35.9243 50.9075L35.7662 51.7896H33.9378L32.8796 57.7986H31.7525L32.8107 51.7896H30.9722L31.1303 50.9075H35.9243Z" fill="#062539"/>
<path d="M40.9964 51.7794L40.6317 53.8711H43.0058L42.8579 54.743H40.4838L40.0988 56.9139H42.7686L42.6105 57.7961H38.811L40.0274 50.8947H43.8243L43.6662 51.7769H40.9964V51.7794Z" fill="#062539"/>
<path d="M49.0901 52.7076C49.4293 53.0145 49.6001 53.4568 49.6001 54.0322C49.6001 54.1779 49.5848 54.3595 49.5517 54.5768L48.9779 57.7986H47.861L48.4042 54.7456C48.4297 54.5615 48.4424 54.4285 48.4424 54.3492C48.4424 53.9861 48.343 53.7074 48.1415 53.5156C47.9401 53.3239 47.6621 53.2293 47.3051 53.2293C46.8767 53.2293 46.5146 53.3597 46.2214 53.6205C45.9281 53.8813 45.742 54.2572 45.6629 54.7456V54.7149L45.1198 57.7986H43.9927L44.9515 52.3343H46.0786L45.9689 52.9684C46.1933 52.7434 46.4585 52.567 46.7645 52.4391C47.0705 52.3113 47.3893 52.2448 47.7182 52.2448C48.2945 52.2474 48.751 52.4008 49.0901 52.7076Z" fill="#062539"/>
<path d="M54.6667 52.5005C54.9676 52.6693 55.1818 52.879 55.3144 53.1295L55.4521 52.3369H56.5894L55.6204 57.8881C55.5286 58.3893 55.3425 58.8393 55.0671 59.2306C54.7891 59.6243 54.4296 59.9337 53.9884 60.1588C53.5473 60.3838 53.05 60.4963 52.4967 60.4963C52.0147 60.4963 51.594 60.4196 51.2319 60.2636C50.8698 60.1076 50.5944 59.8852 50.4108 59.5937C50.2272 59.3022 50.1481 58.9595 50.1736 58.5632H51.2905C51.3237 58.847 51.4639 59.0771 51.7164 59.2536C51.9663 59.4275 52.2876 59.517 52.6752 59.517C53.1291 59.517 53.5218 59.3789 53.8507 59.1002C54.1797 58.824 54.3913 58.42 54.4831 57.8907L54.6412 56.9778C54.4041 57.2361 54.1083 57.4534 53.7513 57.6273C53.3943 57.8012 53.0092 57.8907 52.5936 57.8907C52.1779 57.8907 51.8082 57.7986 51.4869 57.6145C51.1656 57.4304 50.9106 57.1671 50.7295 56.827C50.5485 56.4869 50.4567 56.0957 50.4567 55.6533C50.4567 55.4539 50.4771 55.2544 50.5153 55.0473C50.6148 54.4975 50.8137 54.0117 51.1146 53.5898C51.4155 53.1679 51.7827 52.838 52.2162 52.6028C52.6522 52.3676 53.1061 52.2499 53.5804 52.2499C54.0037 52.2474 54.3658 52.3318 54.6667 52.5005ZM55.0161 54.6561C55.0161 54.2137 54.886 53.866 54.6259 53.6103C54.3658 53.3571 54.042 53.2293 53.6518 53.2293C53.3611 53.2293 53.0781 53.3009 52.8027 53.4415C52.5247 53.5847 52.285 53.7918 52.081 54.0654C51.877 54.339 51.7419 54.6663 51.6756 55.0422C51.6501 55.1675 51.6348 55.303 51.6348 55.4488C51.6348 55.8988 51.7648 56.2542 52.0249 56.515C52.285 56.7758 52.6089 56.9062 52.999 56.9062C53.2897 56.9062 53.5728 56.8347 53.8482 56.6889C54.1261 56.5432 54.3658 56.3309 54.5698 56.0496C54.7738 55.7684 54.909 55.4411 54.9753 55.0626C55.0033 54.9374 55.0161 54.8018 55.0161 54.6561Z" fill="#062539"/>
<path d="M59.1982 52.3368L58.2394 57.8012H57.1123L58.0711 52.3368H59.1982ZM58.3389 51.4445C58.2267 51.3319 58.1706 51.1888 58.1706 51.0174C58.1706 50.7873 58.2573 50.5853 58.4332 50.4165C58.6066 50.2478 58.8081 50.1634 59.0325 50.1634C59.211 50.1634 59.3538 50.2196 59.4634 50.3322C59.5731 50.4447 59.6266 50.5879 59.6266 50.7592C59.6266 50.9919 59.5399 51.1913 59.3691 51.3601C59.1982 51.5288 58.9993 51.6132 58.7749 51.6132C58.5964 51.6132 58.4511 51.557 58.3389 51.4445Z" fill="#062539"/>
<path d="M64.8211 52.7076C65.1602 53.0145 65.3311 53.4568 65.3311 54.0322C65.3311 54.1779 65.3158 54.3595 65.2826 54.5768L64.7089 57.7986H63.592L64.1351 54.7456C64.1606 54.5615 64.1734 54.4285 64.1734 54.3492C64.1734 53.9861 64.0739 53.7074 63.8725 53.5156C63.671 53.3239 63.3931 53.2293 63.0361 53.2293C62.6077 53.2293 62.2456 53.3597 61.9523 53.6205C61.6591 53.8813 61.4729 54.2572 61.3939 54.7456V54.7149L60.8507 57.7986H59.7236L60.6824 52.3343H61.8095L61.6999 52.9684C61.9243 52.7434 62.1895 52.567 62.4955 52.4391C62.8015 52.3113 63.1202 52.2448 63.4492 52.2448C64.0255 52.2474 64.4819 52.4008 64.8211 52.7076Z" fill="#062539"/>
<path d="M71.089 52.8227C71.4944 53.2062 71.6959 53.7228 71.6959 54.3697C71.6959 54.5205 71.6806 54.7047 71.6474 54.9143C71.6219 55.0601 71.576 55.2391 71.5097 55.4487H67.3456C67.3379 55.4948 67.3354 55.5638 67.3354 55.6559C67.3354 56.0471 67.4552 56.3565 67.6975 56.5866C67.9372 56.8193 68.2534 56.9344 68.641 56.9344C69.253 56.9344 69.7247 56.6787 70.0537 56.1698H71.27C71.0201 56.671 70.6504 57.0827 70.1633 57.4049C69.6763 57.7245 69.1127 57.8856 68.4727 57.8856C68.0188 57.8856 67.6184 57.7961 67.2767 57.6171C66.935 57.4381 66.6673 57.1824 66.476 56.85C66.2848 56.5176 66.1904 56.1238 66.1904 55.6763C66.1904 55.4845 66.2108 55.28 66.2491 55.0626C66.3485 54.5001 66.55 54.0066 66.8534 53.5796C67.1569 53.1525 67.5343 52.8252 67.9856 52.5926C68.437 52.3599 68.9291 52.2448 69.4646 52.2448C70.1404 52.2474 70.6835 52.4391 71.089 52.8227ZM70.5407 54.3774C70.5407 54.0143 70.4209 53.7253 70.1786 53.5156C69.9389 53.3034 69.6253 53.1986 69.2453 53.1986C68.8424 53.1986 68.4803 53.3264 68.1565 53.5847C67.8326 53.8429 67.6133 54.1933 67.4935 54.6356H70.5203C70.5331 54.518 70.5407 54.4311 70.5407 54.3774Z" fill="#062539"/>
<path d="M77.1885 52.8227C77.5939 53.2062 77.7954 53.7228 77.7954 54.3697C77.7954 54.5205 77.7801 54.7047 77.7469 54.9143C77.7214 55.0601 77.673 55.2391 77.6092 55.4487H73.4476C73.44 55.4948 73.4374 55.5638 73.4374 55.6559C73.4374 56.0471 73.5573 56.3565 73.7995 56.5866C74.0392 56.8193 74.3554 56.9344 74.743 56.9344C75.355 56.9344 75.8268 56.6787 76.1557 56.1698H77.3721C77.1222 56.671 76.7524 57.0827 76.2654 57.4049C75.7783 57.7245 75.2148 57.8856 74.5747 57.8856C74.1208 57.8856 73.7205 57.7961 73.3788 57.6171C73.0371 57.4381 72.7693 57.1824 72.5781 56.85C72.3868 56.5176 72.2925 56.1238 72.2925 55.6763C72.2925 55.4845 72.3129 55.28 72.3511 55.0626C72.4506 54.5001 72.652 54.0066 72.9555 53.5796C73.2589 53.1525 73.6363 52.8252 74.0877 52.5926C74.539 52.3599 75.0312 52.2448 75.5667 52.2448C76.2424 52.2474 76.783 52.4391 77.1885 52.8227ZM76.6402 54.3774C76.6402 54.0143 76.5204 53.7253 76.2807 53.5156C76.041 53.3034 75.7273 53.1986 75.3474 53.1986C74.9445 53.1986 74.5824 53.3264 74.2585 53.5847C73.9347 53.8429 73.7154 54.1933 73.5955 54.6356H76.6224C76.6351 54.518 76.6402 54.4311 76.6402 54.3774Z" fill="#062539"/>
<path d="M81.0545 52.5235C81.3605 52.3394 81.7022 52.2448 82.0771 52.2448L81.8705 53.4159H81.5849C81.1489 53.4159 80.7995 53.5259 80.5369 53.7432C80.2742 53.9606 80.0881 54.339 79.9835 54.8734L79.4684 57.7986H78.3413L79.3001 52.3343H80.4272L80.2589 53.2957C80.4833 52.9659 80.7485 52.7102 81.0545 52.5235Z" fill="#062539"/>
<path d="M84.2241 52.3368L83.2653 57.8012H82.1382L83.097 52.3368H84.2241ZM83.3647 51.4445C83.2525 51.3319 83.1964 51.1888 83.1964 51.0174C83.1964 50.7873 83.2831 50.5853 83.4591 50.4165C83.6325 50.2478 83.8339 50.1634 84.0583 50.1634C84.2368 50.1634 84.3796 50.2196 84.4893 50.3322C84.5989 50.4447 84.6525 50.5879 84.6525 50.7592C84.6525 50.9919 84.5658 51.1913 84.3949 51.3601C84.2241 51.5288 84.0252 51.6132 83.8008 51.6132C83.6223 51.6132 83.4769 51.557 83.3647 51.4445Z" fill="#062539"/>
<path d="M89.8444 52.7076C90.1836 53.0145 90.3544 53.4568 90.3544 54.0322C90.3544 54.1779 90.3391 54.3595 90.306 54.5768L89.7322 57.7986H88.6153L89.1585 54.7456C89.184 54.5615 89.1993 54.4285 89.1993 54.3492C89.1993 53.9861 89.0998 53.7074 88.8984 53.5156C88.6969 53.3239 88.419 53.2293 88.062 53.2293C87.6336 53.2293 87.2715 53.3597 86.9782 53.6205C86.685 53.8813 86.4988 54.2572 86.4198 54.7456V54.7149L85.8766 57.7986H84.7495L85.7083 52.3343H86.8354L86.7258 52.9684C86.9502 52.7434 87.2154 52.567 87.5214 52.4391C87.8274 52.3113 88.1461 52.2448 88.4751 52.2448C89.0488 52.2474 89.5053 52.4008 89.8444 52.7076Z" fill="#062539"/>
<path d="M95.4212 52.5005C95.7221 52.6693 95.9363 52.879 96.0689 53.1295L96.2066 52.3369H97.3439L96.3749 57.8881C96.2831 58.3893 96.097 58.8393 95.8216 59.2306C95.5436 59.6243 95.1841 59.9337 94.7429 60.1588C94.3018 60.3838 93.8045 60.4963 93.2486 60.4963C92.7667 60.4963 92.3459 60.4196 91.9838 60.2636C91.6217 60.1076 91.3463 59.8852 91.1627 59.5937C90.9791 59.3022 90.9001 58.9595 90.9256 58.5632H92.0425C92.0756 58.847 92.2159 59.0771 92.4683 59.2536C92.7182 59.4275 93.0395 59.517 93.4271 59.517C93.881 59.517 94.2737 59.3789 94.6027 59.1002C94.9316 58.824 95.1433 58.42 95.2351 57.8907L95.3932 56.9778C95.156 57.2361 94.8602 57.4534 94.5032 57.6273C94.1462 57.8012 93.7612 57.8907 93.3455 57.8907C92.9299 57.8907 92.5601 57.7986 92.2388 57.6145C91.9175 57.4304 91.6625 57.1671 91.4815 56.827C91.3004 56.4869 91.2086 56.0957 91.2086 55.6533C91.2086 55.4539 91.229 55.2544 91.2673 55.0473C91.3667 54.4975 91.5656 54.0117 91.8665 53.5898C92.1674 53.1679 92.5346 52.838 92.9681 52.6028C93.4042 52.3676 93.8581 52.2499 94.3324 52.2499C94.7608 52.2474 95.1229 52.3318 95.4212 52.5005ZM95.7731 54.6561C95.7731 54.2137 95.6431 53.866 95.383 53.6103C95.1229 53.3571 94.799 53.2293 94.4089 53.2293C94.1182 53.2293 93.8351 53.3009 93.5597 53.4415C93.2818 53.5847 93.0421 53.7918 92.8381 54.0654C92.6341 54.339 92.4989 54.6663 92.4326 55.0422C92.4071 55.1675 92.3918 55.303 92.3918 55.4488C92.3918 55.8988 92.5219 56.2542 92.782 56.515C93.0421 56.7758 93.3659 56.9062 93.7561 56.9062C94.0468 56.9062 94.3298 56.8347 94.6052 56.6889C94.8806 56.5432 95.1229 56.3309 95.3269 56.0496C95.5309 55.7684 95.666 55.4411 95.7323 55.0626C95.7604 54.9374 95.7731 54.8018 95.7731 54.6561Z" fill="#062539"/>
<path d="M106.095 53.6742C105.838 53.9375 105.521 54.1344 105.147 54.2597C105.45 54.3134 105.7 54.4668 105.899 54.7251C106.098 54.9833 106.195 55.2876 106.195 55.6379C106.195 55.7428 106.184 55.8451 106.164 55.9448C106.105 56.2951 105.96 56.6096 105.728 56.8909C105.499 57.1721 105.195 57.392 104.823 57.5557C104.45 57.7168 104.037 57.7986 103.581 57.7986H100.832L102.048 50.9075H104.67C105.297 50.9075 105.776 51.043 106.108 51.314C106.439 51.5851 106.608 51.9354 106.608 52.365C106.608 52.4647 106.598 52.5695 106.577 52.682C106.513 53.0784 106.353 53.4108 106.095 53.6742ZM105.078 55.597C105.078 55.326 104.978 55.1112 104.782 54.9527C104.583 54.7941 104.32 54.7149 103.991 54.7149H102.507L102.122 56.9164H103.645C104.027 56.9164 104.343 56.8218 104.593 56.6301C104.843 56.4383 104.999 56.1698 105.057 55.8272C105.07 55.7198 105.078 55.643 105.078 55.597ZM105.432 52.613C105.432 52.3547 105.343 52.1527 105.164 52.007C104.986 51.8612 104.736 51.7896 104.412 51.7896H103.02L102.663 53.8327H104.058C104.428 53.8327 104.731 53.7432 104.973 53.5642C105.213 53.3852 105.361 53.1372 105.414 52.8201C105.427 52.7281 105.432 52.659 105.432 52.613Z" fill="#062539"/>
<path d="M108.23 57.6018C107.88 57.41 107.608 57.1389 107.414 56.7886C107.22 56.4383 107.123 56.0394 107.123 55.5894C107.123 54.9757 107.266 54.4132 107.554 53.9043C107.84 53.3955 108.235 52.9915 108.74 52.6949C109.245 52.3982 109.806 52.2474 110.425 52.2474C110.887 52.2474 111.295 52.3445 111.652 52.5389C112.009 52.7332 112.287 53.0042 112.488 53.352C112.69 53.6998 112.789 54.1012 112.789 54.5564C112.789 55.17 112.641 55.7326 112.343 56.2414C112.047 56.7503 111.644 57.1517 111.137 57.4458C110.629 57.7398 110.066 57.8881 109.446 57.8881C108.985 57.8881 108.579 57.7935 108.23 57.6018ZM110.619 56.6147C110.933 56.4 111.178 56.1161 111.356 55.7633C111.535 55.4104 111.624 55.032 111.624 54.628C111.624 54.1728 111.496 53.8199 111.239 53.5719C110.981 53.3239 110.657 53.2011 110.27 53.2011C109.887 53.2011 109.546 53.3085 109.247 53.5233C108.946 53.7381 108.714 54.0245 108.546 54.385C108.378 54.7456 108.293 55.1317 108.293 55.5408C108.293 55.9832 108.413 56.3284 108.656 56.5713C108.895 56.8168 109.209 56.9369 109.589 56.9369C109.961 56.9369 110.305 56.8295 110.619 56.6147Z" fill="#062539"/>
<path d="M114.538 57.6018C114.189 57.41 113.916 57.1389 113.722 56.7886C113.529 56.4383 113.432 56.0394 113.432 55.5894C113.432 54.9757 113.574 54.4132 113.863 53.9043C114.148 53.3955 114.543 52.9915 115.048 52.6949C115.553 52.3982 116.114 52.2474 116.734 52.2474C117.195 52.2474 117.603 52.3445 117.96 52.5389C118.317 52.7332 118.595 53.0042 118.797 53.352C118.998 53.6998 119.098 54.1012 119.098 54.5564C119.098 55.17 118.95 55.7326 118.651 56.2414C118.356 56.7503 117.953 57.1517 117.445 57.4458C116.938 57.7398 116.374 57.8881 115.755 57.8881C115.293 57.8881 114.888 57.7935 114.538 57.6018ZM116.928 56.6147C117.241 56.4 117.486 56.1161 117.665 55.7633C117.843 55.4104 117.932 55.032 117.932 54.628C117.932 54.1728 117.805 53.8199 117.547 53.5719C117.29 53.3239 116.966 53.2011 116.578 53.2011C116.196 53.2011 115.854 53.3085 115.556 53.5233C115.255 53.7381 115.023 54.0245 114.855 54.385C114.686 54.7456 114.602 55.1317 114.602 55.5408C114.602 55.9832 114.722 56.3284 114.964 56.5713C115.204 56.8168 115.518 56.9369 115.897 56.9369C116.27 56.9369 116.614 56.8295 116.928 56.6147Z" fill="#062539"/>
<path d="M121.263 56.2823C121.25 56.3744 121.242 56.4332 121.242 56.4613C121.242 56.5994 121.286 56.7017 121.37 56.7631C121.456 56.827 121.597 56.8577 121.796 56.8577H122.487L122.318 57.7987H121.428C120.992 57.7987 120.661 57.7117 120.429 57.5353C120.197 57.3614 120.082 57.0801 120.082 56.6966C120.082 56.5508 120.095 56.4128 120.123 56.2798L120.656 53.2549H120.013L120.171 52.3318H120.824L121.061 50.974H122.199L121.961 52.3318H123.277L123.119 53.2549H121.793L121.263 56.2823Z" fill="#062539"/>
<path d="M124.065 53.5796C124.366 53.1525 124.738 52.8252 125.182 52.5926C125.626 52.3599 126.11 52.2448 126.63 52.2448C127.288 52.2448 127.806 52.4008 128.183 52.7153C128.558 53.0298 128.772 53.4773 128.826 54.0577H127.61C127.556 53.7867 127.434 53.5745 127.242 53.4236C127.051 53.2727 126.791 53.196 126.462 53.196C126.001 53.196 125.605 53.3597 125.276 53.687C124.947 54.0143 124.728 54.472 124.624 55.0601C124.59 55.2723 124.575 55.4436 124.575 55.5766C124.575 56.0138 124.685 56.3488 124.902 56.5841C125.118 56.8193 125.422 56.9369 125.812 56.9369C126.465 56.9369 126.947 56.6505 127.255 56.0752H128.472C128.214 56.6301 127.839 57.0724 127.35 57.3997C126.86 57.727 126.289 57.8907 125.644 57.8907C124.958 57.8907 124.414 57.6938 124.012 57.3C123.609 56.9062 123.407 56.3718 123.407 55.6993C123.407 55.4948 123.428 55.2825 123.466 55.0652C123.565 54.5001 123.764 54.0066 124.065 53.5796Z" fill="#062539"/>
<path d="M129.996 53.5847C130.297 53.1628 130.664 52.8329 131.098 52.5977C131.534 52.3624 131.988 52.2448 132.462 52.2448C132.891 52.2448 133.25 52.3292 133.541 52.498C133.832 52.6667 134.048 52.8764 134.194 53.127L134.331 52.3343H135.469L134.51 57.7986H133.373L133.52 56.9855C133.283 57.2438 132.985 57.4586 132.625 57.6299C132.266 57.8012 131.876 57.8881 131.455 57.8881C131.047 57.8881 130.682 57.7961 130.361 57.612C130.04 57.4279 129.79 57.1645 129.609 56.8244C129.428 56.4843 129.336 56.0931 129.336 55.6507C129.336 55.4513 129.356 55.2519 129.395 55.0447C129.499 54.495 129.698 54.0091 129.996 53.5847ZM133.898 54.6561C133.898 54.2137 133.768 53.866 133.508 53.6103C133.248 53.3571 132.924 53.2293 132.534 53.2293C132.243 53.2293 131.96 53.3009 131.684 53.4415C131.407 53.5847 131.167 53.7918 130.963 54.0654C130.759 54.339 130.624 54.6663 130.557 55.0422C130.532 55.1675 130.517 55.303 130.517 55.4487C130.517 55.8988 130.647 56.2542 130.907 56.515C131.167 56.7758 131.491 56.9062 131.881 56.9062C132.172 56.9062 132.455 56.8346 132.73 56.6889C133.005 56.5431 133.248 56.3309 133.452 56.0496C133.656 55.7684 133.791 55.4411 133.857 55.0626C133.885 54.9373 133.898 54.8018 133.898 54.6561Z" fill="#062539"/>
<path d="M144.942 52.7127C145.284 53.0247 145.457 53.4619 145.457 54.0322C145.457 54.183 145.442 54.3671 145.409 54.5768L144.835 57.7986H143.718L144.261 54.7456C144.287 54.5615 144.302 54.4285 144.302 54.3492C144.302 53.9861 144.202 53.7074 144.001 53.5156C143.8 53.3239 143.522 53.2293 143.165 53.2293C142.736 53.2293 142.374 53.3597 142.081 53.6205C141.788 53.8813 141.601 54.2572 141.522 54.7456L140.979 57.7986H139.862L140.406 54.7456C140.431 54.5615 140.446 54.4285 140.446 54.3492C140.446 53.9861 140.347 53.7074 140.145 53.5156C139.944 53.3239 139.666 53.2293 139.309 53.2293C138.881 53.2293 138.519 53.3597 138.225 53.6205C137.932 53.8813 137.746 54.2572 137.667 54.7456V54.7149L137.124 57.7986H135.997L136.955 52.3343H138.082L137.973 52.9684C138.19 52.7434 138.452 52.567 138.758 52.4391C139.064 52.3113 139.383 52.2448 139.712 52.2448C140.148 52.2448 140.52 52.3369 140.834 52.5235C141.148 52.7102 141.367 52.9761 141.492 53.3264C141.709 52.9966 142.009 52.7332 142.392 52.5389C142.774 52.3445 143.167 52.2474 143.568 52.2474C144.141 52.2474 144.6 52.4008 144.942 52.7127Z" fill="#062539"/>
<path d="M149.111 52.5031C149.471 52.3317 149.859 52.2448 150.274 52.2448C150.69 52.2448 151.06 52.3343 151.381 52.5133C151.702 52.6923 151.955 52.9454 152.133 53.2778C152.312 53.6077 152.401 53.9964 152.401 54.4387C152.401 54.6305 152.381 54.8325 152.342 55.0447C152.243 55.5945 152.044 56.0854 151.743 56.5176C151.442 56.9497 151.078 57.2872 150.647 57.5301C150.216 57.7705 149.762 57.8932 149.287 57.8932C148.872 57.8932 148.517 57.8089 148.224 57.6401C147.931 57.4713 147.701 57.2617 147.538 57.0111L146.944 60.4017H145.817L147.23 52.342H148.357L148.219 53.1449C148.454 52.8866 148.752 52.6769 149.111 52.5031ZM151.231 54.6356C151.231 54.1933 151.1 53.8481 150.84 53.6C150.58 53.352 150.251 53.2293 149.856 53.2293C149.573 53.2293 149.29 53.3009 149.009 53.4466C148.729 53.5924 148.487 53.8046 148.283 54.0807C148.079 54.3595 147.944 54.6868 147.877 55.0626C147.852 55.1879 147.836 55.3234 147.836 55.4692C147.836 55.9116 147.967 56.2619 148.227 56.5201C148.487 56.7784 148.811 56.9062 149.201 56.9062C149.491 56.9062 149.774 56.8321 150.055 56.6838C150.335 56.5355 150.578 56.3181 150.782 56.0343C150.986 55.7505 151.121 55.4206 151.187 55.0422C151.218 54.9169 151.231 54.7814 151.231 54.6356Z" fill="#062539"/>
<path d="M10.9192 33.9698V7.33603H0.443848V1.14551H28.9682V7.33603H18.4953V33.9698H10.9192Z" fill="#062539"/>
<path d="M52.9103 34.5324C50.294 34.5324 47.7822 34.1795 45.3827 33.4764C42.9806 32.7732 41.0502 31.8578 39.584 30.7327L42.1544 25.0127C43.5569 26.0125 45.2169 26.8333 47.1345 27.4751C49.0521 28.1143 50.9927 28.4365 52.9562 28.4365C54.453 28.4365 55.6617 28.2882 56.5797 27.9916C57.4977 27.695 58.176 27.2807 58.6146 26.7489C59.0507 26.217 59.2674 25.6085 59.2674 24.9206C59.2674 24.0461 58.9257 23.3506 58.2398 22.8341C57.5538 22.3176 56.6486 21.8957 55.5266 21.5684C54.4046 21.2411 53.1653 20.9291 51.8087 20.63C50.4521 20.3333 49.0955 19.9651 47.7414 19.5279C46.3874 19.0906 45.1455 18.5281 44.0235 17.8403C42.9015 17.1524 41.9886 16.2472 41.2874 15.1196C40.5861 13.9945 40.2342 12.5575 40.2342 10.8059C40.2342 8.93164 40.7417 7.21845 41.754 5.67146C42.7664 4.12446 44.2938 2.88943 46.3364 1.96635C48.3789 1.04583 50.9417 0.583008 54.0297 0.583008C56.0876 0.583008 58.1123 0.825924 60.1089 1.3092C62.103 1.79503 63.8651 2.52122 65.3925 3.49033L63.0542 9.25894C61.5267 8.38444 59.9967 7.73496 58.4693 7.31306C56.9418 6.89115 55.445 6.67892 53.9813 6.67892C52.515 6.67892 51.3165 6.85279 50.3807 7.19543C49.4448 7.54063 48.7742 7.98555 48.3687 8.53275C47.9633 9.07995 47.7618 9.71409 47.7618 10.4326C47.7618 11.2764 48.1035 11.9566 48.7895 12.4731C49.4754 12.9896 50.3807 13.4039 51.5027 13.7158C52.6247 14.0278 53.864 14.3423 55.2206 14.6542C56.5772 14.9662 57.9338 15.3267 59.2878 15.7307C60.6444 16.1373 61.8837 16.6845 63.0057 17.3723C64.1277 18.0602 65.0406 18.9653 65.7419 20.0904C66.4431 21.2155 66.795 22.6372 66.795 24.3581C66.795 26.2042 66.2799 27.8919 65.2497 29.4235C64.2221 30.9552 62.6844 32.1902 60.6444 33.1286C58.607 34.0619 56.0264 34.5324 52.9103 34.5324Z" fill="#062539"/>
<path d="M88.4316 20.8805L102.76 1.14551H94.8092L79.374 21.9596V26.0994H109.727V20.8805H88.4316ZM109.727 29.2982H95.6762V33.9647H109.727V29.2982Z" fill="#4225EA"/>
<path d="M137.922 34.5324C133.276 34.5324 129.644 33.236 127.026 30.6406C124.407 28.0452 123.099 24.3427 123.099 19.5278V1.14551H130.672V19.244C130.672 22.3687 131.312 24.6214 132.59 25.9971C133.867 27.3727 135.66 28.0606 137.968 28.0606C140.275 28.0606 142.068 27.3727 143.346 25.9971C144.623 24.6214 145.263 22.3712 145.263 19.244V1.14551H152.745V19.5253C152.745 24.3401 151.434 28.0427 148.818 30.638C146.199 33.236 142.565 34.5324 137.922 34.5324Z" fill="#062539"/>
</g>
<defs>
<clipPath id="clip0_102_229">
<rect width="153" height="61" fill="white"/>
</clipPath>
</defs>
</svg>
