<svg width="80" height="16"  viewBox="0 0 80 16" fill="none" xmlns="http://www.w3.org/2000/svg">
<g clip-path="url(#clip0_139_541)">
<path d="M8.26077 11.4923C8.10077 11.3946 7.89954 11.3946 7.73954 11.4923L5.10733 13.1C4.72779 13.3318 4.25719 12.9899 4.36036 12.5573L5.07597 9.5569C5.11947 9.37452 5.05728 9.18314 4.91489 9.06117L2.57321 7.05529C2.23543 6.76595 2.41522 6.21268 2.85856 6.17716L5.93237 5.9309C6.11928 5.91592 6.2821 5.79763 6.35411 5.62449L7.53849 2.7766C7.70928 2.36593 8.29103 2.36593 8.46182 2.7766L9.6462 5.62449C9.71821 5.79762 9.88103 5.91592 10.0679 5.93089L13.1422 6.17716C13.5856 6.21267 13.7654 6.766 13.4276 7.05532L11.0855 9.06117C10.943 9.18314 10.8808 9.37454 10.9243 9.55693L11.6399 12.5573C11.7431 12.9899 11.2725 13.3318 10.893 13.1L8.26077 11.4923Z" fill="#EF7817"/>
</g>
<g clip-path="url(#clip1_139_541)">
<path d="M40.2608 11.4923C40.1008 11.3946 39.8995 11.3946 39.7395 11.4923L37.1073 13.1C36.7278 13.3318 36.2572 12.9899 36.3604 12.5573L37.076 9.5569C37.1195 9.37452 37.0573 9.18314 36.9149 9.06117L34.5732 7.05529C34.2354 6.76595 34.4152 6.21268 34.8586 6.17716L37.9324 5.9309C38.1193 5.91592 38.2821 5.79763 38.3541 5.62449L39.5385 2.7766C39.7093 2.36593 40.291 2.36593 40.4618 2.7766L41.6462 5.62449C41.7182 5.79762 41.881 5.91592 42.0679 5.93089L45.1422 6.17716C45.5856 6.21267 45.7654 6.766 45.4276 7.05532L43.0855 9.06117C42.943 9.18314 42.8808 9.37454 42.9243 9.55693L43.6399 12.5573C43.7431 12.9899 43.2725 13.3318 42.893 13.1L40.2608 11.4923Z" fill="#EF7817"/>
</g>
<g clip-path="url(#clip2_139_541)">
<path d="M24.2608 11.4923C24.1008 11.3946 23.8995 11.3946 23.7395 11.4923L21.1073 13.1C20.7278 13.3318 20.2572 12.9899 20.3604 12.5573L21.076 9.5569C21.1195 9.37452 21.0573 9.18314 20.9149 9.06117L18.5732 7.05529C18.2354 6.76595 18.4152 6.21268 18.8586 6.17716L21.9324 5.9309C22.1193 5.91592 22.2821 5.79763 22.3541 5.62449L23.5385 2.7766C23.7093 2.36593 24.291 2.36593 24.4618 2.7766L25.6462 5.62449C25.7182 5.79762 25.881 5.91592 26.0679 5.93089L29.1422 6.17716C29.5856 6.21267 29.7654 6.766 29.4276 7.05532L27.0855 9.06117C26.943 9.18314 26.8808 9.37454 26.9243 9.55693L27.6399 12.5573C27.7431 12.9899 27.2725 13.3318 26.893 13.1L24.2608 11.4923Z" fill="#EF7817"/>
</g>
<g clip-path="url(#clip3_139_541)">
<path d="M56.2608 11.4923C56.1008 11.3946 55.8995 11.3946 55.7395 11.4923L53.1073 13.1C52.7278 13.3318 52.2572 12.9899 52.3604 12.5573L53.076 9.5569C53.1195 9.37452 53.0573 9.18314 52.9149 9.06117L50.5732 7.05529C50.2354 6.76595 50.4152 6.21268 50.8586 6.17716L53.9324 5.9309C54.1193 5.91592 54.2821 5.79763 54.3541 5.62449L55.5385 2.7766C55.7093 2.36593 56.291 2.36593 56.4618 2.7766L57.6462 5.62449C57.7182 5.79762 57.881 5.91592 58.0679 5.93089L61.1422 6.17716C61.5856 6.21267 61.7654 6.766 61.4276 7.05532L59.0855 9.06117C58.943 9.18314 58.8808 9.37454 58.9243 9.55693L59.6399 12.5573C59.7431 12.9899 59.2725 13.3318 58.893 13.1L56.2608 11.4923Z" fill="#EF7817"/>
</g>
<g clip-path="url(#clip4_139_541)">
<path d="M72.2608 11.4923C72.1008 11.3946 71.8995 11.3946 71.7395 11.4923L69.1073 13.1C68.7278 13.3318 68.2572 12.9899 68.3604 12.5573L69.076 9.5569C69.1195 9.37452 69.0573 9.18314 68.9149 9.06117L66.5732 7.05529C66.2354 6.76595 66.4152 6.21268 66.8586 6.17716L69.9324 5.9309C70.1193 5.91592 70.2821 5.79763 70.3541 5.62449L71.5385 2.7766C71.7093 2.36593 72.291 2.36593 72.4618 2.7766L73.6462 5.62449C73.7182 5.79762 73.881 5.91592 74.0679 5.93089L77.1422 6.17716C77.5856 6.21267 77.7654 6.766 77.4276 7.05532L75.0855 9.06117C74.943 9.18314 74.8808 9.37454 74.9243 9.55693L75.6399 12.5573C75.7431 12.9899 75.2725 13.3318 74.893 13.1L72.2608 11.4923Z" fill="#EF7817"/>
</g>
<defs>
<clipPath id="clip0_139_541">
<rect width="16" height="16" rx="1" fill="white"/>
</clipPath>
<clipPath id="clip1_139_541">
<rect x="32" width="16" height="16" rx="1" fill="white"/>
</clipPath>
<clipPath id="clip2_139_541">
<rect x="16" width="16" height="16" rx="1" fill="white"/>
</clipPath>
<clipPath id="clip3_139_541">
<rect x="48" width="16" height="16" rx="1" fill="white"/>
</clipPath>
<clipPath id="clip4_139_541">
<rect x="64" width="16" height="16" rx="1" fill="white"/>
</clipPath>
</defs>
</svg>
