<svg width="12" height="12" viewBox="0 0 12 12" fill="none" xmlns="http://www.w3.org/2000/svg">
<path d="M6.26077 9.49246C6.10077 9.39474 5.89954 9.39474 5.73954 9.49246L3.10733 11.1001C2.72779 11.3319 2.25719 10.99 2.36036 10.5574L3.07597 7.55702C3.11947 7.37464 3.05728 7.18326 2.91489 7.06129L0.573213 5.05541C0.235433 4.76607 0.415216 4.2128 0.858559 4.17728L3.93237 3.93102C4.11928 3.91604 4.2821 3.79775 4.35411 3.62461L5.53849 0.776721C5.70928 0.366053 6.29103 0.366053 6.46182 0.776721L7.6462 3.62461C7.71821 3.79775 7.88103 3.91604 8.06795 3.93101L11.1422 4.17728C11.5856 4.2128 11.7654 4.76612 11.4276 5.05545L9.08547 7.06129C8.94305 7.18326 8.88085 7.37466 8.92435 7.55705L9.63995 10.5574C9.74313 10.99 9.27252 11.3319 8.89298 11.1001L6.26077 9.49246Z" fill="#EF7817"/>
</svg>
