<svg width="150" height="116" viewBox="0 0 150 116" fill="none" xmlns="http://www.w3.org/2000/svg">
<path d="M148.143 58C148.143 89.2609 115.452 115 74.5714 115C33.6906 115 1 89.2609 1 58C1 26.7391 33.6906 1 74.5714 1C115.452 1 148.143 26.7391 148.143 58Z" stroke="#5831F0" stroke-opacity="0.4" stroke-width="2"/>
<circle cx="74.5715" cy="58" r="57" stroke="#5831F0" stroke-opacity="0.4" stroke-width="2"/>
<path d="M115 58C115 73.8319 110.415 88.1232 103.052 98.431C95.688 108.741 85.6048 115 74.5714 115C63.538 115 53.4548 108.741 46.0907 98.431C38.728 88.1232 34.1428 73.8319 34.1428 58C34.1428 42.1681 38.728 27.8768 46.0907 17.569C53.4548 7.25935 63.538 1 74.5714 1C85.6048 1 95.688 7.25935 103.052 17.569C110.415 27.8768 115 42.1681 115 58Z" stroke="#5831F0" stroke-opacity="0.4" stroke-width="2"/>
<path d="M98.4286 58C98.4286 73.9141 95.6622 88.2741 91.229 98.6183C89.0116 103.792 86.397 107.915 83.5446 110.73C80.6965 113.541 77.6654 115 74.5715 115C71.4776 115 68.4465 113.541 65.5984 110.73C62.746 107.915 60.1314 103.792 57.914 98.6183C53.4808 88.2741 50.7144 73.9141 50.7144 58C50.7144 42.0859 53.4808 27.7259 57.914 17.3817C60.1314 12.2079 62.746 8.08477 65.5984 5.26968C68.4465 2.45882 71.4776 1 74.5715 1C77.6654 1 80.6965 2.45882 83.5446 5.26968C86.397 8.08477 89.0116 12.2079 91.229 17.3817C95.6622 27.7259 98.4286 42.0859 98.4286 58Z" stroke="#5831F0" stroke-opacity="0.4" stroke-width="2"/>
<path d="M74.5716 12.4277L76.3883 20.4704L83.36 16.068L78.9576 23.0396L87.0002 24.8563L78.9576 26.673L83.36 33.6446L76.3883 29.2422L74.5716 37.2849L72.7549 29.2422L65.7833 33.6446L70.1857 26.673L62.1431 24.8563L70.1857 23.0396L65.7833 16.068L72.7549 20.4704L74.5716 12.4277Z" fill="#5831F0" fill-opacity="0.4"/>
<path d="M74.5716 45.5703L76.3883 53.613L83.36 49.2106L78.9576 56.1822L87.0002 57.9989L78.9576 59.8156L83.36 66.7872L76.3883 62.3848L74.5716 70.4275L72.7549 62.3848L65.7833 66.7872L70.1857 59.8156L62.1431 57.9989L70.1857 56.1822L65.7833 49.2106L72.7549 53.613L74.5716 45.5703Z" fill="#5831F0" fill-opacity="0.4"/>
<path d="M74.5716 78.7148L76.3883 86.7575L83.36 82.3551L78.9576 89.3267L87.0002 91.1434L78.9576 92.9601L83.36 99.9317L76.3883 95.5293L74.5716 103.572L72.7549 95.5293L65.7833 99.9317L70.1857 92.9601L62.1431 91.1434L70.1857 89.3267L65.7833 82.3551L72.7549 86.7575L74.5716 78.7148Z" fill="#5831F0" fill-opacity="0.4"/>
</svg>
