<svg width="196" height="46" viewBox="0 0 196 46" fill="none" xmlns="http://www.w3.org/2000/svg">
<path d="M13.3308 0.0626315C15.0844 -0.03131 16.8067 0.0313138 18.5602 0L31.8999 35.6038C30.2716 35.6038 28.612 35.5725 26.9837 35.6351C25.6998 32.1593 24.5725 28.6521 23.3513 25.1763H8.60245C7.41252 28.6521 6.2226 32.128 5.00136 35.6038H0.0224609V35.5725C4.50034 23.7359 8.97821 11.8993 13.3308 0.0626315ZM10.1681 20.8863H21.8169C19.8754 15.6882 17.9966 10.4901 15.9925 5.29203C13.9258 10.4275 12.1409 15.6882 10.1681 20.8863ZM36.7849 0H41.3567V35.6038H36.7849C36.7849 23.7359 36.8162 11.8679 36.7849 0ZM75.2383 0H79.8414C79.7788 4.91627 79.998 9.83254 79.6535 14.7175C81.3445 12.275 84.1314 10.5841 87.1062 10.4588C89.7366 10.3336 92.5861 11.1164 94.371 13.1518C96.1872 15.1872 96.8135 18.0054 96.8135 20.6671V35.6038H92.2417V21.3247C92.2103 19.4146 91.8346 17.2539 90.3315 15.9387C88.7658 14.6549 86.4799 14.4357 84.5698 14.9367C81.6263 15.8448 79.9353 18.9762 79.8727 21.951C79.8414 26.5228 79.8727 31.0633 79.8727 35.6351H75.3009C75.2069 23.7359 75.2383 11.8679 75.2383 0ZM127.564 0.814161H132.167C132.135 5.44861 132.292 10.0831 131.979 14.7175C133.294 12.9639 135.11 11.5548 137.24 10.9285C140.903 9.7386 145.131 10.772 147.918 13.4336C153.147 18.2246 153.491 27.243 148.763 32.5037C146.415 35.228 142.72 36.7937 139.118 36.2927C136.269 36.0109 133.701 34.3826 131.979 32.128V35.5725H127.595C127.564 23.9864 127.564 12.4003 127.564 0.814161ZM138.21 14.8114C135.768 15.2811 133.732 17.1287 132.856 19.4459C131.916 21.9197 131.885 24.7379 132.793 27.2117C133.607 29.4663 135.486 31.3451 137.835 31.9088C140.402 32.5977 143.314 31.7835 145.068 29.7794C146.916 27.744 147.479 24.8632 147.197 22.2328C147.01 19.9469 146.007 17.6297 144.16 16.1892C142.5 14.8741 140.277 14.4044 138.21 14.8114ZM185.432 3.78897H190.003V11.2417H195.796V15.4064H190.003V27.8693C190.003 28.9966 190.191 30.2491 191.162 30.9694C192.477 31.9401 194.262 31.6583 195.796 31.5017V35.6351C193.26 35.9483 190.473 35.9483 188.281 34.4452C186.34 33.1613 185.463 30.7502 185.463 28.4956C185.432 24.143 185.463 19.7903 185.463 15.4064H181.173V11.2417H185.463C185.432 8.73655 185.4 6.26277 185.432 3.78897ZM57.6712 10.6154C61.4915 9.86385 65.531 11.4609 68.0048 14.4044C72.7645 19.8216 72.2321 29.0905 66.6583 33.7563C63.2137 36.7937 57.7651 37.2634 53.9135 34.727C52.7862 34.0694 52.0034 33.0674 51.1266 32.128C51.4711 36.7624 51.2832 41.3969 51.3458 46H46.7427V11.2103H51.1266C51.1266 12.369 51.1266 13.5276 51.1579 14.6862C52.6923 12.5882 55.0408 11.0538 57.6712 10.6154ZM57.4207 14.8114C55.1348 15.2498 53.162 16.9095 52.2226 19.0075C51.1579 21.356 51.064 24.0803 51.7529 26.5541C52.4105 28.9966 54.2893 31.1259 56.7631 31.8462C59.3308 32.6603 62.3056 31.9088 64.1532 29.936C66.0946 27.9006 66.6896 24.9258 66.4078 22.2015C66.1886 19.759 65.0613 17.3165 62.9946 15.9074C61.3975 14.8114 59.3308 14.4357 57.4207 14.8114ZM105.581 11.9306C108.212 10.3962 111.437 10.177 114.381 10.7406C116.76 11.2103 119.046 12.5255 120.393 14.6236C121.677 16.5963 122.146 18.9762 122.178 21.2934V35.6038H117.794C117.794 34.4452 117.794 33.2866 117.762 32.1593C116.134 34.3826 113.692 36.0735 110.905 36.3554C108.619 36.5432 106.176 36.1675 104.204 34.8836C100.133 32.3785 99.4752 25.7713 103.139 22.6086C104.83 21.1055 107.084 20.354 109.308 20.0722C112.157 19.7277 115.195 19.9782 117.794 21.2934C117.856 19.6338 117.606 17.8489 116.479 16.565C114.694 14.467 111.5 14.1225 108.995 14.9993C107.46 15.5317 106.396 16.8468 105.581 18.1933C104.172 17.6923 102.763 17.2539 101.354 16.7216C102.293 14.7801 103.671 12.9952 105.581 11.9306ZM109.777 23.9864C108.775 24.1743 107.742 24.55 106.959 25.2389C105.3 26.5854 104.986 29.4037 106.552 30.9381C107.867 32.1593 109.84 32.3785 111.562 32.1593C114.788 31.533 117.731 28.4956 117.512 25.1137C115.226 23.7672 112.376 23.6419 109.777 23.9864ZM164.577 10.8346C168.835 9.76991 173.845 10.9285 176.664 14.4357C178.918 17.16 179.701 20.8237 179.513 24.2682H160.412C160.537 26.4915 161.32 28.7774 163.011 30.3118C165.61 32.7543 169.994 32.7856 172.749 30.5623C173.752 29.7794 174.472 28.7148 175.004 27.5875C176.382 28.1198 177.76 28.7461 179.106 29.3097C178.104 31.5017 176.507 33.4745 174.409 34.6957C171.622 36.3553 168.178 36.7624 165.046 36.0735C162.103 35.4473 159.441 33.5684 157.813 31.032C155.151 26.9299 154.963 21.45 157.093 17.0973C158.564 14.0599 161.32 11.6487 164.577 10.8346ZM163.888 15.7195C162.228 16.7842 161.195 18.6004 160.694 20.4792H174.691C174.44 18.2873 173.063 16.2519 171.027 15.3751C168.773 14.373 165.986 14.373 163.888 15.7195Z" fill="#ED1C24"/>
</svg>
