<svg width="136" height="46" viewBox="0 0 136 46" fill="none" xmlns="http://www.w3.org/2000/svg">
<path d="M31.825 24.444C31.7695 18.6229 36.5806 15.8262 36.797 15.693C34.089 11.7364 29.8828 11.1926 28.3845 11.1316C24.8053 10.7653 21.3981 13.2403 19.578 13.2403C17.7579 13.2403 14.9556 11.1815 11.9868 11.2426C8.0802 11.2981 4.47881 13.5122 2.46447 17.0081C-1.58641 24.0333 1.43233 34.4657 5.38886 40.1758C7.32552 42.967 9.62286 46.1134 12.6527 45.9969C15.5715 45.8803 16.6703 44.1101 20.1884 44.1101C23.7066 44.1101 24.6999 45.9969 27.7797 45.9414C30.9149 45.8803 32.9015 43.0891 34.8215 40.2868C37.0301 37.0405 37.9457 33.9053 38.0012 33.7388C37.929 33.7111 31.8916 31.3971 31.825 24.444Z" fill="black"/>
<path d="M26.0374 7.34707C27.6466 5.39932 28.7287 2.69688 28.4346 0C26.1206 0.0943355 23.3183 1.54266 21.6591 3.49041C20.1719 5.21065 18.8679 7.96302 19.223 10.6044C21.7923 10.8042 24.4337 9.28927 26.0374 7.34707ZM52.1184 30.1651L49.4548 38.2392H46.0309L54.7486 12.5799H58.744L67.495 38.2392H63.9547L61.2134 30.1651H52.1184ZM60.5309 27.5737L58.0226 20.1878C57.4511 18.5119 57.0737 16.9915 56.6908 15.5043H56.6187C56.2358 17.0248 55.8196 18.5841 55.3258 20.1489L52.8175 27.5681L60.5309 27.5737ZM70.092 25.8257C70.092 23.4673 70.0199 21.5584 69.9367 19.8104H72.9443L73.0997 22.9735H73.1718C74.5424 20.7261 76.7122 19.3943 79.7198 19.3943C84.1758 19.3943 87.5219 23.1621 87.5219 28.7612C87.5219 35.3869 83.4877 38.6553 79.1482 38.6553C76.7122 38.6553 74.5813 37.5899 73.477 35.7642H73.4049V45.7749H70.092V25.8257ZM73.3993 30.7367C73.3993 31.2361 73.4715 31.6856 73.5547 32.1073C74.1651 34.4269 76.1795 36.0306 78.5822 36.0306C82.1226 36.0306 84.1813 33.1395 84.1813 28.911C84.1813 25.2153 82.2391 22.0634 78.6988 22.0634C76.4181 22.0634 74.2872 23.7004 73.6324 26.2142C73.5159 26.6303 73.4049 27.1298 73.4049 27.5848L73.3993 30.7367ZM90.9846 25.8257C90.9846 23.4673 90.9124 21.5584 90.8292 19.8104H93.8368L93.9922 22.9735H94.0643C95.435 20.7261 97.6047 19.3943 100.612 19.3943C105.068 19.3943 108.414 23.1621 108.414 28.7612C108.414 35.3869 104.38 38.6553 100.041 38.6553C97.6047 38.6553 95.4738 37.5899 94.3695 35.7642H94.2974V45.7749H90.9846V25.8257ZM94.2974 30.7367C94.2974 31.2361 94.3695 31.6856 94.4528 32.1073C95.0632 34.4269 97.0775 36.0306 99.4803 36.0306C103.021 36.0306 105.079 33.1395 105.079 28.911C105.079 25.2153 103.137 22.0634 99.5968 22.0634C97.3161 22.0634 95.1853 23.7004 94.5305 26.2142C94.4139 26.6303 94.303 27.1298 94.303 27.5848L94.2974 30.7367ZM111.883 11.2093H115.234V38.2336H111.883V11.2093ZM121.971 29.6324C122.043 34.1605 124.94 36.0306 128.286 36.0306C130.683 36.0306 132.131 35.6144 133.386 35.0817L133.957 37.4789C132.781 38.0116 130.761 38.622 127.831 38.622C122.16 38.622 118.769 34.893 118.769 29.3328C118.769 23.7725 122.043 19.3943 127.409 19.3943C133.424 19.3943 135.023 24.6826 135.023 28.0731C135.023 28.7612 134.95 29.2884 134.906 29.6324H121.971ZM131.793 27.2352C131.832 25.1043 130.916 21.7915 127.148 21.7915C123.758 21.7915 122.276 24.9157 122.01 27.2352H131.793Z" fill="black"/>
</svg>
