<svg width="374" height="46" viewBox="0 0 374 46" fill="none" xmlns="http://www.w3.org/2000/svg">
<path fillRule="evenodd" clipRule="evenodd" d="M38.0714 17.0022C39.913 15.6206 40.3748 13.326 40.3748 11.4892C40.3748 9.19192 39.913 7.35785 38.5332 5.51838C37.6124 3.68431 35.7735 2.30539 33.4702 1.387C31.1668 0.468618 27.4891 0.0107728 22.4261 0.0107728H0.796875V0.929157C2.63846 0.929157 4.021 1.387 4.93909 1.84754C5.85989 2.30539 6.32163 2.76592 6.32163 3.22646C6.78068 3.687 7.24243 5.52108 7.24243 7.81838V37.204C7.24243 39.9591 6.78068 41.3381 6.32163 42.2564C6.32163 42.7143 5.85989 43.1748 4.93909 43.6327C4.021 44.0932 2.63846 44.0932 0.796875 44.0932V45.4721H23.8059C30.2487 45.4721 35.3118 44.0932 38.5332 41.3408C41.2929 39.0434 42.6754 36.2883 42.6754 32.6148C42.6754 29.4018 41.2929 27.1045 38.9922 24.8125C37.1506 23.4309 33.9292 22.5125 29.7897 21.139C33.9319 20.2152 36.6916 18.839 38.0714 17.0022ZM17.3657 2.30539C20.5872 2.30539 23.3496 2.76592 24.7294 3.687C26.1092 4.14485 27.4918 5.06323 27.9508 6.43677C28.8716 7.81838 29.3334 9.19192 29.3334 11.4892C29.3334 13.326 28.8716 15.1628 27.9508 16.0811C27.1179 17.3698 26.0187 18.4661 24.7267 19.2968C22.8851 20.2152 20.5872 20.2152 17.3657 20.2152V2.30539ZM25.1857 23.8915C27.0273 24.8098 28.4099 25.7282 29.3307 27.5623C30.2514 29.3964 30.7105 31.2358 30.7105 33.0726C30.7105 34.9121 30.2514 36.7461 29.3307 38.1251C28.4099 39.5013 27.4891 40.8802 26.1065 41.7986C24.2676 42.2564 22.8851 42.7143 21.0435 42.7143C20.1227 42.7143 19.2046 42.7143 18.2838 41.7986C17.8221 41.3381 17.363 40.417 17.363 39.0434V22.9704C21.0462 22.9704 23.3496 23.4282 25.1857 23.8915ZM60.3541 20.8158C62.4819 20.8158 63.8077 20.8158 64.3397 21.0824C65.6682 21.3491 66.4648 22.1436 67.2614 22.9354C68.058 23.7326 68.5899 25.0576 68.8545 26.9132H69.6511V19.2241H47.6007V19.7547H48.6646C49.4639 19.7547 49.9958 20.0213 50.5251 20.5492C50.7924 20.5492 51.057 21.0797 51.3217 21.3464V40.9583C51.3217 42.2861 51.3217 43.0806 51.0543 43.3472C51.0543 43.8751 50.7897 44.1417 50.2578 44.4083C49.9931 44.6749 49.1939 44.6749 48.6619 44.6749H47.598V45.4694H70.1777L71.5089 36.9885H70.7123C70.1804 39.3747 69.1165 41.2303 67.5233 42.2915C66.1948 43.3526 64.0697 43.8804 61.6799 43.8804H60.0868C59.2902 43.8804 58.7582 43.8804 58.4909 43.6165C58.2263 43.3499 57.9589 43.0859 57.9589 42.822C57.6943 42.5527 57.6943 41.7582 57.6943 40.1692V32.7467C59.0229 32.7467 59.8194 33.0133 60.6187 33.2773C61.1507 33.5439 61.6826 34.3384 62.2119 35.1302C62.7411 36.194 63.0085 37.5191 63.2731 38.8441H64.0697V25.3189H63.2731C63.0085 27.1745 62.4765 28.7635 61.6799 29.8273C61.148 30.8884 59.8194 31.419 58.2263 31.419H57.6943V20.8158H60.3541ZM85.5908 33.5385L94.0913 45.4667H102.327V44.6722C101.531 44.6722 100.999 44.4056 100.469 43.8751C100.205 43.6111 99.4054 43.0806 98.6115 42.0221L92.5035 33.008C94.0967 32.7413 95.1579 31.9468 96.2218 31.155C97.5503 30.0939 98.3469 28.5049 98.3469 26.3827C98.3469 24.7937 97.815 23.4686 96.7538 22.4075C95.9572 21.0824 94.6286 20.2879 93.3001 19.7574C91.0159 19.394 88.7059 19.2165 86.3928 19.2268H74.1741V19.7574C75.238 19.7574 76.0319 20.024 76.5638 20.2879C77.0958 20.5519 77.3604 20.8158 77.3604 21.0824C77.625 21.3491 77.625 22.4075 77.625 23.7326V40.9583C77.625 42.2861 77.625 43.0806 77.3604 43.6111C77.3604 43.8751 77.0931 44.139 76.5638 44.4056C76.0346 44.6723 75.2353 44.6722 74.1741 44.6722V45.4667H87.4567V44.6722C86.3928 44.6722 85.5989 44.6723 85.067 44.4056C84.535 44.139 84.2704 43.8751 84.2704 43.6111C84.0058 43.0806 83.7384 42.2861 83.7384 40.9583V33.5385H85.5908ZM85.8555 20.5492C87.9806 20.5492 89.5737 21.0797 90.3703 22.1409C91.4342 22.9354 91.9662 24.5271 91.9662 26.38C91.9662 27.9717 91.6988 29.0328 91.1669 29.8273C90.6349 30.6218 89.8384 31.1523 89.0418 31.6802C87.7409 32.0235 86.4018 32.2018 85.0562 32.2108H83.7276V20.5492H85.8555ZM126.235 23.1993C128.096 21.6076 129.16 20.5492 129.689 20.2852C130.221 20.0186 131.018 20.0186 131.814 19.7547V19.2241H121.72V19.7547C122.784 20.0213 123.578 20.0213 123.846 20.2852C124.378 20.5492 124.642 20.8131 124.642 21.3464C124.642 22.1409 123.846 22.9354 122.517 23.9938L112.953 31.9468V23.7326V21.0824L113.749 20.2879C114.281 20.0213 115.078 19.7574 115.877 19.7574V19.2241H102.859V19.7547H103.658C104.455 19.7547 104.987 20.0213 105.516 20.2852C105.781 20.5492 106.313 20.8131 106.313 21.0797C106.58 21.6076 106.58 22.4048 106.58 23.7299V40.9556C106.58 42.2834 106.58 43.0779 106.313 43.3445C106.048 43.8724 105.781 44.139 105.516 44.4056C104.984 44.6723 104.452 44.6722 103.658 44.6722H102.859V45.4667H116.142V44.6722C115.078 44.6722 114.281 44.6723 114.014 44.4056C113.615 44.2063 113.256 43.9372 112.953 43.6111V33.8052L113.749 33.008L119.86 40.4331C120.921 42.0221 121.718 43.0806 121.718 43.6138C121.718 43.8778 121.45 44.1417 121.186 44.4083C120.918 44.4083 120.389 44.6749 119.593 44.6749V45.4694H133.14V44.6749C132.343 44.6749 131.811 44.4083 131.015 44.1444C129.951 43.6165 128.89 42.5527 127.561 40.6998L118.529 29.3021L126.235 23.1993ZM150.943 18.6936C150.676 19.4881 150.411 19.7547 150.144 20.0186C150.144 20.2852 149.879 20.2852 149.35 20.2852C149.085 20.2852 148.553 20.2852 147.754 19.7547C146.693 19.4881 146.161 19.2241 145.364 18.9602C144.567 18.6936 143.771 18.6936 142.974 18.6936C140.585 18.6936 138.724 19.4881 137.128 20.8131C135.532 22.4048 135 23.9938 135 26.116C135 27.4411 135.268 28.5022 135.797 29.5607C136.329 30.6218 137.126 31.4163 138.189 32.2108C139.253 33.0053 140.847 34.0664 143.236 35.1248C145.094 36.1886 146.158 36.7165 146.955 37.2471C147.486 37.7749 148.018 38.3082 148.283 38.8388C148.55 39.6333 148.815 40.1611 148.815 40.6917C148.815 41.7528 148.283 42.5446 147.486 43.3418C146.693 44.1363 145.629 44.6669 144.033 44.6669C142.175 44.6669 140.579 43.8697 138.721 42.5446C137.126 40.9529 136.064 38.8361 135.532 36.1859H135V45.9946H135.532C135.8 45.4641 136.064 44.9308 136.332 44.6696C136.864 44.4029 137.126 44.4029 137.66 44.4029C137.928 44.4029 138.454 44.4029 138.989 44.6696C140.053 45.2001 141.114 45.4641 141.91 45.7307C142.442 45.9973 143.239 45.9973 144.3 45.9973C146.693 45.9973 149.082 45.2028 150.676 43.6111C152.269 42.0194 153.333 40.1638 153.333 38.0443C153.333 36.1913 152.801 34.5996 151.739 33.2746C150.675 32.2135 148.553 30.6245 145.364 29.0355C143.239 27.9717 141.91 27.1799 141.378 26.9132C140.572 26.5153 139.92 25.8643 139.521 25.0603C139.256 24.5297 138.989 24.2658 138.989 23.4686C138.989 22.6741 139.521 21.8796 140.053 21.0824C140.849 20.5519 141.91 20.0213 143.242 20.0213C145.099 20.0213 146.695 20.8158 148.024 22.1409C149.617 23.4659 150.414 25.0576 150.946 27.4438H151.742L151.472 18.6936H150.943ZM174.851 32.7413V43.3472C174.584 43.8751 174.319 44.1417 174.054 44.4083C173.523 44.6749 172.991 44.6749 172.194 44.6749H171.397V45.4694H184.945V44.6749H184.148C183.349 44.6749 182.82 44.6749 182.29 44.4083C181.962 44.1058 181.691 43.7463 181.491 43.3472C181.226 43.0806 181.226 42.2861 181.226 40.9583V23.7326C181.226 22.4075 181.226 21.6103 181.491 21.3464C181.758 20.8158 182.023 20.5492 182.29 20.2852C182.822 20.0186 183.352 19.7547 184.148 19.7547H184.945V19.2241H171.397V19.7547H172.194C172.991 19.7547 173.523 20.0213 173.787 20.2852C174.319 20.5492 174.584 20.8131 174.851 21.0797V31.1523H165.554V23.7326C165.554 22.4075 165.819 21.6103 165.819 21.3464C166.018 20.9476 166.288 20.5881 166.615 20.2852C167.147 20.0186 167.679 19.7547 168.473 19.7547H169.27V19.2241H155.722V19.7547H156.519C157.315 19.7547 157.847 20.0213 158.379 20.2852C158.644 20.5492 158.911 20.8131 159.173 21.0797C159.438 21.6076 159.438 22.4048 159.438 23.7299V40.9556C159.438 42.2834 159.438 43.0779 159.173 43.3445C158.909 43.8724 158.641 44.139 158.379 44.4056C157.847 44.6723 157.315 44.6722 156.519 44.6722H155.722V45.4667H169.27V44.6722H168.473C167.676 44.6722 167.144 44.6723 166.88 44.4056C166.405 44.1961 166.026 43.8178 165.816 43.3445C165.816 43.0779 165.551 42.2834 165.551 40.9556V32.7386L174.851 32.7413ZM199.289 44.6722C198.492 44.6722 197.96 44.6723 197.431 44.4056C197.102 44.1036 196.832 43.7439 196.634 43.3445C196.634 43.0779 196.37 42.2834 196.37 40.9556V23.7326C196.37 22.4075 196.634 21.6103 196.634 21.3464C196.833 20.9476 197.103 20.5881 197.431 20.2852C197.963 20.0186 198.492 19.7547 199.289 19.7547H200.085V19.2241H186.538V19.7547H187.334C188.131 19.7547 188.663 20.0213 189.195 20.2852L189.991 21.0797C189.991 21.6076 190.256 22.4048 190.256 23.7299V40.9556C190.256 42.2834 189.991 43.0779 189.991 43.3445C189.724 43.8724 189.46 44.139 189.195 44.4056C188.663 44.6723 188.131 44.6722 187.334 44.6722H186.538V45.4667H200.085V44.6722H199.289ZM213.368 33.5385L221.868 45.4667H230.104V44.6722C229.307 44.6722 228.775 44.4056 228.246 43.8751C227.668 43.2998 227.135 42.6802 226.653 42.0221L220.278 33.008C221.675 32.7759 222.971 32.1304 223.996 31.155C225.327 30.0939 226.121 28.5049 226.121 26.3827C226.129 24.9479 225.662 23.5506 224.793 22.4075C223.729 21.0824 222.667 20.2879 221.074 19.7574C219.746 19.4907 217.356 19.2268 214.167 19.2268H201.948V19.7574C203.012 19.7574 204.073 20.024 204.341 20.2879C204.87 20.5519 205.137 20.8158 205.402 21.0824C205.402 21.3491 205.669 22.4075 205.669 23.7326V40.9583C205.669 42.2861 205.402 43.0806 205.402 43.6111C205.099 43.9372 204.739 44.2063 204.341 44.4056C204.073 44.6723 203.277 44.6722 201.948 44.6722V45.4667H215.231V44.6722C214.167 44.6722 213.373 44.6723 212.841 44.4056C212.577 44.139 212.045 43.8751 212.045 43.6111C211.777 43.0806 211.777 42.2861 211.777 40.9583V33.5385H213.368ZM213.632 20.5492C215.757 20.5492 217.353 21.0797 218.415 22.1409C219.211 22.9354 219.743 24.5271 219.743 26.38C219.743 27.9717 219.478 29.0328 218.947 29.8273C218.415 30.6218 217.618 31.1523 216.821 31.6802C216.025 31.9468 214.694 32.2108 212.836 32.2108H211.772V20.5492H213.632ZM243.387 20.8158C245.244 20.8158 246.573 20.8158 247.37 21.0824C248.701 21.3491 249.497 22.1436 250.291 22.9354C250.823 23.7326 251.355 25.0576 251.887 26.9132H252.419V19.2241H230.636V19.7547H231.433C232.229 19.7547 233.026 20.0213 233.558 20.5492C233.822 20.5492 234.09 21.0797 234.09 21.3464C234.354 21.6103 234.354 22.4075 234.354 23.7326V40.9583C234.354 42.2861 234.09 43.0806 234.09 43.3472C233.822 43.8751 233.558 44.1417 233.293 44.4083C232.761 44.6749 232.229 44.6749 231.435 44.6749H230.639V45.4694H253.218L254.547 36.9885H253.75C252.954 39.3747 251.893 41.2303 250.564 42.2915C248.968 43.3526 247.11 43.8804 244.718 43.8804H243.125C242.328 43.8804 241.796 43.8804 241.532 43.6165L240.735 42.822C240.735 42.5527 240.47 41.7582 240.47 40.1692V32.7467C241.799 32.7467 242.86 33.0133 243.392 33.2773C244.189 33.5439 244.721 34.3384 245.25 35.1302C245.782 36.194 246.046 37.5191 246.046 38.8441H246.843V25.3189H246.046C246.046 27.1745 245.514 28.7635 244.718 29.8273C243.921 30.8884 242.86 31.419 241 31.419H240.47V20.8158H243.387ZM303.705 23.4228V37.6618C303.705 39.9618 303.705 41.3354 303.244 41.7959C303.244 42.7143 302.326 43.1748 301.864 43.6327C301.405 44.0932 300.022 44.0932 298.642 44.0932H297.26V45.4721H321.198V44.0932H319.353C318.433 44.0932 317.053 44.0932 316.596 43.6327C315.673 43.1748 315.211 42.7143 314.752 41.7959V7.80761V3.67623C315.211 2.75515 315.673 2.29461 316.135 1.83677C317.055 1.37354 317.976 0.915691 319.353 0.915691H321.198V0H297.26V0.918384H298.642C300.022 0.918384 300.943 1.37623 301.864 1.83946C302.785 2.29731 303.244 2.75785 303.244 3.21569C303.705 4.13677 303.705 5.513 303.705 7.8103V20.6704H287.596V7.80761C287.596 5.50761 287.596 4.13408 288.055 3.67623C288.398 2.98372 288.867 2.36019 289.437 1.83677C290.358 1.37354 291.279 0.915691 292.659 0.915691H294.038V0H270.103V0.918384H271.942C272.863 0.918384 274.245 1.37623 274.704 1.83946C275.625 2.29731 276.087 2.75785 276.546 3.21569V41.7986C276.087 42.717 275.625 43.1775 275.166 43.6354C274.245 44.0959 273.325 44.0959 271.942 44.0959H270.103V45.4748H294.038V44.0959H292.659C291.279 44.0959 290.358 44.0959 289.437 43.6354C288.975 43.1775 288.055 42.717 288.055 41.7986C287.596 41.3381 287.596 39.9618 287.596 37.6645V23.4228H303.705ZM343.407 41.2276C343.675 42.0221 343.937 42.55 343.937 42.55V43.3472C343.937 43.8751 343.937 44.1417 343.672 44.4083C343.14 44.6749 342.608 44.6749 341.547 44.6749H341.015V45.4694H353.501V44.6749C352.704 44.6749 352.173 44.4083 351.643 43.8778C351.111 43.6138 350.315 42.2888 349.518 40.1665L339.954 18.6963H339.689L330.392 39.6359C329.593 41.4889 328.796 42.8193 328 43.6138C327.47 44.1417 326.671 44.6749 325.875 44.6749V45.4694H334.375V44.6749C333.047 44.6749 332.25 44.4083 331.983 44.1444C331.453 43.8778 330.919 43.3499 330.919 42.5527C330.919 42.0248 331.186 41.2303 331.451 40.4358L332.776 38.047H341.809L343.407 41.2276ZM333.314 36.4553L337.299 27.7077L341.285 36.4553H333.314ZM355.629 19.2241V26.38H356.158C356.425 24.2631 357.225 22.9354 358.286 21.8769C359.083 21.0797 360.408 20.8131 362.269 20.8131H364.129V40.9556C364.129 42.2834 364.129 43.0779 363.862 43.3445C363.595 43.8724 363.33 44.139 363.065 44.4056C362.534 44.6723 362.002 44.6722 361.208 44.6722H360.408V45.4667H373.958V44.6722H373.162C372.63 44.6722 371.833 44.6723 371.566 44.4056C371.037 44.139 370.769 43.8751 370.769 43.3445C370.505 43.0779 370.505 42.2834 370.505 40.9556V20.8158H372.362C373.688 20.8158 374.485 20.8158 375.017 21.0824C375.813 21.6103 376.61 22.1436 377.142 22.6741C377.407 23.4686 377.939 24.7937 378.468 26.3827H379V19.2241H355.629ZM400.788 32.7413V40.9583C400.788 42.2861 400.521 43.0806 400.521 43.3472C400.254 43.8751 399.989 44.1417 399.724 44.4083C399.192 44.6749 398.66 44.6749 397.867 44.6749H397.067V45.4694H410.617V44.6749H409.821C409.024 44.6749 408.492 44.6749 407.963 44.4083C407.634 44.1063 407.364 43.7466 407.166 43.3472C407.166 43.0806 406.899 42.2861 406.899 40.9583V23.7326C406.899 22.4075 407.166 21.6103 407.166 21.3464C407.431 20.8158 407.696 20.5492 407.963 20.2852C408.492 20.0186 409.027 19.7547 409.821 19.7547H410.617V19.2241H397.067V19.7547H397.867C398.663 19.7547 399.192 20.0213 399.724 20.2852L400.521 21.0797C400.521 21.6076 400.788 22.4048 400.788 23.7299V31.1523H391.491V23.7326V21.3464C391.69 20.9476 391.96 20.5881 392.288 20.2852C392.82 20.0186 393.352 19.7547 394.146 19.7547H394.945V19.2241H381.395V19.7547H382.191C382.988 19.7547 383.52 20.0213 384.049 20.2852L384.846 21.0797C385.113 21.6076 385.113 22.4048 385.113 23.7299V40.9556C385.113 42.2834 385.113 43.0779 384.846 43.3445C384.647 43.7435 384.377 44.1031 384.049 44.4056C383.52 44.6723 382.985 44.6722 382.191 44.6722H381.395V45.4667H394.945V44.6722H394.146C393.349 44.6722 392.82 44.6723 392.55 44.4056C392.077 44.1945 391.699 43.8166 391.489 43.3445V32.7386L400.788 32.7413ZM429.214 41.2276C429.481 42.0221 429.743 42.55 429.743 42.55C430.011 42.8193 430.011 43.0806 430.011 43.3472C430.011 43.8751 429.743 44.1417 429.481 44.4083C429.214 44.6749 428.417 44.6749 427.356 44.6749H426.824V45.4694H439.578V44.6749C438.781 44.6749 438.249 44.4083 437.72 43.8778C437.188 43.6138 436.391 42.2888 435.592 40.1665L426.03 18.6963H425.763L416.201 39.6359C415.615 41.0236 414.902 42.3551 414.074 43.6138C413.547 44.1417 412.748 44.6749 411.684 44.6749V45.4694H420.449V44.6749C419.123 44.6749 418.327 44.4083 417.795 44.1444C417.265 43.8778 416.998 43.3499 416.998 42.5527C416.998 42.0248 417.265 41.2303 417.527 40.4358L418.591 38.047H427.888L429.214 41.2276ZM419.385 36.4553L423.368 27.7077L427.089 36.4553H419.385ZM472.516 19.2241V19.7547C473.579 20.0213 474.109 20.0213 474.638 20.2852C474.971 20.6466 475.16 21.1169 475.17 21.6076C475.17 22.1382 474.903 22.4048 474.903 22.9327C474.903 23.1993 474.635 23.9938 474.106 25.3189L469.856 36.4553L465.074 23.9938C464.542 22.4048 464.277 21.6076 464.277 21.3464C464.277 21.0797 464.277 20.8158 464.542 20.5492C464.542 20.2852 464.809 20.2852 465.074 20.0213C465.338 20.0213 466.138 19.7547 466.931 19.7547V19.2241H454.445V19.7547C455.242 19.7547 455.774 20.0213 456.303 20.2852C456.57 20.5492 457.1 20.8131 457.37 21.3464C457.634 21.8769 458.164 22.9354 458.696 24.2631L459.759 27.1772L455.509 36.9858L450.462 24.2631C449.933 22.6714 449.399 21.6103 449.399 21.3464C449.399 20.8158 449.666 20.5492 449.93 20.2852C450.195 20.0186 450.727 20.0186 451.788 19.7547V19.2241H440.366V19.7547C441.163 20.0213 441.695 20.2852 442.224 20.5492C442.491 21.0797 443.021 22.4048 444.082 24.5271L452.582 46H453.379L460.551 29.0355L466.926 46H467.725L475.958 24.2658C476.755 22.4102 477.022 21.613 477.022 21.3491C477.29 20.8185 477.819 20.5519 478.086 20.2879C478.354 20.0213 478.883 20.0213 479.415 19.7574V19.2241H472.516ZM497.485 41.2276C497.752 42.0221 498.017 42.55 498.017 42.55C498.282 42.8193 498.282 43.0806 498.282 43.3472C498.282 43.8751 498.017 44.1417 497.752 44.4083C497.488 44.6749 496.688 44.6749 495.627 44.6749H495.095V45.4694H507.849V44.6749C507.052 44.6749 506.255 44.4083 505.991 43.8778C505.459 43.6138 504.662 42.2888 503.866 40.1665L494.301 18.6963H494.037L484.472 39.6359C483.886 41.0234 483.175 42.3549 482.347 43.6138C481.818 44.1417 481.019 44.6749 479.958 44.6749V45.4694H488.723V44.6749C487.394 44.6749 486.598 44.4083 486.066 44.1444C485.536 43.8778 485.269 43.3499 485.269 42.5527C485.269 42.0248 485.536 41.2303 485.801 40.4358L486.862 38.047H496.159L497.485 41.2276ZM487.656 36.4553L491.642 27.7077L495.36 36.4553H487.656ZM528.568 19.2241V19.7547C529.632 20.0213 530.426 20.2852 530.958 20.5492C531.225 20.8158 531.49 21.0797 531.49 21.3464C531.49 21.8769 530.693 23.1993 529.632 25.3215L524.85 33.008L520.067 24.5271C519.003 22.6741 518.474 21.3464 518.474 20.8158C518.474 20.5492 518.739 20.5492 519.003 20.2879C519.271 20.0213 519.8 19.7574 520.597 19.7574H521.129V19.2241H508.643V19.7547C509.439 19.7547 510.236 20.0213 510.768 20.5492C511.035 20.8158 512.096 22.1409 513.16 24.5271L519.533 35.6608V40.961C519.533 42.2888 519.268 43.0833 519.268 43.3499C519.001 43.8778 518.736 44.1444 518.472 44.411C517.94 44.6776 517.408 44.6776 516.611 44.6776H515.285V45.4721H529.894V44.6776H528.568C527.771 44.6776 527.239 44.6776 526.71 44.411C526.381 44.1092 526.11 43.7495 525.911 43.3499C525.911 43.0833 525.646 42.2888 525.646 40.961V34.6023L531.49 25.0603C532.815 22.6741 533.879 21.0824 534.411 20.5519C534.94 20.2879 535.737 20.024 536.536 19.7574V19.2241H528.568ZM558.808 45.0789C558.441 45.0789 558.074 45.0789 557.706 44.8958C557.337 44.7126 557.156 44.5268 557.156 44.1632C556.972 43.9801 556.972 43.4307 556.972 42.5123V30.5922C556.972 29.6738 556.972 29.1244 557.156 28.9439C557.156 28.5749 557.337 28.3918 557.706 28.2114C557.89 28.0282 558.441 27.8424 558.808 27.8424H559.543V27.4761H549.984V27.8424H550.718C551.088 27.8424 551.639 28.0255 551.823 28.2114C552.19 28.3918 552.373 28.5776 552.373 28.7608C552.557 29.127 552.557 29.6765 552.557 30.5948V42.515C552.557 43.4334 552.557 43.9828 552.373 44.1659C552.373 44.5322 552.19 44.7153 551.823 44.8985C551.639 45.0816 551.088 45.0816 550.718 45.0816H549.984V45.631H559.543V45.0816L558.808 45.0789ZM560.647 27.4734V27.8397C561.198 28.0228 561.565 28.0228 561.749 28.2087C562.116 28.3891 562.483 28.7581 562.851 29.1244L563.22 29.6738V42.5123C563.22 43.4307 563.037 44.1632 562.67 44.5295C562.3 44.8985 561.565 45.0816 560.463 45.0816V45.631H567.079V45.0816H566.528C565.934 45.0682 565.358 44.8757 564.876 44.5295C564.506 44.1632 564.141 43.4307 564.141 42.5123V30.9611L576.457 45.9973H577.008V30.9611C577.008 30.0427 577.008 29.4933 577.192 29.1244C577.373 28.7581 577.559 28.3918 577.742 28.3918C578.11 28.2114 578.477 28.0255 579.395 27.8424V27.4761H573.33V27.8424C574.248 27.8424 574.983 28.2114 575.536 28.7608C575.717 29.127 575.904 29.8596 575.904 30.9611V38.661L567.079 27.4761L560.647 27.4734ZM597.773 27.1045C597.766 27.4454 597.635 27.7721 597.403 28.0228C597.036 28.206 596.852 28.3891 596.669 28.3891C596.302 28.3891 595.934 28.2087 595.016 27.8397C593.726 27.3474 592.355 27.099 590.974 27.1071C589.321 27.1071 587.663 27.4761 586.194 28.3918C584.539 29.1244 583.437 30.409 582.519 31.8768C581.599 33.5278 581.048 35.1787 581.048 36.8296C581.048 38.4779 581.599 39.9457 582.336 41.4135C583.073 42.8813 584.358 43.9801 585.827 44.8985C587.299 45.631 588.951 45.9973 590.974 45.9973C592.445 45.9973 593.731 45.8169 594.835 45.2648C596.031 44.696 597.094 43.8841 597.957 42.8813V41.4135C596.855 42.6981 595.934 43.4307 595.016 43.9801C594.098 44.5295 592.994 44.7126 591.892 44.7126C590.423 44.7126 589.321 44.3464 588.4 43.797C587.54 42.9237 586.909 41.8526 586.562 40.6782C586.194 39.3936 586.011 37.9285 586.011 36.2775C586.011 34.6266 586.194 33.1588 586.745 31.691C587.296 30.7753 587.847 29.8569 588.765 29.1244C589.869 28.5749 590.788 28.2087 591.889 28.2087C593.361 28.2087 594.463 28.7581 595.564 29.4933C596.666 30.409 597.403 31.691 597.77 33.3446H598.321V27.1098H597.773V27.1045ZM601.629 42.1433C601.262 42.5096 601.078 43.0617 601.078 43.7943C601.078 44.3437 601.262 44.8931 601.629 45.2594C602.18 45.6283 602.55 45.9919 603.282 45.9919C603.835 45.9919 604.386 45.6256 604.753 45.2594C605.304 44.8931 605.488 44.3437 605.488 43.7943C605.488 43.0617 605.304 42.5069 604.753 42.1433C604.386 41.7771 603.835 41.4108 603.282 41.4108C602.55 41.4108 602.18 41.7797 601.629 42.1433Z" fill="#2E3192"/>
</svg>
