<svg width="251" height="46" viewBox="0 0 251 46" fill="none" xmlns="http://www.w3.org/2000/svg">
<path fillRule="evenodd" clipRule="evenodd" d="M249.552 32.694L250.056 31.3823H250.543V33.1678H250.225V31.7152H250.217L249.658 33.1678H249.442L248.882 31.7152H248.874V33.1678H248.557V31.3823H249.04L249.552 32.694ZM248.246 31.6427H247.696V33.1678H247.379V31.6427H246.828V31.3823H248.245L248.246 31.6427Z" fill="black"/>
<path fillRule="evenodd" clipRule="evenodd" d="M96.0092 8.89726H102.753V11.2005C103.477 10.5689 105.811 8.33105 110.13 8.33105C115.211 8.33105 119.245 12.0826 119.245 17.9695V33.2502H112.121V19.8602C112.121 16.581 110.523 14.6334 107.627 14.6334C104.817 14.6334 103.128 16.4686 103.128 19.8602V33.2502H96.0092V8.89726ZM170.858 21.0737C170.858 17.7049 173.376 14.9407 176.871 14.9407C180.37 14.9407 182.885 17.7049 182.885 21.0737C182.885 24.4397 180.37 27.2068 176.871 27.2068C173.374 27.2068 170.858 24.4411 170.858 21.0737ZM163.831 21.0737C163.831 28.0988 169.461 33.8036 176.824 33.8036C184.194 33.8036 189.817 28.0974 189.817 21.0737C189.817 14.0501 184.194 8.33105 176.824 8.33105C169.461 8.33105 163.831 14.0501 163.831 21.0737ZM73.0747 21.0752C73.0747 17.7077 75.5914 14.9421 79.0854 14.9421C82.5837 14.9421 85.0989 17.7063 85.0989 21.0752C85.0989 24.4411 82.5837 27.2096 79.0854 27.2096C75.5899 27.211 73.0747 24.4426 73.0747 21.0752ZM66.0439 21.0766C66.0439 28.1016 71.6734 33.8065 79.0384 33.8065C86.4049 33.8065 92.0329 28.1002 92.0329 21.0766C92.0329 14.0529 86.4049 8.33247 79.0384 8.33247C71.6734 8.33247 66.0439 14.0529 66.0439 21.0766ZM224.352 8.89726H231.571V33.2516H224.352V8.89726ZM224.352 0H231.571V6.19565H224.352V0ZM237.136 0H244.355V33.2516H237.136V0ZM212.843 21.0609C212.843 24.4952 210.205 27.1627 206.761 27.1627C203.274 27.1627 200.654 24.5037 200.654 21.078C200.654 17.6096 203.307 14.9805 206.767 14.9805C210.244 14.9805 212.843 17.6338 212.843 21.0609ZM200.836 33.2516L200.908 31.378C201.413 31.7593 203.643 33.8093 208.313 33.8093C214.453 33.8093 220.15 28.3093 220.15 21.078C220.15 13.8339 214.803 8.33389 208.393 8.33389C203.498 8.33389 201.251 10.5788 200.907 10.8292V0.00142187H193.986V33.253L200.836 33.2516Z" fill="#CC2132"/>
<path fillRule="evenodd" clipRule="evenodd" d="M24.0685 33.2516L35.4227 19.0408L25.3759 8.89726H35.3501L39.8016 13.4896L48.0003 2.93778H56.3613L44.3541 18.0606L49.0289 22.7553L59.8226 8.89726H68.2034L53.5985 27.3519L72.1441 46H62.0319L49.1271 32.8675L42.2699 41.7534H33.8905L44.5988 28.3449L39.9197 23.6089L32.418 33.2516H24.0685ZM0.513672 0H22.4125V6.19707H7.96267V13.0898H21.7624V19.1034H7.96267V27.046H22.4125V33.2516H0.513672V0ZM124.942 0H136.717L142.271 24.2719H142.524L148.22 0H159.66V33.2516H152.658V8.1461H152.338L146.166 33.2516H138.297L132.268 8.1461H131.951V33.2516H124.942V0Z" fill="#CC2132"/>
</svg>
