<svg width="154" height="46" viewBox="0 0 154 46" fill="none" xmlns="http://www.w3.org/2000/svg">
<path d="M34.7661 11.2843V25.5189C34.7661 25.7497 34.6743 25.9709 34.5109 26.1341C34.3475 26.2973 34.126 26.3889 33.8949 26.3889H29.3956C29.1646 26.3888 28.9431 26.2971 28.7798 26.134C28.6164 25.9708 28.5246 25.7496 28.5245 25.5189V2.36566C28.5245 2.13493 28.6163 1.91364 28.7797 1.75048C28.943 1.58732 29.1646 1.49566 29.3956 1.49566H33.5592C33.7903 1.49566 34.0118 1.58732 34.1752 1.75048C34.3386 1.91364 34.4304 2.13493 34.4304 2.36566V5.62625C34.4304 5.62625 35.9187 0.975119 40.3358 0.975119C40.3358 0.975119 44.7049 0.447671 46.4813 5.2906C46.4813 5.2906 47.9697 0.975119 52.4828 0.975119C52.4828 0.975119 59.1945 0.57656 59.1945 7.51241L59.2456 11.3323V25.5669C59.2456 25.7976 59.1538 26.0189 58.9904 26.182C58.8271 26.3452 58.6055 26.4369 58.3744 26.4369H53.8748C53.6438 26.4368 53.4222 26.3451 53.2589 26.1819C53.0956 26.0188 53.0037 25.7976 53.0036 25.5669L52.9625 10.0376C53.0905 6.52119 50.242 6.77705 50.242 6.77705C46.6572 6.84111 47.0022 11.3323 47.0022 11.3323V25.5669C47.0022 25.7976 46.9104 26.0189 46.747 26.182C46.5837 26.3452 46.3621 26.4369 46.131 26.4369H41.6318C41.4007 26.4368 41.1792 26.3451 41.0159 26.1819C40.8525 26.0188 40.7607 25.7976 40.7606 25.5669V10.389C40.7606 10.389 41.0237 6.74483 37.8227 6.74483C37.8231 6.74483 34.6543 6.32939 34.7661 11.2843ZM150.745 11.2418V25.476C150.745 25.7067 150.653 25.9279 150.49 26.091C150.327 26.2542 150.105 26.3458 149.874 26.346L145.195 26.4365C144.964 26.4364 144.742 26.3447 144.579 26.1816C144.416 26.0184 144.324 25.7972 144.324 25.5665V10.389C144.324 10.389 144.587 6.74483 141.386 6.74483C141.386 6.74483 138.329 6.59446 138.329 12.3082V25.5185C138.329 25.7492 138.237 25.9705 138.074 26.1336C137.911 26.2967 137.689 26.3884 137.458 26.3885H132.958C132.727 26.3884 132.506 26.2967 132.342 26.1336C132.179 25.9705 132.087 25.7492 132.087 25.5185V2.36566C132.087 2.13496 132.179 1.91373 132.342 1.75059C132.506 1.58746 132.727 1.49576 132.958 1.49566H137.122C137.353 1.49566 137.575 1.58732 137.738 1.75048C137.901 1.91364 137.993 2.13493 137.993 2.36566V5.62625C137.993 5.62625 139.481 0.975119 143.899 0.975119C143.899 0.975119 148.63 0.258173 150.224 5.20046C150.224 5.20007 150.745 6.21968 150.745 11.2418ZM118.259 0.879219C112.505 0.879219 107.84 5.72215 107.84 13.8736C107.84 21.0504 111.441 26.868 118.259 26.868C124.692 26.868 128.677 21.0504 128.677 13.8736C128.677 5.866 124.013 0.879219 118.259 0.879219ZM121.89 14.1613C121.89 17.2301 121.506 18.8604 121.506 18.8604C120.96 22.1045 118.602 22.1091 118.254 22.0918C117.879 22.1068 115.501 22.073 115.009 18.8604C115.009 18.8604 114.625 17.2301 114.625 14.1613V13.65C114.625 10.5812 115.009 8.9509 115.009 8.9509C115.501 5.73826 117.879 5.70451 118.254 5.71908C118.602 5.70182 120.96 5.70604 121.506 8.9509C121.506 8.9509 121.89 10.5812 121.89 13.65V14.1613ZM105.229 5.59403V2.27207C105.229 2.04136 105.137 1.82013 104.973 1.65699C104.81 1.49386 104.589 1.40217 104.358 1.40206H89.4853C89.2543 1.40206 89.0327 1.49372 88.8694 1.65688C88.706 1.82004 88.6142 2.04133 88.6142 2.27207V5.56833C88.6143 5.79904 88.7061 6.02027 88.8695 6.1834C89.0328 6.34654 89.2543 6.43823 89.4853 6.43833H97.2429L88.0607 19.7415C88.0607 19.7415 87.6989 20.2809 87.7108 20.8766V24.9232C87.7108 24.9232 87.6509 26.3107 89.2265 25.5055C89.2265 25.5055 92.025 23.8169 96.7175 23.8169C96.7175 23.8169 101.352 23.7593 104.441 25.6509C104.441 25.6509 105.724 26.2332 105.724 24.9527V21.4305C105.724 21.4305 105.84 20.4984 104.616 19.9165C104.616 19.9165 101.06 17.9662 96.3967 18.2862L105.229 5.59403ZM25.0519 22.2484L23.6434 20.1071C23.1952 19.3077 23.2275 18.4124 23.2275 18.4124V8.53508C23.4195 1.10269e-05 13.9451 0.73537 13.9451 0.73537C5.52263 0.73537 4.27854 7.28148 4.27854 7.28148C3.92748 8.59761 4.9484 8.62945 4.9484 8.62945L9.06398 9.04642C9.06398 9.04642 9.76572 9.20676 10.0211 8.37244C10.0211 8.37244 10.5631 5.51654 13.594 5.51654C16.8918 5.51654 16.8576 8.34328 16.8576 8.34328V10.7097C10.2743 10.9295 7.2234 12.7547 7.2234 12.7547C3.15852 15.0563 3.41433 19.6276 3.41433 19.6276C3.41433 27.0756 10.5201 26.7556 10.5201 26.7556C15.0651 26.7556 17.7537 23.4314 17.7537 23.4314C18.5538 24.8384 20.0264 26.1802 20.0264 26.1802C20.7631 26.9781 21.5309 26.3084 21.5309 26.3084L24.8599 23.4636C25.5958 22.9196 25.0519 22.2484 25.0519 22.2484ZM12.7382 22.1563C10.6004 22.1563 9.80567 20.0346 10.1606 17.9494C10.5159 15.8641 12.361 14.2254 16.858 14.2733V15.5411C17.0174 21.0795 14.5177 22.1563 12.7382 22.1563ZM84.8424 22.2484L83.4343 20.1071C82.9861 19.3077 83.018 18.4124 83.018 18.4124V8.53508C83.21 1.10269e-05 73.7355 0.73537 73.7355 0.73537C65.3131 0.73537 64.069 7.28148 64.069 7.28148C63.718 8.59761 64.7389 8.62945 64.7389 8.62945L68.8545 9.04642C68.8545 9.04642 69.5562 9.20676 69.8116 8.37244C69.8116 8.37244 70.3536 5.51654 73.3845 5.51654C76.6823 5.51654 76.6481 8.34328 76.6481 8.34328V10.7097C70.0651 10.9295 67.0139 12.7547 67.0139 12.7547C62.949 15.0563 63.2048 19.6276 63.2048 19.6276C63.2048 27.0756 70.3106 26.7556 70.3106 26.7556C74.8556 26.7556 77.5442 23.4314 77.5442 23.4314C78.3447 24.8384 79.8165 26.1802 79.8165 26.1802C80.5532 26.9781 81.3214 26.3084 81.3214 26.3084L84.65 23.4636C85.3863 22.9196 84.8424 22.2484 84.8424 22.2484ZM72.5287 22.1563C70.3908 22.1563 69.5962 20.0346 69.9511 17.9494C70.3063 15.8641 72.1515 14.2254 76.6481 14.2733V15.5411C76.8079 21.0795 74.3086 22.1563 72.5287 22.1563Z" fill="black"/>
<path d="M96.1712 40.9442C96.1712 40.9442 95.7948 41.5982 96.2572 41.7444C96.2572 41.7444 96.7796 41.948 97.431 41.3443C97.431 41.3443 102.182 37.1995 102.296 29.6533C102.296 29.6533 102.331 28.7108 101.953 28.453C101.953 28.453 100.464 27.1381 95.1123 27.5382C95.1123 27.5382 90.447 27.8527 87.9001 30.111C87.9001 30.111 87.6712 30.3108 87.6712 30.5678C87.6712 30.5678 87.6163 31.1229 89.0163 30.8824C89.0163 30.8824 93.6811 30.2245 96.4574 30.5678C96.4574 30.5678 97.8889 30.7393 98.2895 31.2257C98.2895 31.2257 98.9478 31.7689 98.6041 33.5691C98.6041 33.5699 97.6592 38.1431 96.1712 40.9442Z" fill="#F3971B"/>
<path d="M95.2309 33.7045C95.2309 33.7045 95.9277 34.606 94.8034 35.3836C94.8034 35.3836 82.7939 44.9774 62.6289 44.9774C62.6289 44.9774 41.8717 46 24.5394 30.2725C24.5394 30.2725 23.9318 29.7397 24.309 29.2444C24.309 29.2444 24.6462 28.7887 25.5193 29.2843C25.5193 29.2843 41.8237 39.4309 63.237 39.4309C63.237 39.4309 78.1206 40.0063 93.3884 33.4851C93.3884 33.4851 94.6048 32.8556 95.2309 33.7045Z" fill="#F3971B"/>
</svg>
