<svg width="311" height="46" viewBox="0 0 311 46" fill="none" xmlns="http://www.w3.org/2000/svg">
<path d="M-3.91468 1.55509C-5.25569 0.246006 -6.90002 -0.200997 -8.7519 0.166184C-9.82151 0.373721 -10.7315 0.900547 -11.4978 1.66684L-17.4525 7.62156C-17.5483 7.71735 -17.6441 7.81314 -17.7558 7.90892C-17.8676 7.79717 -17.9634 7.71735 -18.0591 7.62156L-19.9589 5.7218C-21.3318 4.34886 -22.6888 2.97592 -24.0777 1.60298C-26.217 -0.488357 -29.5535 -0.504321 -31.6608 1.58702C-34.2471 4.14132 -36.8173 6.72756 -39.3876 9.31379C-40.1699 10.112 -40.6488 11.0699 -40.8563 12.1555C-40.8882 12.2991 -40.9521 12.4428 -41 12.5865V13.5763C-40.9521 13.704 -40.8882 13.8317 -40.8563 13.9594C-40.6647 15.1568 -40.09 16.1625 -39.228 17.0246C-32.1557 24.0809 -25.0994 31.1531 -18.0432 38.2094C-17.9474 38.3052 -17.8676 38.385 -17.7558 38.4808C-17.6281 38.369 -17.5323 38.2573 -17.4206 38.1455L-4.12222 24.8472C-1.47213 22.1971 1.17797 19.5629 3.8121 16.9128C5.9194 14.7896 5.95132 11.453 3.85999 9.32975C1.28972 6.71159 -1.29652 4.10939 -3.91468 1.55509ZM109.88 25.1984C109.768 22.5802 108.762 20.3771 106.798 18.621C105.362 17.3279 103.717 16.4499 101.897 15.8592C99.9657 15.2366 97.9861 14.7736 96.0385 14.2628C94.6176 13.8956 93.1968 13.5284 91.7919 13.1133C91.2811 12.9696 90.8022 12.7142 90.3232 12.4588C89.8922 12.2193 89.5729 11.8362 89.4612 11.3253C89.2217 10.2876 89.4931 9.12222 90.7862 8.59539C90.9778 8.51557 91.1693 8.45171 91.3609 8.40382C92.6381 8.13242 93.9152 8.14839 95.1924 8.48364C96.5653 8.85082 97.4114 9.72886 97.7467 11.1018C97.7786 11.1976 97.7946 11.2934 97.8265 11.4051H108.874C108.778 10.8304 108.714 10.3036 108.618 9.77676C107.98 6.56791 106.272 4.04554 103.414 2.32138C101.642 1.25176 99.6943 0.661081 97.6668 0.325828C96.0544 0.0544332 94.4261 -0.00942447 92.7817 0.00653994C91.2332 0.0225043 89.7006 0.166184 88.184 0.485472C86.4119 0.852654 84.7197 1.44334 83.1712 2.4012C81.1756 3.63046 79.675 5.29076 78.8129 7.47788C78.1424 9.17011 77.9827 10.9422 78.1264 12.7461C78.2222 14.0552 78.5415 15.3164 79.1481 16.4818C80.2337 18.5891 81.894 20.0738 84.0652 20.9997C85.7414 21.7181 87.4816 22.2769 89.2376 22.7558C91.2811 23.3146 93.3245 23.8254 95.3839 24.3682C96.1183 24.5598 96.8207 24.7993 97.4912 25.1664C98.8482 25.9327 98.928 27.9921 97.6668 28.9021C97.2837 29.1735 96.8527 29.3811 96.3897 29.5088C94.8092 29.9079 93.2287 29.8919 91.6642 29.4928C90.435 29.1735 89.5889 28.3753 89.1419 27.1939C89.0461 26.9545 88.9822 26.715 88.9024 26.4596C88.8705 26.3478 88.8226 26.2201 88.7906 26.1083H77.424C77.4878 26.5394 77.5357 26.9385 77.5996 27.3376C77.9348 29.3172 78.6373 31.1531 79.8186 32.7815C81.2395 34.7451 83.1233 36.1021 85.3264 37.028C87.4975 37.938 89.7804 38.3371 92.1112 38.4648C94.474 38.5765 96.8367 38.4808 99.1675 38.0178C100.86 37.6825 102.504 37.1717 104.037 36.3415C106.559 34.9846 108.363 33.005 109.289 30.2751C109.8 28.6307 109.959 26.9225 109.88 25.1984ZM34.7192 23.3784C34.6234 24.1767 34.4797 24.9589 34.1924 25.7252C33.5219 27.4494 32.3245 28.6148 30.5205 29.1256C29.5467 29.397 28.5569 29.4289 27.5512 29.3172C25.6993 29.0937 24.1986 28.2795 23.145 26.731C22.8097 26.2361 22.5383 25.6933 22.2989 25.1505C21.7561 23.8574 21.5326 22.4844 21.4208 21.0955C21.2772 19.0521 21.3251 17.0086 21.7561 14.9971C21.9956 13.8317 22.3947 12.7142 23.0652 11.7085C23.8794 10.4952 24.9809 9.7129 26.4017 9.36168C27.3915 9.12222 28.3973 9.10625 29.403 9.218C32.0372 9.53729 33.5378 11.0379 34.1285 13.1612C34.1764 13.3528 34.2403 13.5603 34.2722 13.7519C34.336 14.0871 34.3839 14.4224 34.4478 14.7577H45.5271V14.4703C45.4313 13.1452 45.1918 11.8362 44.8087 10.559C43.6593 6.74352 41.3604 3.85396 37.7844 2.01806C35.7728 0.980369 33.6176 0.437579 31.3826 0.166184C30.0257 -0.00942446 28.6527 -0.00942447 27.2957 0.00653994C25.3002 0.0384688 23.3525 0.341792 21.4528 0.94844C17.4457 2.22559 14.3167 4.63622 12.2094 8.30803C10.7885 10.7825 10.0382 13.4645 9.73489 16.2902C9.52735 18.206 9.52736 20.1377 9.71893 22.0694C9.9105 23.9372 10.2936 25.7731 10.9641 27.5451C12.3371 31.185 14.6519 34.0586 18.0364 36.0063C20.4949 37.4271 23.1769 38.1455 26.0026 38.4009C27.7747 38.5606 29.5467 38.5446 31.3188 38.3371C33.011 38.1455 34.6713 37.7783 36.2518 37.1717C39.3489 35.9744 41.8234 34.0107 43.5156 31.1212C44.5373 29.3651 45.1599 27.4813 45.4952 25.4857C45.6069 24.7993 45.6708 24.0968 45.7666 23.3784C45.128 23.2826 35.0065 23.2986 34.7192 23.3784ZM67.973 1.02826L67.9252 1.07616C65.77 8.80293 63.6148 16.5297 61.4436 24.2565C61.4436 24.2884 61.4276 24.3044 61.4117 24.3363C61.3957 24.3523 61.3798 24.3842 61.3638 24.4002C61.3638 24.4161 61.3478 24.4161 61.3319 24.4161C61.3159 24.4161 61.3159 24.4161 61.284 24.4002L55.2015 1.02826H43.2921C47.363 13.1931 51.4339 25.3101 55.5048 37.459H67.1429C71.2298 25.3261 75.3167 13.1772 79.4036 1.02826H67.973ZM297.398 15.508C297.238 15.9869 297.078 16.4658 296.903 16.9448C296.727 17.4397 296.567 17.9346 296.392 18.4295C296.232 18.9084 296.073 19.4033 295.897 19.8822C295.737 20.3612 295.562 20.8561 295.402 21.335C295.242 21.8139 295.083 22.3088 294.907 22.7878C294.732 23.2826 294.572 23.7775 294.396 24.2724C294.237 24.7514 294.077 25.2463 293.901 25.7252C293.742 26.2041 293.566 26.6831 293.406 27.178C293.247 27.6569 293.087 28.1518 292.928 28.6307C292.768 29.1256 292.64 29.6365 292.48 30.1314C292.337 30.6103 292.257 31.1052 292.034 31.648L291.906 31.2649C291.602 30.307 291.347 29.3491 291.012 28.4232C289.543 24.1926 288.042 19.978 286.558 15.7474C286.526 15.6676 286.478 15.5878 286.446 15.5239H281.385C281.433 15.6676 281.465 15.7953 281.513 15.9071C282.567 18.637 283.62 21.3669 284.674 24.0809C286.286 28.2635 287.899 32.4622 289.527 36.6449C289.623 36.9003 289.639 37.1238 289.543 37.3792C289.256 38.1295 289.016 38.8958 288.713 39.6462C288.569 40.0293 288.394 40.3965 288.186 40.7477C287.819 41.3544 287.276 41.7535 286.574 41.8652C286.079 41.945 285.552 41.977 285.057 41.961C284.53 41.945 284.003 41.8333 283.445 41.7694V45.6488C283.636 45.6807 283.812 45.7286 283.971 45.7605C284.45 45.8404 284.929 45.9202 285.392 46H287.148C287.244 45.9681 287.34 45.9361 287.436 45.9202C287.883 45.8244 288.346 45.7765 288.793 45.6488C290.118 45.2976 291.076 44.4515 291.81 43.318C292.401 42.408 292.832 41.4342 293.199 40.4284C296.184 32.2387 299.17 24.0489 302.155 15.8752C302.187 15.7634 302.219 15.6676 302.267 15.5239C300.654 15.508 299.042 15.508 297.398 15.508ZM234.163 19.7226C233.556 17.6312 232.295 16.0987 230.203 15.3643C228.623 14.8055 226.995 14.7577 225.382 15.2206C223.53 15.7474 222.125 16.865 221.056 18.4454C220.976 18.5731 220.896 18.6849 220.768 18.8605C220.657 18.653 220.593 18.5253 220.529 18.3975C219.763 16.8969 218.597 15.8432 217.001 15.2845C216.155 14.9812 215.293 14.9013 214.399 14.9333C212.291 15.029 210.535 15.8752 209.13 17.4556C208.891 17.727 208.683 18.0463 208.46 18.3496C208.412 18.4135 208.348 18.4454 208.22 18.5572V16.9767C208.22 16.4818 208.22 15.9869 208.204 15.508C207.438 15.4282 203.814 15.4601 203.527 15.5399V37.459H208.316V36.9482V24.5279C208.316 23.6658 208.428 22.8197 208.763 22.0215C209.498 20.2015 211.222 18.9403 213.281 19.0361C214.814 19.1159 215.931 19.978 216.362 21.4627C216.522 22.0374 216.57 22.6441 216.57 23.2507V36.9641C216.57 37.1238 216.586 37.2834 216.586 37.459H221.391V36.9961V32.7815V24.5119C221.391 23.8254 221.439 23.139 221.646 22.4685C222.285 20.2813 224.073 18.9403 226.244 19.0521C227.793 19.1319 228.958 20.0099 229.405 21.4946C229.581 22.0534 229.629 22.6121 229.629 23.2028V37.475H234.482C234.482 37.3313 234.498 37.2036 234.498 37.0759V22.4844C234.514 21.5585 234.434 20.6326 234.163 19.7226ZM162.131 20.3452C161.509 17.9186 160.088 16.2104 157.709 15.3643C156.591 14.9652 155.41 14.8854 154.229 14.9492C152.393 15.061 150.78 15.6996 149.455 17.0246C149.088 17.3918 148.769 17.8069 148.418 18.206C148.354 18.2698 148.29 18.3337 148.226 18.3816C148.194 18.3656 148.178 18.3496 148.146 18.3496V6.93509H143.373C143.293 7.39806 143.309 37.1876 143.389 37.475H148.13V36.9322V24.911C148.13 24.4002 148.146 23.8893 148.242 23.3944C148.577 21.5904 149.519 20.2494 151.243 19.515C152.185 19.1159 153.175 19.0361 154.181 19.1798C155.841 19.4193 157.054 20.4729 157.422 22.0694C157.533 22.5802 157.565 23.139 157.565 23.6658C157.581 28.1039 157.565 32.558 157.565 36.9961C157.565 37.1557 157.581 37.3154 157.581 37.475C158.076 37.5548 162.067 37.5389 162.387 37.4431V37.0759V22.8676C162.418 22.0055 162.339 21.1753 162.131 20.3452ZM275.941 30.6103C275.494 32.3983 274.393 33.5637 272.589 34.0107C271.775 34.2183 270.945 34.2342 270.114 34.1225C268.598 33.9149 267.368 33.2125 266.459 31.9673C265.98 31.3127 265.644 30.5784 265.421 29.7961C264.91 27.9921 264.862 26.1722 265.165 24.3363C265.325 23.3784 265.612 22.4525 266.107 21.6064C266.874 20.2973 267.959 19.4193 269.444 19.0361C270.066 18.8765 270.705 18.8286 271.344 18.8445C273.531 18.9084 275.239 20.2654 275.782 22.3886C275.814 22.5164 275.846 22.6281 275.878 22.7399C276.484 22.8037 280.316 22.7878 280.587 22.7079C280.587 22.6441 280.603 22.5802 280.587 22.5164C280.539 22.2769 280.491 22.0374 280.427 21.8139C279.565 18.6051 277.602 16.4339 274.409 15.4282C272.605 14.8534 270.737 14.7736 268.885 15.0929C265.724 15.6357 263.329 17.296 261.701 20.0578C260.775 21.6383 260.296 23.3625 260.121 25.1664C259.945 27.0981 260.121 28.9979 260.743 30.8338C261.797 33.899 263.745 36.15 266.794 37.3473C269.172 38.2892 271.631 38.4009 274.09 37.7624C277.538 36.8684 279.709 34.6812 280.539 31.201C280.651 30.738 280.747 30.2751 280.731 29.7802H276.085C276.053 30.0835 276.005 30.3549 275.941 30.6103ZM201.18 15.8273C201.18 15.4601 201.18 15.4441 200.813 15.3962C200.446 15.3483 200.079 15.3324 199.711 15.3324C197.875 15.3324 196.359 16.0508 195.177 17.4237C194.794 17.8707 194.475 18.3975 194.124 18.8765C194.06 18.9563 194.044 19.1 193.836 19.084V17.312C193.836 16.7213 193.852 16.1306 193.82 15.5399C193.118 15.4601 189.414 15.492 189.159 15.5718V37.491H193.948V36.9961C193.948 33.4041 193.932 29.8281 193.964 26.2361C193.964 25.5975 194.044 24.927 194.188 24.3044C194.874 21.1913 197.428 19.4991 200.653 19.8024C200.813 19.8184 200.973 19.8503 201.148 19.8822C201.164 19.7864 201.196 19.7066 201.196 19.6428V18.9084C201.18 17.8707 201.18 16.849 201.18 15.8273ZM136.812 17.3279C135.471 16.0188 133.842 15.2685 131.99 15.029C130.761 14.8694 129.548 14.9013 128.35 15.2206C126.626 15.6836 125.253 16.6893 124.152 18.0782C124.056 18.19 124.008 18.3496 123.785 18.3975C123.753 17.9186 123.769 17.4556 123.769 16.9767V15.5239H119.107V45.6488H121.502C122.3 45.6488 123.098 45.6807 123.928 45.6328V35.0644L124.024 35.0165C124.104 35.1282 124.2 35.224 124.28 35.3358C125.333 36.6449 126.658 37.5229 128.303 37.906C129.404 38.1615 130.522 38.2253 131.655 38.0976C133.683 37.8901 135.455 37.1238 136.907 35.703C138.041 34.6014 138.791 33.2764 139.318 31.7917C139.861 30.2591 140.084 28.6786 140.132 27.0502C140.18 25.1824 139.988 23.3465 139.398 21.5745C138.855 19.978 138.041 18.5253 136.812 17.3279ZM134.64 30.3868C134.497 30.7859 134.321 31.201 134.114 31.5682C133.012 33.4839 131.336 34.2662 129.181 34.0906C128.734 34.0586 128.287 33.9788 127.872 33.8511C126.531 33.4679 125.525 32.6538 124.822 31.4405C124.28 30.5145 123.992 29.5247 123.848 28.4711C123.625 26.7789 123.673 25.0866 124.12 23.4263C124.327 22.6281 124.647 21.8778 125.11 21.2073C126.068 19.8024 127.393 19.068 129.085 18.9403C129.723 18.8924 130.362 18.9244 130.985 19.068C132.23 19.3714 133.172 20.0738 133.874 21.1275C134.497 22.0853 134.848 23.1549 135.008 24.2724C135.119 25.0547 135.167 25.837 135.247 26.6352C135.215 27.8964 135.087 29.1735 134.64 30.3868ZM258.524 34.5854C258.524 34.4897 258.508 34.3939 258.492 34.2502C258.253 34.2662 258.029 34.2821 257.79 34.2821C257.103 34.2821 256.736 34.0107 256.608 33.3402C256.529 32.9411 256.513 32.526 256.513 32.1269V22.8995C256.513 22.1013 256.465 21.2871 256.305 20.5048C255.842 18.2539 254.565 16.6734 252.442 15.8273C252.043 15.6676 251.628 15.5399 251.213 15.4282C249.824 15.061 248.387 14.9971 246.95 15.045C245.896 15.0769 244.859 15.2047 243.853 15.5239C240.884 16.4339 239.048 18.3496 238.585 21.4946C238.553 21.766 238.489 22.0374 238.569 22.3248H243.055C243.087 22.1172 243.103 21.9257 243.119 21.7501C243.31 20.1856 244.22 19.1638 245.769 18.7966C246.679 18.5891 247.589 18.5731 248.515 18.6689C249.121 18.7328 249.712 18.8924 250.271 19.1798C251.053 19.6108 251.564 20.2494 251.691 21.1434C251.867 22.3407 251.5 23.107 250.398 23.586C250.143 23.6977 249.872 23.8095 249.6 23.8574C248.69 24.0489 247.78 24.2405 246.854 24.3842C245.641 24.5758 244.428 24.7673 243.246 25.0866C242.065 25.4059 240.931 25.821 239.926 26.5234C238.792 27.3216 238.042 28.3753 237.707 29.7323C237.531 30.4507 237.499 31.201 237.515 31.9354C237.595 34.5216 239.016 36.5171 241.458 37.4271C243.071 38.0338 244.747 38.1136 246.439 37.8901C248.531 37.6187 250.223 36.6608 251.516 35.0005C251.58 34.9207 251.66 34.8409 251.771 34.7132C251.819 34.9047 251.867 35.0484 251.915 35.1921C252.25 36.5012 253.096 37.2994 254.389 37.6347C255.299 37.8582 256.209 37.8741 257.135 37.7783C257.503 37.7464 257.854 37.6027 258.205 37.5069C258.428 37.4431 258.524 37.2994 258.508 37.0599C258.524 36.2298 258.524 35.4156 258.524 34.5854ZM248.467 34.1384C247.189 34.5854 245.896 34.6653 244.587 34.346C243.262 34.0267 242.528 33.1008 242.448 31.7438C242.432 31.4405 242.432 31.1212 242.464 30.8338C242.576 29.86 243.087 29.1416 243.933 28.6627C244.667 28.2476 245.465 28.0241 246.264 27.8165C247.333 27.5611 248.403 27.3216 249.456 27.0502C250.191 26.8587 250.893 26.6032 251.564 26.268C251.628 26.2361 251.707 26.2201 251.819 26.1722V26.5873C251.819 27.5132 251.787 28.4551 251.819 29.3811C251.899 31.4564 250.59 33.4041 248.467 34.1384ZM186.413 34.5854C186.413 34.4897 186.397 34.3939 186.381 34.2502C186.142 34.2662 185.902 34.2821 185.679 34.2821C184.992 34.2821 184.625 34.0107 184.497 33.3402C184.417 32.9092 184.401 32.4462 184.401 32.0152V22.7079C184.401 21.9736 184.354 21.2232 184.194 20.5048C183.875 18.9563 183.172 17.6472 181.895 16.6893C181.049 16.0508 180.107 15.6676 179.085 15.4122C177.489 15.0131 175.876 14.9652 174.248 15.061C173.226 15.1248 172.221 15.3164 171.263 15.6517C168.868 16.5137 167.256 18.1261 166.617 20.6326C166.489 21.1594 166.378 21.7022 166.426 22.2769H170.943C170.975 22.0694 170.991 21.8937 171.023 21.7181C171.215 20.1856 172.077 19.1958 173.562 18.7966C174.551 18.5412 175.557 18.5093 176.563 18.6689C177.042 18.7488 177.521 18.8765 177.952 19.068C179.117 19.5789 179.692 20.5527 179.612 21.8139C179.58 22.4365 179.325 22.9634 178.782 23.2826C178.463 23.4742 178.096 23.6339 177.744 23.7616C176.77 24.0809 175.749 24.2086 174.743 24.3682C173.53 24.5598 172.316 24.7354 171.135 25.0707C169.954 25.3899 168.804 25.821 167.783 26.5394C166.649 27.3376 165.915 28.4072 165.595 29.7642C165.42 30.4826 165.388 31.201 165.42 31.9354C165.5 34.5216 166.92 36.5171 169.363 37.4111C170.975 38.0018 172.652 38.0976 174.344 37.8741C176.435 37.6027 178.127 36.6449 179.421 34.9846C179.484 34.9047 179.564 34.8249 179.66 34.6972C179.708 34.8888 179.756 35.0325 179.804 35.1761C180.139 36.4692 180.953 37.2675 182.246 37.6027C183.156 37.8422 184.098 37.8582 185.024 37.7624C185.391 37.7304 185.742 37.5868 186.094 37.491C186.317 37.4271 186.413 37.2834 186.397 37.044C186.413 36.2298 186.429 35.3996 186.413 34.5854ZM179.644 30.2272C179.468 31.8875 178.495 33.1008 177.01 33.8511C175.573 34.5854 174.025 34.7132 172.46 34.346C171.135 34.0267 170.401 33.1008 170.337 31.7438C170.321 31.4085 170.337 31.0573 170.385 30.7061C170.496 29.8121 170.991 29.1575 171.758 28.6946C172.316 28.3593 172.939 28.1358 173.562 27.9762C174.52 27.7367 175.477 27.5132 176.419 27.2897C177.505 27.0343 178.559 26.731 179.564 26.2041C179.58 26.1882 179.612 26.2041 179.676 26.1882C179.676 27.5611 179.788 28.9021 179.644 30.2272ZM310.84 12.1874C310.808 11.8521 310.808 11.5169 310.728 11.1976C310.281 9.4415 308.461 8.43575 306.689 8.94661C305.332 9.32975 304.454 10.3994 304.342 11.8841C304.151 14.4703 306.354 15.955 308.557 15.3643C309.658 15.061 310.919 13.9275 310.84 12.1874ZM309.882 13.4645C309.419 14.4384 308.621 14.9333 307.567 14.9173C306.481 14.9013 305.699 14.3745 305.268 13.3687C305.108 12.9856 305.029 12.5865 305.045 12.1714C305.029 11.7244 305.108 11.2934 305.3 10.8783C305.779 9.90447 306.561 9.39361 307.647 9.40958C308.732 9.42554 309.515 9.98429 309.93 10.9741C310.281 11.8042 310.265 12.6504 309.882 13.4645Z" fill="#CC0000"/>
</svg>
