<svg width="204" height="46" viewBox="0 0 204 46" fill="none" xmlns="http://www.w3.org/2000/svg">
<g clip-path="url(#clip0_411_472)">
<path d="M178.733 15.4855C179.861 15.4855 180.789 14.9251 180.915 14.2011L182.028 2.16608C182.028 0.976543 180.57 0 178.737 0C176.906 0 175.449 0.976538 175.449 2.16629L176.562 14.2011C176.684 14.9249 177.612 15.4855 178.737 15.4855H178.733ZM171.928 19.2446C172.494 18.3123 172.451 17.2644 171.855 16.7989L161.506 9.85988C160.43 9.26425 158.817 9.98119 157.901 11.499C156.982 13.0149 157.145 14.708 158.218 15.3038L169.678 20.4038C170.394 20.6576 171.371 20.1692 171.932 19.2375L171.928 19.2446ZM185.544 19.2381C186.109 20.1698 187.081 20.6585 187.798 20.4045L199.258 15.3045C200.337 14.7089 200.491 13.0156 199.581 11.4997C198.661 9.98334 197.044 9.26489 195.971 9.86052L185.621 16.7996C185.03 17.2644 184.986 18.3131 185.548 19.2452L185.544 19.2381ZM178.733 30.519C179.861 30.519 180.789 31.0747 180.915 31.7994L182.028 43.8326C182.028 45.0258 180.57 46.0002 178.737 46.0002C176.906 46.0002 175.449 45.0258 175.449 43.8326L176.562 31.7994C176.684 31.0747 177.612 30.519 178.737 30.519H178.733ZM185.544 26.7591C186.109 25.8248 187.081 25.3404 187.798 25.5972L199.258 30.6938C200.337 31.2901 200.491 32.9848 199.581 34.502C198.661 36.0135 197.044 36.7338 195.971 36.1391L185.621 29.2064C185.03 28.7379 184.986 27.6886 185.548 26.7571H185.544M171.928 26.7578C172.494 27.6886 172.451 28.7379 171.855 29.2073L161.506 36.1397C160.43 36.7345 158.817 36.0141 157.901 34.5027C156.982 32.9855 157.145 31.2907 158.218 30.6944L169.678 25.5979C170.394 25.3411 171.371 25.8255 171.932 26.7599H171.928" fill="#FDBB30"/>
<path d="M113.453 29.1845C113.453 29.5538 113.419 29.9347 113.313 30.2693C112.874 31.6587 111.369 32.8337 109.486 32.8337C107.916 32.8337 106.669 31.9812 106.669 30.1808C106.669 27.4253 109.842 26.6644 113.454 26.6835L113.453 29.1843V29.1845ZM119.118 24.3826C119.118 19.8389 117.087 15.8408 110.224 15.8408C106.701 15.8408 103.905 16.7867 102.379 17.6297L103.496 21.2824C104.891 20.4408 107.114 19.744 109.218 19.744C112.699 19.7348 113.269 21.6284 113.269 22.8402V23.1271C105.681 23.1164 100.884 25.6279 100.884 30.7442C100.884 33.8705 103.327 36.7986 107.574 36.7986C110.184 36.7986 112.369 35.803 113.678 34.2066H113.807C113.807 34.2066 114.672 37.6725 119.451 36.3464C119.201 34.905 119.119 33.3664 119.119 31.5161L119.119 24.3826M0.880859 9.65308C0.880859 9.65308 5.83979 29.0752 6.63164 32.2273C7.55536 35.9065 9.22017 37.2609 14.0178 36.3464L17.114 24.3055C17.8991 21.3131 18.4246 19.1797 18.9305 16.1389H19.0185C19.3737 19.2119 19.8775 21.3224 20.5236 24.3153C20.5236 24.3153 21.7834 29.7821 22.4297 32.6524C23.0766 35.5219 24.8773 37.3316 29.5773 36.3464L36.9553 9.65222H31.0001L28.4801 21.194C27.8026 24.5522 27.1884 27.1793 26.7145 30.2508H26.6302C26.1996 27.2063 25.6512 24.6864 24.9632 21.4136L22.3416 9.65222H16.1357L13.33 21.1171C12.5359 24.602 11.7912 27.4148 11.3194 30.3841H11.2336C10.7493 27.5881 10.1046 24.0515 9.40685 20.6797C9.40685 20.6797 7.74114 12.479 7.15528 9.65222L0.880859 9.65308ZM48.2201 29.1845C48.2201 29.5538 48.1858 29.9347 48.0784 30.2693C47.6403 31.6587 46.1343 32.8337 44.2514 32.8337C42.6812 32.8337 41.436 31.9812 41.436 30.1808C41.436 27.4253 44.6081 26.6644 48.2208 26.6835L48.2201 29.1843V29.1845ZM53.8849 24.3826C53.8849 19.8389 51.8537 15.8408 44.9918 15.8408C41.4679 15.8408 38.6696 16.7867 37.1443 17.6297L38.2607 21.2824C39.6553 20.4408 41.8783 19.744 43.9827 19.744C47.4665 19.7348 48.0366 21.6284 48.0366 22.8402V23.1271C40.4449 23.1164 35.6502 25.6279 35.6502 30.7442C35.6502 33.8705 38.092 36.7986 42.3359 36.7986C44.9492 36.7986 47.1335 35.803 48.4432 34.2066H48.5708C48.5708 34.2066 49.4388 37.6725 54.216 36.3464C53.9662 34.905 53.8849 33.3664 53.8849 31.5161V24.3826ZM63.3391 30.68V9.65308H57.6669V36.3473H63.3391V30.68ZM137.541 9.65308V29.3449C137.541 32.0611 138.077 33.962 139.219 35.1253C140.22 36.1425 141.865 36.8008 143.837 36.8008C145.515 36.8008 147.164 36.4948 147.943 36.2189L147.869 31.9834C147.29 32.1186 146.625 32.2281 145.715 32.2281C143.782 32.2281 143.136 31.0446 143.136 28.6073V21.0729H148.075V15.9647H143.136V9.65308H137.541ZM122.901 16.2937V36.3473H128.752V26.0795C128.752 25.5244 128.787 25.0409 128.879 24.5986C129.312 22.4467 131.032 21.0729 133.504 21.0729C134.182 21.0729 134.667 21.1433 135.192 21.2146V15.9647C134.751 15.8808 134.452 15.8415 133.903 15.8415C131.72 15.8415 129.235 17.1882 128.193 20.077H128.035V16.2937H122.901ZM67.3107 16.2937V36.3473H73.0114V24.5878C73.0114 24.036 73.0792 23.4524 73.2792 22.9465C73.7516 21.7626 74.9044 20.3759 76.744 20.3759C79.0454 20.3759 80.1201 22.2347 80.1201 24.9174V36.3458H85.8163V24.4431C85.8163 23.9166 85.8916 23.2819 86.0544 22.8177C86.5221 21.4701 87.764 20.3744 89.4744 20.3744C91.8063 20.3744 92.9257 22.2006 92.9257 25.3582V36.3452H98.6257V24.5335C98.6257 18.3052 95.3168 15.8396 91.581 15.8396C89.9281 15.8396 88.6221 16.2353 87.4409 16.9271C86.4491 17.5111 85.5596 18.3387 84.7834 19.4264H84.6992C83.7984 17.2653 81.6789 15.8406 78.917 15.8406C75.3688 15.8406 73.774 17.5599 72.8067 19.0178H72.7218V16.293H67.3107" fill="#1A75CF"/>
<path d="M202.132 35.3723H202.218C202.332 35.3723 202.405 35.3272 202.405 35.2602C202.405 35.184 202.336 35.1426 202.23 35.1426C202.194 35.1426 202.157 35.1496 202.132 35.1496V35.3742V35.3721L202.132 35.3723ZM202.118 35.913H201.815V34.9693C201.884 34.9564 202.044 34.9334 202.25 34.9334C202.473 34.9334 202.573 34.9635 202.646 35.0107C202.708 35.0519 202.753 35.1224 202.753 35.2175C202.753 35.3143 202.66 35.3964 202.522 35.4322V35.4442C202.634 35.4728 202.695 35.5505 202.727 35.6869C202.758 35.823 202.777 35.8786 202.796 35.9136H202.453C202.423 35.8786 202.405 35.7951 202.385 35.7118C202.365 35.6162 202.318 35.5683 202.217 35.5683H202.118L202.118 35.913ZM202.244 34.6618C201.809 34.6618 201.48 35.0006 201.48 35.4326C201.48 35.8535 201.809 36.1968 202.256 36.1968C202.704 36.2039 203.033 35.8537 203.033 35.4258C203.033 34.9998 202.704 34.6618 202.25 34.6618H202.244ZM202.263 34.4056C202.87 34.4056 203.353 34.8621 203.353 35.4256C203.353 35.9956 202.87 36.4528 202.255 36.4528C201.64 36.4528 201.15 35.995 201.15 35.4258C201.15 34.8621 201.641 34.4059 202.255 34.4059H202.262" fill="#FDBB30"/>
</g>
<defs>
<clipPath id="clip0_411_472">
<rect width="202.548" height="46" fill="white" transform="translate(0.842773)"/>
</clipPath>
</defs>
</svg>
