<svg width="449" height="457" viewBox="0 0 449 457" fill="none" xmlns="http://www.w3.org/2000/svg">
<g clip-path="url(#clip0_89_1961)">
<path opacity="0.3" d="M211.827 77.5C211.827 77.5 247.834 42.0568 277.722 62.0243C307.604 81.9919 307.604 96.346 328.148 99.4622C348.693 102.584 391.027 80.1189 413.44 108.197C435.853 136.276 385.427 216.776 398.496 235.495C411.572 254.214 446.431 233.622 448.923 274.806C451.415 315.989 392.89 325.349 394.136 342.825C395.382 360.295 410.32 375.898 389.776 383.384C369.231 390.871 222.929 393.368 222.929 393.368L85.3418 386.506C85.3418 386.506 14.3708 343.449 18.1026 291.033C21.84 238.616 87.8279 226.76 78.49 189.322C69.1522 151.884 34.9097 135.033 52.9625 112.568C73.8983 86.5225 115.841 123.8 143.855 109.446C168.302 96.9206 149.709 74.2458 177.287 65.6377C204.865 57.0297 211.827 77.5 211.827 77.5Z" fill="#A6D97D"/>
<path d="M81.6099 366.544H341.218C341.218 366.544 435.848 361.549 447.054 381.522C458.261 401.49 335.617 400.241 331.88 412.098C328.143 423.955 391.022 432.69 391.022 445.171C391.022 457.652 359.894 453.906 221.683 455.155C155.684 455.751 98.1027 459.834 98.1027 449.541C98.1027 439.242 143.238 439.557 145.106 429.574C146.975 419.59 18.7254 426.452 18.7254 413.971C18.7254 401.49 51.0992 414.595 52.345 402.114C53.5908 389.633 -2.44189 396.501 0.672572 380.898C3.78703 365.295 81.6099 366.544 81.6099 366.544Z" fill="#E8BB51" stroke="#1E344A" stroke-width="2" stroke-miterlimit="10" stroke-linejoin="round"/>
<path d="M153.546 376.041C148.309 376.041 146.551 375.92 145.966 375.831C145.817 372.433 144.373 349.897 142.846 326.111C142.135 315.045 141.419 303.906 140.84 294.745C138.993 265.623 139.897 230.561 139.908 230.213V230.158L134.379 196.897C136.97 196.178 149.417 192.78 154.345 192.366L159.912 191.902L283.14 198.455C283.212 198.455 285.307 198.383 288.256 198.383C292.831 198.383 299.214 198.554 303.613 199.383L318.028 202.09L291.563 371.931C283.895 372.229 182.948 376.041 153.546 376.041Z" fill="#66B4BF"/>
<path d="M159.912 192.46L283.107 199.007H283.157H283.206C283.228 199.007 285.318 198.935 288.245 198.935C292.798 198.935 299.142 199.107 303.508 199.93L317.399 202.538L291.089 371.4C280.566 371.798 182.452 375.489 153.546 375.489C149.219 375.489 147.322 375.4 146.49 375.329C146.253 370.632 144.864 349.002 143.403 326.216C142.692 315.1 141.97 303.901 141.386 294.707C139.544 265.612 140.443 230.572 140.454 230.224L140.459 230.119L140.443 230.014L135.002 197.3C138.37 196.372 149.759 193.311 154.389 192.924L159.912 192.46ZM159.896 191.355C159.896 191.355 159.896 191.355 154.295 191.825C148.695 192.294 133.751 196.504 133.751 196.504L139.351 230.202C139.351 230.202 138.42 265.302 140.283 294.784C142.152 324.266 145.421 374.345 145.421 376.218C145.421 376.483 148.408 376.599 153.54 376.599C184.321 376.599 292.032 372.472 292.032 372.472L318.645 201.648C318.645 201.648 311.176 200.245 303.701 198.841C299.22 198.002 292.721 197.83 288.234 197.83C285.246 197.83 283.151 197.908 283.151 197.908L159.896 191.355Z" fill="#1E344A"/>
<path d="M281.845 303.895C281.773 301.182 281.194 274.789 285.577 253.711C290.196 231.5 308.161 203.576 318.728 202.195C319.274 202.123 319.808 202.09 320.321 202.09C330.138 202.09 334.912 215.417 334.912 242.832C334.912 271.297 325.657 335.222 324.334 344.195L281.845 303.895Z" fill="#4980A9"/>
<path d="M320.315 202.643C329.763 202.643 334.355 215.787 334.355 242.832C334.355 270.33 325.695 331.018 323.937 343.062L282.385 303.652C282.291 299.956 281.845 274.352 286.111 253.821C288.278 243.407 293.652 230.887 300.487 220.328C307.119 210.09 314.13 203.355 318.788 202.748C319.318 202.676 319.83 202.643 320.315 202.643ZM320.315 201.538C319.775 201.538 319.218 201.576 318.651 201.648C307.913 203.052 289.7 231.13 285.031 253.595C280.362 276.06 281.294 304.138 281.294 304.138L324.72 345.322C324.72 345.322 335.458 273.717 335.458 242.826C335.463 213.582 330.017 201.538 320.315 201.538Z" fill="#1E344A"/>
<path d="M89.5918 294.834C90.595 290.629 97.513 262.573 109.045 236.031C119.854 211.157 131.326 199.792 134.197 197.206L141.066 227.738C141.738 230.716 142.047 233.776 141.992 236.826L140.691 306.724L89.5918 294.834Z" fill="#4980A9"/>
<path d="M133.867 198.267L140.526 227.865C141.187 230.798 141.49 233.815 141.435 236.821L140.145 306.033L90.2588 294.425C91.6313 288.773 98.4501 261.805 109.552 236.257C119.573 213.179 130.184 201.775 133.867 198.267ZM134.528 196.189C134.528 196.189 121.144 206.798 108.538 235.815C95.9309 264.833 88.9248 295.254 88.9248 295.254L141.22 307.42L142.532 236.843C142.587 233.743 142.273 230.649 141.595 227.622L134.528 196.189Z" fill="#1E344A"/>
<path d="M267.292 195.095C256.268 191.283 251.125 185.924 249.592 184.062C248.391 175.039 250.833 164.409 250.833 164.409L192.722 168.183C192.722 168.183 196.619 171.785 197.573 178.697C197.573 178.697 196.525 186.46 185.787 189.736C175.049 193.013 162.128 192.024 162.128 192.024C162.128 192.024 170.254 238.727 216.86 241.423C265.418 244.23 282.903 198.886 282.903 198.886C282.903 198.886 273.852 197.366 267.292 195.095Z" fill="#EED58C" stroke="#1E344A" stroke-width="2.8799" stroke-miterlimit="10"/>
<path d="M192.722 168.188L250.833 164.415C250.833 164.415 239.119 200.56 223.866 201.808C208.614 203.057 197.573 178.703 197.573 178.703L192.722 168.188Z" fill="#1E344A"/>
<path d="M172.365 111.733C172.365 111.733 157.719 111.733 154.913 104.435C152.107 97.1306 155.078 93.1967 155.078 93.1967C155.078 93.1967 147.047 91.6055 146.738 84.097C146.435 76.5884 149.483 70.7871 149.483 70.7871C149.483 70.7871 141.375 64.6211 141.628 57.6485C141.997 47.3608 150.955 43.3662 150.955 43.3662C150.955 43.3662 143.293 33.0454 152.603 26.5755C161.913 20.1057 171.262 27.3712 171.262 27.3712C171.262 27.3712 166.257 13.1054 177.26 10.7628C188.262 8.42019 195.583 12.1662 195.583 12.1662C195.583 12.1662 207.324 -0.138128 217.913 -1.55356e-06C228.502 0.138125 232.609 13.4314 232.609 13.4314C232.609 13.4314 243.54 5.46428 255.132 11.2656C266.725 17.0669 264.272 23.5202 264.272 23.5202C264.272 23.5202 285.009 19.404 292.776 27.233C300.543 35.0565 293.696 42.2612 293.696 42.2612C293.696 42.2612 309.054 40.1064 312.245 53.0406C315.437 65.9803 306.546 69.9749 306.546 69.9749C306.546 69.9749 313.778 83.0859 307.477 92.1857C301.171 101.285 294.981 100.396 294.981 100.396C294.981 100.396 296.541 107.645 289.656 115.783C282.771 123.922 266.879 123.872 266.879 123.872L172.365 111.733Z" fill="#1E344A"/>
<path d="M175.959 146.574C171.852 147.569 166.527 140.088 164.074 129.872C161.621 119.656 162.961 110.573 167.067 109.579L174.586 108.65L182.463 145.784L175.959 146.574Z" fill="#D65555" stroke="#1E344A" stroke-width="2" stroke-miterlimit="10" stroke-linejoin="round"/>
<path d="M182.459 145.791C186.567 144.799 187.908 135.715 185.454 125.501C183 115.288 177.681 107.811 173.573 108.803C169.465 109.794 168.123 118.878 170.577 129.092C173.031 139.306 178.35 146.782 182.459 145.791Z" fill="#A23D3D" stroke="#1E344A" stroke-width="2" stroke-miterlimit="10" stroke-linejoin="round"/>
<path d="M174.719 85.6053C174.719 85.6053 173.258 112.711 175.132 119.977C177.006 127.237 178.947 132.944 178.947 132.944C178.947 132.944 179.206 144.563 183.362 153.74C195.043 179.531 218.106 186.758 218.106 186.758C218.106 186.758 238.38 178.874 250.833 164.415C263.285 149.956 261.51 133.016 261.51 133.016L265.54 96.6499L242.448 60.6928L191.211 71.3175L174.719 85.6053Z" fill="#EED58C" stroke="#1E344A" stroke-width="2.8799" stroke-miterlimit="10"/>
<path d="M251.676 110.717C251.676 110.717 242.079 106.772 234.582 107.286C230.376 107.573 227.289 109.219 225.388 110.612C224.098 111.557 222.273 111.17 221.457 109.789C220.719 108.54 221.088 106.938 222.29 106.125C224.781 104.446 229.345 102.07 234.996 102.308C246.197 102.783 251.676 110.717 251.676 110.717Z" fill="#1E344A"/>
<path d="M224.721 129.889C224.721 129.889 229.605 124.944 235.707 124.264C241.809 123.585 247.784 126.027 247.784 126.027C247.784 126.027 244.747 131.519 236.908 132.745C229.064 133.977 224.721 129.889 224.721 129.889Z" fill="white" stroke="#1E344A" stroke-width="2" stroke-miterlimit="10"/>
<path d="M183.064 131.889C183.064 131.889 185.528 127.723 193.014 127.861C200.5 127.999 205.356 132.159 205.356 132.159C205.356 132.159 201.74 134.972 193.819 135.48C187.86 135.856 183.064 131.889 183.064 131.889Z" fill="white" stroke="#1E344A" stroke-width="2" stroke-miterlimit="10"/>
<path d="M175.887 115.485C175.887 115.485 183.93 111.446 189.343 110.943C194.756 110.44 198.118 112.468 198.118 112.468C199.491 112.706 200.841 111.938 201.338 110.634C201.966 108.982 200.996 107.148 199.276 106.75C196.25 106.048 191.437 105.462 186.592 107.032C178.616 109.612 175.887 115.485 175.887 115.485Z" fill="#1E344A"/>
<path d="M209.408 134.701L206.227 150.961C206.227 150.961 209.606 152.044 212.616 150.923C215.626 149.801 217.566 148.011 217.566 148.011" stroke="#1E344A" stroke-width="2" stroke-miterlimit="10"/>
<path d="M211.16 162.017C211.16 162.017 210.78 159.16 214.506 158.276C221.286 156.663 223.999 159.067 227.57 158.475C231.142 157.884 233.436 156.111 233.436 156.111C233.436 156.111 231.198 161.636 221.253 162.984C211.304 164.326 211.16 162.017 211.16 162.017Z" fill="#D65555" stroke="#1E344A" stroke-width="2" stroke-miterlimit="10" stroke-linejoin="round"/>
<path d="M213.784 163.586C213.784 163.586 215.967 167.934 219.396 168.293C228.205 169.211 231.948 158.442 231.948 158.442C231.948 158.442 226.871 162.011 221.248 162.984C215.626 163.951 213.784 163.586 213.784 163.586Z" fill="#D65555" stroke="#1E344A" stroke-width="2" stroke-miterlimit="10" stroke-linejoin="round"/>
<path d="M186.702 133.734C186.702 133.734 187.805 129.723 192.479 129.762C197.148 129.806 198.813 134.718 198.813 134.718C198.813 134.718 195.82 135.53 192.093 135.215C188.367 134.9 186.702 133.734 186.702 133.734Z" fill="#A6D97D" stroke="#1E344A" stroke-width="1.3096" stroke-miterlimit="10"/>
<path d="M228.993 131.944C228.993 131.944 230.117 127.463 235.591 126.916C241.065 126.369 242.586 130.961 242.586 130.961C242.586 130.961 239.709 132.712 235.172 133.143C230.641 133.574 228.993 131.944 228.993 131.944Z" fill="#A6D97D" stroke="#1E344A" stroke-width="1.3096" stroke-miterlimit="10"/>
<path d="M277.204 104.639C277.358 103.308 277.463 101.954 277.523 100.595C278.819 69.9528 255.088 44.0568 224.511 42.7529C205.235 41.9352 187.843 51.0902 177.298 65.6433C187.788 55.7368 202.098 49.9189 217.637 50.5764C246.853 51.8196 269.817 75.5166 270.671 104.357L277.204 104.639Z" fill="#D65555" stroke="#1E344A" stroke-width="2" stroke-miterlimit="10" stroke-linejoin="round"/>
<path d="M181.036 61.516C181.036 61.516 168.842 77.2348 167.867 85.6274C166.891 94.02 160.783 98.44 166.208 102.733C171.632 107.026 174.592 103.402 174.592 103.402C174.592 103.402 178.511 99.197 181.168 95.2521C183.825 91.3072 182.717 88.1358 182.717 88.1358C182.717 88.1358 188.362 94.6222 197.242 90.937C206.122 87.2573 211.833 77.5056 211.833 77.5056C211.833 77.5056 214.666 84.1854 222.207 82.6328C229.748 81.0803 230.531 77.3674 230.531 77.3674C230.531 77.3674 229.202 86.6772 236.897 88.8817C244.593 91.0806 247.602 86.2131 247.602 86.2131C247.602 86.2131 245.651 95.5007 251.792 97.6334C257.932 99.7661 259.757 100.783 259.757 100.783C259.757 100.783 255.502 105.601 257.899 107.888C260.297 110.175 266.785 111.391 266.785 111.391L270.671 104.374C270.671 104.374 274.431 92.6663 270.677 85.6385C266.923 78.6106 262.596 77.7984 262.596 77.7984C262.596 77.7984 260.611 65.8477 253.655 60.8696C246.698 55.8915 242.277 57.2617 242.277 57.2617C242.277 57.2617 230.503 48.3277 223.067 47.3885C215.631 46.4492 212.048 50.0405 212.048 50.0405C212.048 50.0405 202.137 48.6813 196.74 50.9521C191.349 53.2229 186.741 58.9579 186.741 58.9579L181.036 61.516Z" fill="#1E344A"/>
<path opacity="0.2" d="M182.463 72.428C182.463 72.428 181.217 87.1965 190.765 86.9866C200.312 86.7766 211.932 69.7208 211.932 69.7208C211.932 69.7208 213.178 78.4559 220.647 78.0415C228.116 77.6271 230.608 68.2677 230.608 68.2677C230.608 68.2677 224.175 75.7541 219.815 71.8037C215.454 67.8533 213.591 59.9469 213.591 59.9469C213.591 59.9469 197.986 79.594 191.178 78.4614C183.709 77.2127 182.463 72.428 182.463 72.428Z" fill="#66B4BF"/>
<path opacity="0.2" d="M176.24 91.6663C176.24 91.6663 170.639 98.8434 165.033 93.8487C159.433 88.8541 165.656 77.9365 165.656 77.9365C165.656 77.9365 156.627 92.915 162.233 99.1528C167.834 105.396 176.24 91.6663 176.24 91.6663Z" fill="#66B4BF"/>
<path opacity="0.2" d="M156.004 66.7096C156.004 66.7096 149.781 64.5272 152.267 56.4109C154.758 48.3001 163.473 49.8582 163.473 49.8582C163.473 49.8582 154.135 41.123 159.427 36.7527C164.719 32.3824 175.926 38.0014 175.926 38.0014C175.926 38.0014 164.102 24.8959 157.564 29.8906C151.027 34.8852 156.01 46.1122 156.01 46.1122C156.01 46.1122 148.116 47.1454 146.358 54.8473C143.866 65.7703 156.004 66.7096 156.004 66.7096Z" fill="#66B4BF"/>
<path opacity="0.1" d="M248.898 140.287C249.096 142.69 245.574 144.944 241.032 145.32C236.49 145.696 232.653 144.049 232.455 141.646C232.256 139.243 235.778 136.988 240.321 136.613C244.857 136.237 248.699 137.883 248.898 140.287Z" fill="#C4007B"/>
<path opacity="0.1" d="M200.957 144.37C200.753 146.773 196.906 148.409 192.369 148.016C187.832 147.63 184.315 145.364 184.519 142.961C184.723 140.558 188.571 138.922 193.108 139.314C197.65 139.707 201.161 141.966 200.957 144.37Z" fill="#C4007B"/>
<path d="M176.813 123.618C176.593 121.833 177.883 120.22 179.669 120.054C182.783 119.761 187.86 119.513 193.51 120.131C202.815 121.154 206.944 121.745 208.074 124.496C209.204 127.253 208.515 138.674 205.703 141.259C202.892 143.845 186.118 142.718 182.061 140.464C179.079 138.812 177.464 128.828 176.813 123.618Z" stroke="#1E344A" stroke-width="6" stroke-miterlimit="10"/>
<path d="M219.705 121.021C217.654 121.408 216.287 123.364 216.629 125.43C217.505 130.745 222.929 140.718 225.851 141.287C229.969 142.088 247.917 140.143 249.482 137.502C251.048 134.861 253.633 117.899 250.568 116.728C248.143 115.8 228.056 119.446 219.705 121.021Z" stroke="#1E344A" stroke-width="6" stroke-miterlimit="10"/>
<path d="M208.741 128.27L216.866 127.784" stroke="#1E344A" stroke-width="6" stroke-miterlimit="10"/>
<path d="M251.737 123.441L265.341 111.109" stroke="#1E344A" stroke-width="6" stroke-miterlimit="10"/>
<path d="M263.682 140.464C259.487 139.966 257.073 131.11 258.302 120.673C259.531 110.236 263.924 102.18 268.119 102.672L275.495 104.413L270.054 141.983L263.682 140.464Z" fill="#A23D3D" stroke="#1E344A" stroke-width="2" stroke-miterlimit="10" stroke-linejoin="round"/>
<path d="M279.865 123.993C281.09 113.559 278.682 104.7 274.485 104.205C270.289 103.709 265.894 111.766 264.668 122.2C263.443 132.633 265.852 141.493 270.048 141.988C274.244 142.483 278.64 134.426 279.865 123.993Z" fill="#D65555" stroke="#1E344A" stroke-width="2" stroke-miterlimit="10" stroke-linejoin="round"/>
<path d="M88.9248 295.248C88.9248 295.248 116.889 298.11 121.249 281.883C125.609 265.662 107.76 265.242 113.78 254.634C119.799 244.025 127.478 249.434 128.928 236.329C130.383 223.224 120.417 214.488 120.417 214.488C120.417 214.488 110.042 231.334 102.154 252.97C94.2662 274.607 88.9248 295.248 88.9248 295.248Z" fill="#365D8D" stroke="#1E344A" stroke-width="2" stroke-miterlimit="10"/>
<path d="M295.151 228.014C295.151 228.014 315.387 239.871 316.942 258.904C318.496 277.938 303.558 267.015 302.935 281.054C302.312 295.094 313.21 294.469 310.404 306.017C307.604 317.558 281.299 304.144 281.299 304.144C281.299 304.144 280.522 284.176 283.322 264.833C286.122 245.484 295.151 228.014 295.151 228.014Z" fill="#365D8D" stroke="#1E344A" stroke-width="2" stroke-miterlimit="10"/>
<path d="M209.391 240.495C209.391 240.495 244.411 322.393 270.556 344.858C296.706 367.323 320.051 378.086 323.32 366.383C326.588 354.681 331.257 345.792 313.982 315.84C296.706 285.889 232.267 229.727 232.267 229.727C232.267 229.727 237.498 192.642 231.799 188.073C227.907 184.951 203.785 184.327 200.979 187.139C198.179 189.946 190.241 221.77 193.973 220.367C197.71 218.964 204.248 200.709 204.248 200.709H210.317C210.317 200.709 204.717 218.024 205.648 225.511C206.591 233.003 209.391 240.495 209.391 240.495Z" fill="#EED58C" stroke="#1E344A" stroke-width="2.8799" stroke-miterlimit="10"/>
<path d="M203.322 194.316C203.322 194.316 204.568 196.814 204.254 199.62C203.945 202.427 203.322 203.206 203.322 203.206" fill="#EED58C"/>
<path d="M203.322 194.316C203.322 194.316 204.568 196.814 204.254 199.62C203.945 202.427 203.322 203.206 203.322 203.206" stroke="#1E344A" stroke-width="2.8799" stroke-miterlimit="10" strokeLinecap="round"/>
<path d="M214.214 194.626C214.214 194.626 211.723 196.968 210.791 199.306C209.86 201.643 209.077 205.704 209.077 205.704" fill="#EED58C"/>
<path d="M214.214 194.626C214.214 194.626 211.723 196.968 210.791 199.306C209.86 201.643 209.077 205.704 209.077 205.704" stroke="#1E344A" stroke-width="2.8799" stroke-miterlimit="10" strokeLinecap="round"/>
<path opacity="0.1" d="M212.66 246.578C212.66 246.578 246.748 255.004 257.949 277.469C269.155 299.934 261.218 313.503 270.087 325.675C278.956 337.841 292.031 335.973 298.101 346.267C304.17 356.565 300.901 365.925 300.901 365.925C300.901 365.925 282.688 359.842 262.612 335.974C242.536 312.105 235.53 294.79 235.53 294.79L212.66 246.578Z" fill="#C4007B"/>
<path d="M281.299 401.02L297.174 376.682H281.299V401.02Z" fill="#E3E3E3" stroke="#1E344A" stroke-width="2" stroke-miterlimit="10" stroke-linejoin="round"/>
<path d="M297.174 376.682L297.185 378.262C297.213 382.014 296.138 385.694 294.093 388.832L284.072 404.241C282.341 406.904 279.392 408.512 276.222 408.529L271.492 408.556L281.299 401.015L297.174 376.682Z" fill="#AFAFAF" stroke="#1E344A" stroke-width="2" stroke-miterlimit="10" stroke-linejoin="round"/>
<path d="M68.744 255.385L75.5187 401.843C75.7006 405.832 78.9859 408.965 82.9658 408.954L273.824 408.518C277.942 408.507 281.271 405.147 281.249 401.015L280.4 256.728C280.378 252.65 277.093 249.352 273.025 249.313L76.2353 247.573C71.9743 247.545 68.5456 251.109 68.744 255.385Z" fill="#E3E3E3" stroke="#1E344A" stroke-width="2" stroke-miterlimit="10"/>
<path d="M170.099 321.492C170.099 321.492 162.575 314.398 155.646 320.603C148.711 326.813 160.364 342.78 164.201 343.222C168.037 343.664 171.279 342.04 171.279 342.04C171.279 342.04 175.391 344.228 179.095 343.073C183.373 341.742 193.256 326.073 185.44 320.746C177.618 315.431 170.099 321.492 170.099 321.492Z" fill="white"/>
<path d="M170.391 316.907C170.391 316.907 169.36 312.47 172.161 307.89C174.961 303.304 179.238 301.237 179.238 301.237C179.238 301.237 179.09 307.298 176.438 311.144C173.787 314.989 170.391 316.907 170.391 316.907Z" fill="white"/>
<path opacity="0.5" d="M68.7441 255.385L75.0282 401.175C75.2266 405.777 79.0411 409.391 83.6384 409.324L108.069 408.976C108.069 408.976 129.082 377.152 124.413 358.897C119.744 340.642 96.8625 350.471 91.2619 328.476C85.6614 306.481 106.669 305.077 105.269 284.485C103.802 262.927 68.7441 255.385 68.7441 255.385Z" fill="#AFAFAF"/>
<path d="M342.155 385.887L339.978 353.123L363.008 357.803L363.322 392.749L342.155 385.887Z" fill="#D65555" stroke="#1E344A" stroke-width="2" stroke-miterlimit="10" stroke-linejoin="round"/>
<path d="M363.008 357.803L391.65 350.631L389.158 383.704L363.322 392.749L363.008 357.803Z" fill="#993939" stroke="#1E344A" stroke-width="2" stroke-miterlimit="10" stroke-linejoin="round"/>
<path d="M339.978 353.123L364.05 346.885L391.65 350.631L363.008 357.803L339.978 353.123Z" fill="#1E344A"/>
<path d="M359.05 353.284C359.05 353.284 348.709 347.924 345.501 341.134C342.293 334.344 344.255 322.194 344.255 322.194C344.255 322.194 350.137 325.769 356.024 335.951C361.9 346.134 359.05 353.284 359.05 353.284Z" fill="#A6D97D" stroke="#1E344A" stroke-width="2" stroke-miterlimit="10"/>
<path d="M384.252 322.188C384.252 322.188 373.911 327.548 370.703 334.338C367.495 341.128 369.457 353.278 369.457 353.278C369.457 353.278 375.339 349.703 381.226 339.521C387.102 329.338 384.252 322.188 384.252 322.188Z" fill="#A6D97D" stroke="#1E344A" stroke-width="2" stroke-miterlimit="10"/>
<path d="M363.322 354.372C363.322 354.372 358.03 343.609 358.339 334.404C358.648 325.2 365.808 317.558 365.808 317.558C365.808 317.558 371.723 324.266 371.1 333.94C370.483 343.609 363.322 354.372 363.322 354.372Z" fill="#74BC66" stroke="#1E344A" stroke-width="2" stroke-miterlimit="10"/>
<path d="M57.9344 198.648C68.5836 198.648 77.2165 189.995 77.2165 179.321C77.2165 168.648 68.5836 159.995 57.9344 159.995C47.2852 159.995 38.6523 168.648 38.6523 179.321C38.6523 189.995 47.2852 198.648 57.9344 198.648Z" fill="#FDB306"/>
<path d="M57.328 168.57L60.5142 175.039L67.6416 176.078L62.4876 181.117L63.7003 188.228L57.328 184.869L50.9558 188.228L52.174 181.117L47.02 176.078L54.1419 175.039L57.328 168.57Z" fill="white"/>
<path d="M365.814 136.906C380.427 136.906 392.273 125.032 392.273 110.385C392.273 95.7385 380.427 83.8649 365.814 83.8649C351.201 83.8649 339.355 95.7385 339.355 110.385C339.355 125.032 351.201 136.906 365.814 136.906Z" fill="#27AC1F"/>
<path d="M348.411 114.446L361.277 104.877H380.372L367.71 114.446H348.411Z" fill="white"/>
<path d="M353.362 115.85V119.209C353.362 121.894 355.533 124.071 358.212 124.071H366.134C367.236 124.071 368.305 123.695 369.165 123.004L374.11 119.043C376.05 117.49 377.175 115.137 377.175 112.65L377.02 109.457L367.837 116.01L353.362 115.85Z" fill="white"/>
<path d="M364.877 108.203C364.877 108.203 370.637 103.832 368.614 101.65C366.591 99.4677 365.191 98.8434 366.277 96.5007C367.368 94.1581 371.26 94.9427 371.26 94.9427" stroke="white" stroke-miterlimit="10"/>
<path d="M374.215 95.1747C374.215 96.0366 373.52 96.7328 372.66 96.7328C371.8 96.7328 371.106 96.0366 371.106 95.1747C371.106 94.3128 371.8 93.6167 372.66 93.6167C373.52 93.6167 374.215 94.3183 374.215 95.1747Z" fill="white"/>
<path d="M374.915 95.799L378.261 97.5947L378.884 96.1913L377.875 95.7217L379.198 95.4896L378.961 94.0089L375.075 94.6333L374.915 95.799Z" fill="white"/>
</g>
<defs>
<clipPath id="clip0_89_1961">
<rect width="449" height="457" fill="white"/>
</clipPath>
</defs>
</svg>
